<?xml version="1.0" encoding="UTF-8" standalone="no"?>
<!-- Created with Inkscape (http://www.inkscape.org/) -->

<svg
   width="400mm"
   height="400mm"
   viewBox="0 0 400 400"
   version="1.1"
   id="svg1000"
   inkscape:version="1.1.2 (b8e25be8, 2022-02-05)"
   sodipodi:docname="harry potter.svg"
   xmlns:inkscape="http://www.inkscape.org/namespaces/inkscape"
   xmlns:sodipodi="http://sodipodi.sourceforge.net/DTD/sodipodi-0.dtd"
   xmlns="http://www.w3.org/2000/svg"
   xmlns:svg="http://www.w3.org/2000/svg">
  <sodipodi:namedview
     id="namedview1002"
     pagecolor="#ffffff"
     bordercolor="#666666"
     borderopacity="1.0"
     inkscape:pageshadow="2"
     inkscape:pageopacity="0.0"
     inkscape:pagecheckerboard="0"
     inkscape:document-units="mm"
     showgrid="false"
     inkscape:zoom="1.0670983"
     inkscape:cx="330.33507"
     inkscape:cy="1243.0907"
     inkscape:window-width="2560"
     inkscape:window-height="1027"
     inkscape:window-x="1920"
     inkscape:window-y="25"
     inkscape:window-maximized="1"
     inkscape:current-layer="layer1" />
  <defs
     id="defs997" />
  <g
     inkscape:label="Layer 1"
     inkscape:groupmode="layer"
     id="layer1">
    <path
       id="path6"
       style="stroke-width:1.40161"
       d="M 608.17188 122.96094 C 594.01101 123.21795 579.90806 125.29478 565.74023 125.80469 C 545.46069 127.26832 525.08117 127.10673 504.78711 126.14453 C 492.32075 126.37493 480.02737 124.21895 467.69141 123.13477 C 467.21307 126.86164 468.44476 130.90012 472.47461 132.41797 C 479.69351 135.64341 486.53754 141.38905 486.8418 149.39844 C 493.35037 225.92808 495.62515 302.76948 495.4082 379.55664 C 474.95469 395.14175 452.47176 408.35696 429.39453 420.25586 C 420.88549 424.18604 412.30387 428.671 402.76562 429.9043 C 401.3016 411.44607 401.28743 392.91924 400.11328 374.47461 C 399.53377 360.0008 399.46004 345.51484 399.19922 331.04102 C 397.83655 312.09495 398.16947 293.08059 397.66211 274.10742 C 396.79255 251.54289 396.85156 228.951 396.85156 206.35938 C 396.96759 197.7537 396.74917 189.08126 398.34375 180.58398 C 400.53263 172.39842 405.73792 164.60594 413.95703 160.67578 C 414.42085 158.01954 414.89747 155.36315 415.36133 152.69336 C 402.09772 152.74756 388.81975 152.92255 375.59961 153.88477 C 360.13262 154.23713 344.66539 154.30525 329.21289 154.58984 C 319.12384 155.64692 308.96375 155.09096 298.8457 155.21289 C 292.07616 155.07736 285.2768 155.65984 278.55078 154.73828 C 273.65118 154.44015 268.70818 153.95291 263.80859 154.37305 C 260.82248 154.9829 259.09787 157.69372 258.85156 160.39062 C 272.82548 164.79509 286.11708 174.45714 289.07422 188.63281 C 290.87172 233.82963 293.03302 279.03994 294.20703 324.27734 C 295.52489 337.80252 295.03336 351.42258 295.51172 365.00195 C 296.96115 382.99937 296.45316 401.07902 297.10547 419.10352 C 297.00425 427.89897 297.58428 436.73364 296.68555 445.50195 C 291.01771 445.44791 286.07411 442.60254 281.05859 440.50195 C 262.67793 432.2486 244.50092 423.3982 227.71484 412.5293 C 221.64109 408.50425 215.56784 404.35725 210.69727 399.03125 C 225.20748 390.07316 240.93515 383.03973 255.82227 374.70508 C 258.34453 373.43115 257.66129 370.51758 257.64844 368.30859 C 233.75945 371.37138 209.36244 374.62387 187.21289 384.01562 L 187.21289 386.79492 C 192.15594 398.20592 198.47572 409.0739 205.53516 419.44141 C 213.9427 431.17763 223.75618 442.91378 237.59961 449.29688 C 257.45882 459.09514 277.85613 467.90401 298.22266 476.72656 C 298.61406 501.78472 299.19467 526.84415 299.16406 551.90234 C 298.41028 570.00813 298.75782 588.14006 297.55469 606.21875 C 296.67043 615.42077 296.53993 625.17787 291.33594 633.37695 C 282.81241 647.10544 267.3745 655.34685 252.02344 661.01172 C 251.90759 662.17721 251.6767 664.48099 251.56055 665.64648 C 248.38596 666.97461 252.63338 668.35731 254.16992 668.79102 C 297.22237 669.00796 340.31778 669.68398 383.2832 672.38086 C 396.19894 673.45152 409.20128 674.2374 421.91406 676.79883 C 425.87142 677.59839 429.69906 679.482 433.85938 678.99414 C 435.91777 676.39209 432.22008 673.32928 429.92969 671.90625 C 419.94217 666.29565 407.96969 660.45613 404.72266 649.07227 C 403.40353 638.69123 404.46221 628.18733 403.92578 617.76562 C 403.56332 568.12369 402.83765 518.48178 402.5625 468.83984 C 435.22147 462.06372 468.25661 452.2105 494.94336 432.68164 C 498.16144 456.46594 497.94483 480.4943 498.91602 504.41406 C 500.0032 540.12425 499.43694 575.87551 497.625 611.55859 C 495.871 631.26361 494.94474 651.44345 487.8418 670.26758 C 482.24643 685.10729 468.54649 695.44653 454.32617 702.88672 C 454.02154 707.11507 458.26929 710.19273 459.54492 714.10938 C 485.07196 711.22276 510.84643 712.13051 536.50391 712.30664 C 563.75596 713.32307 590.90559 716.26454 617.82422 720.34375 C 620.24504 720.64233 622.68105 720.50353 625.13086 720.49219 C 626.26151 718.5271 627.21745 716.49487 627.92773 714.36719 C 622.49183 709.35281 614.56281 707.45393 609.67773 701.78906 C 596.10968 687.61342 592.96377 667.70578 591.4707 649.42383 C 590.81851 625.99197 590.67508 602.54699 590.63086 579.10156 C 589.92027 559.20681 590.934 539.28538 589.96289 519.39062 C 590.12239 472.77088 589.51479 426.16471 589.67383 379.54492 C 607.77909 369.69245 628.8844 366.66923 649.16406 363.05078 C 636.13233 374.65151 622.3903 386.00826 612.80859 400.44141 C 609.25712 406.03851 605.72112 412.58441 607.70703 419.26562 C 612.36016 440.09551 620.47816 460.04365 627.39258 480.26367 C 633.78531 498.24753 640.03289 516.28577 646.39648 534.2832 C 647.9041 540.1649 654.93381 542.18447 660.42773 543.60742 C 667.95107 544.96265 676.89532 547.72845 683.65039 542.84961 C 697.97219 532.577 712.33696 522.33106 726.99219 512.47852 C 727.90543 522.71053 727.87717 535.88407 739.11133 541.33203 C 750.08466 544.62525 763.5654 543.98741 772.55273 536.58789 C 780.97481 529.90659 785.1927 519.82422 793.6582 513.18359 C 806.06662 503.14135 818.37293 492.96342 830.50586 482.62305 C 832.36134 480.99675 834.42006 479.2885 834.79688 476.79492 C 826.0269 478.96324 816.38696 478.63875 808.06641 475.10156 C 808.08152 457.7818 808.61728 440.47605 808.74805 423.15625 C 810.48754 400.63234 809.69031 378.02547 809.87891 355.46094 C 809.79198 335.74241 809.29892 315.95667 805.96484 296.44141 C 804.26848 288.39416 800.40091 281.26693 795.54688 274.66602 C 796.1819 274.88731 796.80778 275.0738 797.36719 275.21484 C 811.99343 273.48015 826.82195 274.1313 841.53516 274.14453 C 843.98467 291.00355 842.49312 308.10618 844.16016 325.00586 C 844.43568 353.9535 844.88193 382.91569 844.85547 411.86328 C 844.60904 417.31136 846.08806 422.66333 845.63867 428.11133 C 845.7256 466.5184 845.79599 504.92503 845.76953 543.3457 C 845.94339 545.29722 845.33455 547.23702 843.8125 548.64648 C 839.63771 552.72569 834.36185 555.63755 829.12891 558.38867 C 823.93939 561.20756 820.06832 565.81721 817.83594 570.99414 C 822.09766 571.6579 826.41824 571.4531 830.70898 571.45312 C 871.12321 571.41232 911.53668 571.58957 951.92188 570.66797 C 952.18265 569.8819 952.70475 568.2822 952.95117 567.49609 C 952.54529 566.83207 951.71915 565.51768 951.29883 564.86719 C 944.90617 561.77727 937.28164 558.48521 934.62891 551.72266 C 930.48314 527.45053 930.62817 502.71656 927.68555 478.34961 C 926.46793 458.34646 923.59644 438.46618 922.27734 418.47656 C 920.42224 407.79739 922.04606 396.83364 920.37891 386.16797 C 919.71208 355.36366 918.35036 324.58556 917.30664 293.78125 C 917.2764 289.32255 916.50776 284.74262 917.71094 280.36523 C 921.97266 276.55705 927.30692 281.4216 928.26367 285.5957 C 932.82987 300.63873 937.70218 315.61358 942.15234 330.69727 C 944.10927 337.54115 946.57364 344.27656 947.82031 351.26953 C 948.1102 351.45926 948.71834 351.85324 949.00781 352.04297 C 944.6301 356.66429 940.28149 361.33918 935.57031 365.68945 C 937.57074 367.54612 939.35371 369.62006 940.75977 371.9375 C 943.369 372.12723 945.47017 370.55452 947.64453 369.42969 C 967.06885 358.61497 986.49457 347.75966 1005.4551 336.24023 C 1008.8536 334.31884 1010.993 331.24376 1011.918 327.76758 C 1011.4505 366.03173 1011.034 404.29875 1010.9121 442.57422 C 1009.5205 462.87561 1008.9999 483.35417 1004.5352 503.34375 C 1003.0421 510.56707 997.57745 516.2049 992.22852 521.27344 C 986.15474 526.68085 979.83432 531.99205 972.54297 535.94922 C 972.34001 536.39649 971.94905 537.27738 971.74609 537.72461 C 975.81948 539.12046 979.78954 540.7883 983.73242 542.46875 C 991.29919 545.76197 999.88176 544.33751 1007.9414 544.32617 C 1014.1021 543.09333 1020.4797 543.71616 1026.7129 542.98438 C 1040.5418 541.23619 1054.6761 540.35473 1068.6211 541.60156 C 1077.2025 541.66922 1085.9565 542.27838 1094.625 542.41406 C 1100.4523 543.25391 1106.3387 543.83695 1112.2676 543.55273 C 1105.8024 535.46201 1095.5975 529.79642 1091.4082 520.01172 C 1091.0601 497.78602 1090.9013 475.56168 1090.7852 453.33594 C 1090.6257 444.75739 1091.2764 436.15127 1090.1602 427.61328 C 1090.1828 412.07319 1090.1149 396.53232 1090.0586 380.99219 C 1096.1966 381.59563 1103.2199 382.66416 1107.3027 387.39258 C 1110.7382 393.99254 1112.8967 401.08018 1115.6074 407.95117 C 1118.1587 414.68667 1120.3772 421.54387 1122.8848 428.29297 C 1127.7699 442.27885 1132.525 456.31912 1137.3086 470.3457 C 1148.3399 503.57588 1159.5592 536.76609 1169.7207 570.24023 C 1170.3002 573.19465 1171.6191 576.83935 1169.3867 579.44141 C 1164.5161 585.10624 1160.8913 591.57037 1156.5137 597.56055 C 1141.8149 619.55577 1126.7405 641.33405 1112.3027 663.46484 C 1072.4974 667.24592 1032.3 664.95574 992.72656 659.94141 C 980.69504 657.94922 968.06994 657.23138 956.9082 652.24414 C 957.09642 645.29181 960.4883 638.92205 962.99609 632.52539 C 964.30071 630.1944 964.7357 626.65705 968.01172 626.08789 C 983.50774 621.83248 999.16396 618.14617 1014.7324 614.13477 C 1016.7328 613.43 1019.5448 613.20055 1019.9941 610.69336 C 1015.8629 607.82035 1010.3385 609.64889 1005.6562 608.375 C 986.78289 606.91134 967.93962 604.79806 949.03711 603.60547 C 935.96191 615.16557 923.08917 627.21393 913.37695 641.49805 C 911.07208 645.82115 907.08593 650.25157 907.73828 655.29297 C 916.94306 659.94141 926.32091 664.30605 935.93164 668.22266 C 941.30953 670.37748 946.68776 672.55821 952.18164 674.50977 C 957.44365 676.51549 962.85028 678.15649 968.19922 679.95898 C 975.86746 682.38484 983.56487 684.8103 991.39258 686.77539 C 1014.0785 692.99596 1037.3297 697.29175 1060.668 700.69336 C 1085.2528 703.43091 1109.9982 705.42379 1134.7715 704.97656 C 1180.3026 649.27672 1220.0342 589.59252 1256.4766 528.37695 C 1270.291 505.10772 1282.7727 481.1609 1296.8047 458.01367 C 1312.4021 431.88485 1328.1299 405.80913 1341.582 378.65039 C 1345.3799 369.90915 1350.4237 361.66943 1355.6855 353.64648 C 1355.8163 352.50809 1355.9466 351.35714 1356.0918 350.21875 C 1349.9891 351.57397 1343.6975 351.28924 1337.5078 351.08594 C 1326.5055 349.78492 1315.4756 348.66033 1304.3574 348.45703 C 1291.9491 347.10179 1279.2934 348.60503 1267.0156 346.3418 C 1274.4954 352.22347 1283.0334 357.87508 1293.0645 358.76953 C 1292.0644 361.12762 1291.021 363.48565 1290.0352 365.84375 C 1287.9624 371.2511 1286.0209 376.7125 1284.209 382.20117 C 1282.2955 386.91738 1282.0781 392.10868 1279.6719 396.67578 C 1274.6998 406.09463 1269.2482 415.28264 1263.8848 424.51172 C 1250.5053 446.56126 1237.8511 469.01862 1223.2539 490.37695 C 1220.2532 488.0324 1219.9486 484.19615 1218.6875 480.9707 C 1209.99 452.3754 1201.9162 423.6036 1193.8711 394.8457 C 1192.8273 391.44409 1193.1602 387.56773 1195.7695 384.84375 C 1200.9445 377.79654 1212.8313 378.77223 1216.832 370.66797 C 1196.2626 371.29138 1175.7065 374.00349 1155.0645 373.73242 C 1139.177 374.7624 1123.1321 374.00314 1107.3027 375.4668 C 1102.3017 375.73783 1097.3136 375.88721 1092.3125 375.94141 C 1091.3816 377.07796 1090.6171 378.31458 1090.0547 379.63477 C 1090.0018 364.89081 1089.9601 350.14823 1090.0156 335.4043 C 1090.2042 310.49523 1089.0878 285.58497 1090.0879 260.68945 C 1090.4792 259.99828 1091.2629 258.61695 1091.6543 257.92578 C 1095.916 255.89294 1100.7436 255.18754 1105.4258 256.29883 C 1105.5709 257.12552 1105.8608 258.7651 1106.0059 259.5918 C 1111.3258 275.17691 1115.7888 291.0206 1121.0508 306.63281 C 1121.4276 308.47592 1122.5732 310.87449 1120.8047 312.36523 C 1116.3255 316.76973 1111.963 321.28125 1107.8027 325.92969 C 1111.1657 328.15226 1113.6292 335.30802 1118.5723 332.36719 C 1140.0258 321.14589 1160.7549 308.73336 1180.875 295.56055 C 1184.8758 292.70102 1191.1249 289.43426 1189.2695 283.75586 C 1185.6745 269.06521 1178.2222 255.52704 1171.873 241.77148 C 1166.2343 230.60442 1160.6252 219.34122 1153.2324 209.0957 C 1150.6811 205.545 1146.9407 201.49438 1141.8672 202.18555 C 1136.4312 203.55433 1131.6472 206.49463 1126.8926 209.20508 C 1116.905 215.19518 1107.31 221.72726 1097.5254 228.00195 C 1096.1627 229.05906 1094.3939 229.04426 1092.7559 229.19336 C 1092.5529 228.25825 1092.1326 226.40202 1091.9297 225.48047 C 1090.4656 207.74056 1091.0314 189.81207 1089.6543 172.05859 C 1088.0018 168.57566 1083.2185 167.59957 1079.5801 168.48047 C 1075.1008 169.49689 1070.8245 171.50208 1067.7949 174.83594 C 1046.4716 194.6087 1025.1192 214.36716 1003.709 234.05859 C 1000.7228 236.53866 997.4615 238.74897 995.01172 241.73047 C 995.73652 242.86886 996.54703 244.00626 997.30078 245.1582 C 998.90984 245.104 1000.5475 245.05029 1002.1855 244.99609 C 1005.7369 243.88481 1009.3183 242.84088 1012.9277 241.85156 C 1012.4203 247.23181 1014.0447 253.12848 1011.9863 258.16992 C 1013.2185 260.20276 1012.4924 262.70919 1012.6953 264.94531 C 1012.4538 284.27707 1012.2174 303.61262 1011.9785 322.94727 C 1008.9244 309.24983 1002.8572 296.29295 997.17773 283.38672 C 991.91576 270.91864 986.42138 258.50524 980.07227 246.48438 C 977.24559 241.97148 974.10017 236.57812 968.21484 235.25 C 958.90859 233.90832 949.90629 237.85221 942.20898 242.35156 C 933.87392 247.32525 925.30749 252.04143 917.5957 257.8418 C 917.0739 257.4759 916.05895 256.7565 915.53711 256.39062 C 915.36287 254.80501 915.18975 253.2205 915.01562 251.64844 C 912.75434 238.19103 912.78261 224.27122 909.66602 210.96289 C 904.08517 209.09267 898.77951 206.3416 892.86523 205.43359 C 888.83543 205.0948 885.70452 208.05011 882.41406 209.74414 C 851.60959 228.99739 821.61351 249.37658 791.57031 269.625 C 787.24842 264.43993 782.4843 259.53221 777.87305 254.71484 C 756.10044 232.59755 734.10942 210.64229 711.39453 189.36523 C 708.64035 186.16684 703.95903 188.34918 700.625 189.40625 C 676.09813 198.85218 653.31046 211.87619 631.69727 226.17383 C 626.29031 229.57544 621.46391 233.81629 615.53516 236.45898 C 614.07104 243.92628 617.91071 250.92014 620.375 257.80469 C 628.98556 277.88915 641.59785 296.14402 653.75977 314.45312 C 656.07907 313.74842 658.3986 313.04273 660.73242 312.35156 C 660.18159 302.60748 659.26745 292.5105 662.5 283.07812 C 663.9061 278.99889 667.50235 276.05959 671.34375 273.95898 C 685.57858 265.65144 700.53705 258.45467 715.83008 251.99023 C 718.81621 250.60791 722.09163 249.92921 725.32422 249.21094 C 732.35459 303.3387 733.48677 357.94164 733.06641 412.4082 C 732.71831 422.77567 733.10874 433.15768 732.02148 443.49805 C 731.61564 458.48686 731.05055 473.51642 729.54297 488.4375 C 725.48421 491.86617 720.88935 494.73751 717.0625 498.41016 C 715.27951 500.25328 712.84445 501.14844 710.2207 501.14844 C 703.944 478.00114 695.9718 455.31464 689.2168 432.31641 C 685.75233 415.8233 684.99792 398.9516 681.83789 382.4043 C 680.79417 379.08394 684.20143 376.99712 686.25977 374.89648 C 694.44993 367.61889 702.39358 360.05577 711.10547 353.32031 C 713.88871 350.98931 717.4836 349.89196 720.93359 348.71289 C 721.13655 347.54739 721.33973 346.3823 721.55664 345.2168 C 710.5544 341.89647 698.66682 342.77718 687.24414 342.31641 C 655.4839 341.43552 623.50768 343.65726 592.61719 350.85352 C 590.66026 351.72088 587.96396 350.78609 588.5293 348.45508 C 587.84785 298.37947 587.4988 248.29047 588.03516 198.21484 C 588.06539 188.80958 588.62928 179.39036 589.96289 170.06641 C 593.12299 157.36793 598.84938 145.26643 605.9668 134.07227 C 608.38755 130.10144 613.47584 127.82437 614.24414 122.97266 C 612.21835 122.92522 610.19482 122.92424 608.17188 122.96094 z M 254.16992 668.79102 C 230.12128 668.52002 206.00829 669.82718 181.94531 668.62109 C 164.92681 667.63176 147.88065 667.40834 130.84766 666.75781 L 121.17188 666.75781 C 128.99953 725.11383 137.41389 783.38784 145.41602 841.7168 C 150.99642 880.0426 156.53467 918.4243 159.76758 956.98047 C 146.35853 950.38054 133.76215 941.44099 118.67188 938.51367 C 118.52693 945.16787 119.91117 951.72181 121.02734 958.26758 C 130.88446 1012.6799 140.21916 1067.2144 147.11914 1122.0469 C 148.03238 1129.7988 149.4968 1137.5222 149.65625 1145.3555 C 148.03273 1144.7863 146.29277 1144.4066 145.16211 1143.1191 C 136.66759 1134.9471 128.47747 1126.5045 119.93945 1118.3867 C 136.42115 1213.8895 154.13522 1309.2573 170.3125 1404.8145 C 173.07281 1420.0207 175.02339 1434.1424 178.35742 1448.6562 C 181.21309 1439.3871 181.45932 1429.6291 183.06836 1420.1289 C 188.91015 1361.5289 192.3453 1302.7321 197.12891 1244.0508 C 202.47784 1254.486 208.37872 1264.6495 214.01758 1274.9492 C 217.67051 1281.1562 220.61221 1287.743 224.96094 1293.584 C 226.25107 1293.8006 227.55589 1294.0178 228.875 1294.2617 C 228.97705 1268.0516 229.25279 1241.8548 229.23828 1215.6582 C 229.90508 1200.7236 228.64335 1185.7631 230.10742 1170.8691 C 230.16544 1141.8944 230.19485 1112.9396 230.61523 1083.9648 C 241.0377 1103.4666 251.24944 1123.0351 261.74414 1142.5098 C 263.33867 1140.5311 266.38231 1138.8653 265.73047 1136.0059 C 262.48296 1086.1877 258.6144 1036.3822 256.0918 986.52344 C 255.21655 979.14672 255.10404 971.71878 254.96875 964.29688 L 254.89648 964.29688 L 254.89648 961.14258 C 254.86137 959.54067 254.84483 957.93542 254.78711 956.33594 C 254.83338 956.35178 254.86152 956.38771 254.89648 956.41602 L 254.89648 938.83398 C 254.48574 938.88567 254.07654 938.95107 253.66406 938.98828 C 252.11302 885.72786 252.98875 832.43417 252.39453 779.17383 C 252.42363 767.00386 252.34471 754.85356 252.43164 742.68359 C 252.40254 739.63438 253.44573 735.55591 257.28711 735.02734 C 271.7249 730.94814 286.72096 728.8877 301.39062 725.67578 C 302.1444 725.48265 302.91909 725.38886 303.67383 725.37109 C 305.93783 725.31742 308.14628 726.00459 310.125 727.13281 C 311.50209 729.4367 312.00078 732.03871 312.26172 734.6543 C 319.85745 773.07501 322.22749 812.11916 324.54688 851.06836 C 325.2281 860.02641 324.37346 869.12719 325.70703 878.00391 C 326.17094 896.67893 326.34569 915.34632 326.07031 934.00781 C 326.05799 934.00989 326.04552 934.00771 326.0332 934.00977 L 326.0332 968.12695 C 321.20579 975.44518 315.35755 982.07854 309.61719 988.75977 C 304.13779 990.63003 301.33307 985.28948 297.98438 982.45703 C 289.04083 973.28215 280.14747 964.04049 271.71094 954.47266 C 276.53803 954.6896 281.48141 954.41865 286.20703 955.625 C 299.13727 956.60072 311.94414 958.76891 324.51172 961.79102 L 325.37891 963.80664 L 325.37891 934.04492 C 321.09494 934.65022 316.76671 934.27886 312.51562 933.73828 C 299.41148 932.51855 286.27181 934.37447 273.41406 936.51562 C 267.37333 937.14726 261.39442 938.14411 255.36523 938.77344 L 255.36523 956.76758 C 257.40102 957.77384 258.61889 959.69267 259.85938 961.45117 C 272.77528 980.99356 285.78599 1000.4826 298.38281 1020.2012 C 300.18028 1022.7626 303.99336 1022.0184 306.79102 1022.0312 C 321.25779 1020.7444 335.32592 1016.9001 349.00977 1012.4414 C 369.49257 1005.5027 389.84996 996.40253 404.99805 981.37305 C 415.81184 983.33817 426.42376 986.75362 436.52734 990.92773 C 436.75941 1024.2392 436.12793 1057.5655 436.3457 1090.877 C 437.17164 1109.6062 434.73659 1128.8094 440.47656 1147.0508 C 444.86909 1160.1152 456.40168 1169.3507 466.82422 1178.3223 C 485.3933 1193.5279 504.86767 1207.7365 524.33594 1221.9258 C 528.96247 1225.4264 534.53606 1226.5737 540.29688 1226.9277 L 540.29688 1201.3262 C 540.21923 1201.3209 540.13994 1201.3321 540.0625 1201.3262 C 533.81494 1195.3225 526.69868 1189.7199 522.30664 1182.3203 C 519.37845 1152.3562 516.68077 1122.2772 515.56445 1092.1641 C 514.23107 1082.7859 514.76051 1073.2722 514.36914 1063.8398 C 512.6151 1040.1776 513.319 1016.406 513.10156 992.68945 C 513.4007 992.56431 513.71056 992.45907 514.00977 992.33398 L 514.00977 972.45703 C 513.86294 972.58031 513.67958 972.64014 513.53516 972.76758 C 512.47734 971.20905 512.02157 969.53673 512.12305 967.7207 C 512.1495 961.77131 511.67399 955.73204 513.35547 949.93164 C 530.05459 937.69395 548.01347 927.04299 565.61133 915.98438 C 567.53927 922.42164 565.78568 929.14414 563.58203 935.29688 C 558.74042 945.20356 550.13051 952.92662 540.82422 959.21484 C 532.74949 965.02491 521.9542 965.98557 514.24414 972.30469 L 514.24414 992.24023 C 517.59419 990.84054 520.94208 989.43364 524.4082 988.25195 C 531.38071 985.18914 538.64969 982.76974 545.53516 979.47656 C 553.94272 978.77183 562.41616 978.75893 570.86719 978.66406 C 574.86786 1006.5276 578.8533 1034.4096 581.1582 1062.4492 C 582.0278 1072.3831 581.22471 1082.3921 582.42773 1092.2988 C 583.09452 1100.4708 581.51453 1108.5897 581.77539 1116.7617 C 581.60115 1132.6314 579.98358 1148.4456 577.96875 1164.1934 C 576.56254 1172.3924 575.77294 1180.8767 572.20703 1188.5879 C 564.03142 1192.9789 555.8992 1197.5261 546.98438 1200.4805 C 545.07322 1201.2851 542.99464 1201.4072 540.95312 1201.3223 L 540.95312 1226.9219 C 545.48768 1227.1459 550.12218 1227.0049 554.48633 1226.7715 C 566.61899 1225.9177 577.37524 1220.2605 588.26172 1215.6934 C 598.50983 1211.2753 608.57758 1206.4489 618.44922 1201.3262 C 631.56792 1194.55 642.80165 1184.5502 650.48438 1172.5293 C 655.35492 1165.1569 656.50785 1156.3949 658.05859 1148.0332 C 659.50799 1139.0493 660.5645 1130.0154 661.24219 1120.957 C 660.16515 1151.1084 659.73841 1181.277 659.31641 1211.4453 C 659.37435 1217.991 660.51894 1224.8067 664.54883 1230.3359 C 668.65109 1236.3532 675.01368 1240.5549 681.50781 1244.1191 C 707.03489 1258.1186 733.7955 1269.964 760.2793 1282.2559 C 762.56961 1283.0961 764.80088 1284.6383 767.41016 1284.627 C 770.74419 1282.4992 773.16486 1279.315 775.83203 1276.4961 C 762.97427 1268.5951 750.45139 1259.9623 739.62305 1249.7168 C 732.9405 1241.5177 735.11473 1230.5134 735.70898 1220.9727 C 737.08613 1183.5006 739.26031 1146.0151 740.79688 1108.5566 C 741.17371 1103.6236 740.47735 1098.5822 741.66602 1093.7305 C 742.63724 1060.7036 744.31817 1027.7027 745.04297 994.67578 C 745.88372 956.51257 743.79717 918.31001 746.33398 880.1875 C 748.00098 879.57764 749.75504 879.07519 751.625 879.19727 C 763.97087 879.09807 776.31626 878.90122 788.66211 878.66211 C 780.31779 887.68003 771.62107 896.41516 762.6582 904.88477 C 760.84626 906.60592 759.10731 908.39519 757.80273 910.46875 C 756.06321 913.93813 758.26637 919.14217 762.78906 919.30469 C 773.12456 920.14522 783.54678 920.15775 793.92578 919.66992 C 795.25939 979.89616 796.89758 1040.1098 796.70898 1100.3496 C 796.23065 1114.3491 795.86798 1128.3483 795.75195 1142.3613 C 795.80997 1178.573 795.23166 1214.784 797.47852 1250.9414 C 797.68144 1254.7903 801.44979 1257.1228 804.18945 1259.5352 C 824.59951 1273.6837 848.51627 1282.4776 871.94141 1291.2324 C 897.41047 1300.5835 923.37308 1308.7699 949.52344 1316.332 C 952.727 1317.2265 956.65598 1317.5372 959.41016 1315.3418 C 967.36833 1310.6392 971.61608 1302.5084 978.0957 1296.3828 C 988.88055 1286.0559 999.02768 1275.1327 1010.4355 1265.3887 C 1013.2912 1262.7324 1017.9881 1260.7005 1017.4082 1256.2012 C 1028.4249 1257.1498 1039.5433 1258.3494 1050.6035 1256.7773 C 1055.967 1257.0892 1060.01 1253.2739 1062.9961 1249.5605 C 1073.0562 1235.7372 1084.4505 1222.8146 1095.3223 1209.5469 C 1101.1206 1201.9441 1108.2959 1195.1478 1112.6445 1186.6777 C 1103.1064 1173.8166 1095.887 1159.1793 1084.2324 1147.8496 C 1082.9134 1147.9581 1080.2605 1148.196 1078.9414 1148.291 C 1077.9557 1156.7612 1075.8261 1165.0206 1073.8691 1173.3281 C 1068.2303 1194.9305 1062.091 1216.6288 1051.7266 1236.7539 C 1050.5525 1238.7732 1049.2985 1242.8376 1046.1094 1240.8184 C 1030.0771 1232.3888 1018.2633 1217.0556 1014.1465 1200.332 C 1011.6532 1186.4139 1012.472 1172.2102 1011.2109 1158.1836 C 1010.8051 1140.5928 1010.4637 1123.0029 1010.4492 1105.3984 C 1010.3184 1103.1217 1010.6672 1100.681 1009.4355 1098.6211 C 1010.856 1096.534 1010.2758 1094.1015 1009.7246 1091.8789 C 1010.3576 1082.8211 1007.5756 1073.0022 1011.8555 1064.4121 L 1011.8555 1041.0273 C 1011.339 1040.9848 1010.8233 1040.929 1010.3066 1040.8887 C 1010.3505 1027.0654 1011.9296 1013.3177 1012.4805 999.52148 C 1014.2779 983.32659 1012.9445 966.22982 1020.3809 951.10547 C 1021.8319 948.33879 1025.8988 946.42116 1029.4023 946.49805 L 1029.4043 946.49805 C 1032.129 946.55872 1034.5051 947.84411 1035.0566 950.86719 C 1040.6955 964.41948 1046.4198 977.91224 1052.1602 991.42383 C 1059.5819 1008.5132 1066.3241 1025.8874 1074.1953 1042.7871 C 1074.1515 1043.939 1074.1435 1045.0903 1074.1602 1046.2422 C 1065.3178 1046.6623 1056.5037 1045.1034 1047.7773 1044.209 C 1035.9275 1043.5679 1024.1425 1042.0574 1012.3242 1041.0684 L 1012.3242 1063.5391 C 1012.416 1063.3756 1012.4906 1063.2093 1012.5879 1063.0469 C 1027.9389 1062.8844 1042.7314 1067.1669 1057.5605 1070.3652 C 1066.4464 1072.3846 1075.2887 1074.5599 1084.1602 1076.7012 C 1086.0301 1077.2297 1087.8926 1077.623 1089.8496 1078.0566 C 1096.2857 1079.6558 1102.7731 1081.092 1109.2383 1082.6641 C 1111.5721 1083.1519 1114.6665 1083.8094 1116.377 1081.6816 C 1129.2637 1070.4604 1137.2082 1055.3617 1145.2969 1041.0234 C 1142.5136 1032.0247 1138.2574 1023.3532 1134.9668 1014.4629 C 1130.0527 1002.3336 1125.0808 990.22455 1120.3262 978.04102 C 1117.2676 971.12939 1115.1093 963.85805 1111.7754 957.06836 C 1101.9327 951.26799 1091.349 946.51123 1081.1875 941.14453 C 1077.3751 939.28791 1073.5487 937.45867 1069.7363 935.65625 C 1059.6617 931.00781 1049.7393 925.783 1038.8965 922.88281 C 1037.7468 922.81932 1036.5904 922.76984 1035.4297 922.74414 C 1034.2689 922.71844 1033.1047 922.71548 1031.9395 922.74609 C 1028.0553 922.8489 1024.1756 923.27992 1020.4883 924.20312 C 992.78684 944.40958 965.97614 965.75438 938.11523 985.73047 C 935.14358 998.72709 934.85322 1012.1922 932.96875 1025.3379 C 932.80963 1034.0655 929.18647 1042.3934 929.27344 1051.1211 C 930.91148 1086.777 930.52695 1122.4456 931.04883 1158.1152 C 930.90369 1166.8429 927.89558 1175.233 927.5332 1183.9336 C 932.95467 1189.2054 937.95602 1194.8557 943.33398 1200.1953 C 962.43704 1218.5645 981.60188 1237.2105 1004.1875 1251.8848 C 981.73062 1250.5713 959.26502 1249.239 936.79688 1248.1504 C 926.186 1247.7981 915.29888 1246.3082 904.91992 1248.9238 C 907.90605 1254.4532 915.34263 1254.0458 920.89453 1255.4688 C 936.89788 1258.8156 953.26318 1260.7684 968.97656 1265.2949 C 969.52713 1267.2193 971.06358 1269.8873 968.67188 1271.2832 C 959.14815 1278.8318 949.93005 1286.8549 939.58008 1293.4277 C 934.89789 1294.7152 930.85367 1290.5958 926.69336 1289.0645 C 911.32784 1281.6514 896.19334 1273.8177 880.79883 1266.4453 C 879.0593 1251.321 879.61043 1236.0615 878.5957 1220.8965 C 878.0739 1192.8975 877.2476 1164.966 876.74023 1136.9941 C 876.18941 1121.6259 876.97162 1106.2184 875.58008 1090.9043 C 875.46412 1057.4709 874.79784 1024.0233 874.88477 990.58984 C 874.81231 987.48636 875.23214 984.31512 874.27539 981.29297 C 873.95602 961.16789 874.29085 941.02931 874.08789 920.89062 C 892.35257 919.37283 910.70273 918.58573 929.02539 917.89453 C 930.89539 909.08559 930.22946 899.97974 930.69336 891.04883 C 923.09761 891.30395 915.48638 891.37228 907.89062 891.29102 C 903.02008 891.20964 898.19314 892.52557 893.35156 891.6582 C 886.48057 892.22717 879.5663 891.91516 872.69531 892.06445 C 871.82557 869.81165 870.33255 847.59858 869.36133 825.35938 C 869.02794 820.87357 869.62234 816.32053 868.53516 811.91602 C 867.85386 800.45082 868.12982 788.93242 866.63672 777.50781 C 865.69448 777.01995 863.79575 776.04262 862.85352 775.55469 C 858.64974 777.37071 856.51818 781.28801 854.54688 784.93359 C 843.74752 805.04518 832.05041 824.80464 818.10547 843.16797 C 809.97277 854.29832 801.15634 864.95863 791.84375 875.22852 C 791.59076 872.08586 791.28985 868.94637 790.9375 865.82227 C 789.67635 861.91919 790.34376 857.75841 789.14062 853.8418 C 788.80729 851.45657 788.55904 849.057 788.26953 846.67188 C 774.22314 846.72609 760.19207 846.13001 746.16016 846.2793 C 744.44966 835.34259 745.56518 824.14858 744.89844 813.10352 C 744.66653 794.32006 743.84114 775.54908 743.68164 756.76562 C 743.82662 753.60797 742.75244 749.16319 738.3457 749.94922 C 733.5911 753.3373 730.15663 757.93132 726.57617 762.32227 C 709.8481 783.4502 690.7998 802.98001 669.75195 820.4082 C 648.22569 837.9313 625.27926 854.17908 600.33203 867.17578 C 600.05696 870.56383 600.2021 873.95371 600.46289 877.3418 C 621.0324 877.3418 641.60156 877.69259 662.18555 877.61133 C 663.35969 882.7341 664.11372 887.92518 664.41797 893.16992 C 668.33175 929.05635 668.69439 965.32252 667.95508 1001.4121 C 667.26295 1034.0454 663.62636 1066.5022 662.13867 1099.1016 C 662.15428 1097.3087 662.16717 1095.5158 662.1543 1093.7227 C 662.83559 1060.9262 656.79099 1028.4607 653.45703 995.9082 L 652.76758 994.89258 C 652.53552 988.46882 651.25305 982.13923 650.33984 975.7832 C 648.96274 967.27235 647.99255 958.51835 644.03516 950.64453 C 640.44018 943.13654 634.77152 936.64412 628.37891 931.06055 C 611.37538 916.3699 592.84275 902.98009 572.24414 892.97852 C 563.53256 888.31654 553.44957 892.42292 544.95508 895.41797 C 515.29671 907.1678 487.89258 923.27601 460.84375 939.49805 C 454.47978 943.0759 449.13225 948.61111 447.29102 955.45508 C 445.72591 961.22827 442.56513 966.44667 438.88281 971.24414 C 428.89534 970.30901 419.85626 965.93673 410.28906 963.41602 C 413.99999 917.77195 419.11784 872.24347 422.61133 826.57227 C 423.11862 817.89889 425.46019 808.63613 421.41602 800.38281 C 417.1103 790.73357 409.50699 782.90835 402.75195 774.73633 C 377.74676 746.04616 352.89333 717.22581 326.97461 689.25391 C 321.45199 688.49498 316.02434 689.77026 310.92188 691.62695 C 294.10679 697.31892 277.37884 703.32781 260.4043 708.59961 C 258.01249 709.37214 255.476 709.62985 253.01172 709.95508 C 250.50395 696.28086 253.90899 682.5059 254.16992 668.79102 z M 1145.2969 1041.0234 C 1145.5868 1083.5234 1146.6736 1126.0099 1146.1953 1168.5098 C 1145.8619 1183.3089 1145.8755 1198.8955 1138.7871 1212.502 C 1129.6693 1225.1462 1117.6087 1238.9951 1100.1992 1240.4316 C 1101.098 1243.5622 1102.533 1246.544 1103.9102 1249.5391 C 1124.7406 1247.2081 1145.5711 1251.2886 1165.4883 1256.7637 C 1181.2886 1261.2901 1197.2345 1265.4083 1213.3828 1268.7422 C 1229.5166 1272.4013 1246.0851 1274.1642 1262.6973 1274.123 C 1267.8577 1275.1122 1273.1922 1274.5573 1278.4688 1274.8691 C 1290.7026 1274.679 1302.9659 1275.4649 1315.2148 1274.8145 C 1315.3316 1271.833 1315.4763 1268.8506 1315.5488 1265.8691 C 1309.8665 1265.3405 1304.2856 1264.2576 1298.6758 1263.5664 C 1296.284 1262.943 1293.9209 1262.5632 1291.6016 1261.9805 C 1278.135 1259.0803 1264.6987 1255.1358 1252.7832 1248.4688 C 1243.3464 1243.1969 1234.7057 1235.0388 1233.2852 1224.3867 C 1231.7196 1193.596 1229.9815 1162.804 1229.2422 1131.9727 C 1227.8359 1119.8976 1229.0391 1107.6203 1227.5605 1095.5723 C 1226.7053 1081.5593 1227.6041 1067.4103 1226.082 1053.4785 C 1225.4007 1012.7404 1223.1964 972.05663 1222.5586 931.33203 C 1228.096 928.12015 1233.4596 924.63735 1238.8086 921.16797 C 1241.4033 928.67589 1243.8527 936.22481 1246.375 943.77344 C 1251.4485 958.58605 1256.1893 973.49393 1261.2773 988.29297 C 1261.7845 990.02766 1262.4505 991.84236 1262.0156 993.67188 C 1256.1449 1001.5322 1249.5348 1008.9323 1243.9395 1016.9688 C 1246.4907 1019.2043 1249.1885 1021.3996 1251.1309 1024.1914 C 1271.9323 1009.2026 1292.6321 994.07858 1313.0566 978.64258 C 1320.1741 972.58468 1328.8996 967.55759 1333.2773 959.25 C 1334.437 953.54454 1334.0466 947.44664 1331.6113 942.06641 C 1324.7258 925.58683 1315.1436 910.27101 1305.7793 894.94336 C 1299.7201 885.68718 1293.9933 876.20142 1287.2383 867.37891 C 1285.6437 864.8309 1281.8464 864.69555 1279.1211 865.16992 C 1275.0333 865.63065 1272.3949 868.81546 1269.0898 870.69922 C 1254.1737 879.45397 1238.967 887.74868 1223.877 896.21875 C 1221.7316 884.27926 1221.8633 872.06882 1219.457 860.16992 C 1218.9787 857.22229 1216.4126 854.42677 1213.4473 854.41406 C 1212.4588 854.40983 1211.4268 854.71429 1210.4121 855.42578 C 1183.9138 876.78416 1157.98 898.7669 1131.3223 919.93555 C 1126.9735 923.47269 1124.2912 928.29691 1121.1602 932.72852 C 1121.2471 934.3683 1121.3627 936.02229 1121.5078 937.66211 C 1128.6977 937.93318 1135.8601 936.63034 1143.0645 937.00977 C 1142.6296 960.45523 1144.4695 983.82038 1144.3535 1007.2656 C 1144.861 1018.5004 1144.0212 1029.8699 1145.2969 1041.0234 z "
       transform="scale(0.26458333)" />
  </g>
</svg>
