<?xml version="1.0" encoding="UTF-8" standalone="no"?>
<!-- Created with Inkscape (http://www.inkscape.org/) -->

<svg
   version="1.1"
   id="svg5720"
   width="400mm"
   height="400mm"
   viewBox="0 0 400 400"
   sodipodi:docname="Konzuma.svg"
   inkscape:version="1.2.2 (1:1.2.2+202212051552+b0a8486541)"
   xmlns:inkscape="http://www.inkscape.org/namespaces/inkscape"
   xmlns:sodipodi="http://sodipodi.sourceforge.net/DTD/sodipodi-0.dtd"
   xmlns="http://www.w3.org/2000/svg"
   xmlns:svg="http://www.w3.org/2000/svg">
  <defs
     id="defs5724">
    <marker
       id="CheckToolsAndOPMarker"
       orient="auto"
       refX="-4"
       refY="-1.687441"
       style="overflow:visible">
      <path
         d="m 4.588864,-1.687441 0.0,0.0 L 9.177728,0.0 c -0.73311,-0.996261 -0.728882,-2.359329 0.0,-3.374882"
         style="fill:#000044;fill-rule:evenodd;stroke:none"
         id="path5950" />
    </marker>
    <marker
       id="DrawCurveMarker"
       orient="auto"
       refX="-4"
       refY="-1.687441"
       style="overflow:visible">
      <path
         d="m 4.588864,-1.687441 v 0 L 9.177728,0 c -0.73311,-0.996261 -0.728882,-2.359329 0,-3.374882"
         style="fill:#000044;fill-rule:evenodd;stroke:none"
         id="path5953" />
    </marker>
    <marker
       id="DrawCurveMarker_r"
       orient="auto"
       refX="4"
       refY="-1.687441"
       style="overflow:visible">
      <path
         d="m -4.588864,-1.687441 v 0 L -9.177728,0 c 0.73311,-0.996261 0.728882,-2.359329 0,-3.374882"
         style="fill:#000044;fill-rule:evenodd;stroke:none"
         id="path5956" />
    </marker>
    <marker
       id="InOutPathMarker"
       orient="auto"
       refX="-4"
       refY="-1.687441"
       style="overflow:visible">
      <path
         d="m 4.588864,-1.687441 0.0,0.0 L 9.177728,0.0 c -0.73311,-0.996261 -0.728882,-2.359329 0.0,-3.374882"
         style="fill:#0072a7;fill-rule:evenodd;stroke:none"
         id="path5959" />
    </marker>
  </defs>
  <sodipodi:namedview
     id="namedview5722"
     pagecolor="#ffffff"
     bordercolor="#000000"
     borderopacity="0.25"
     inkscape:showpageshadow="2"
     inkscape:pageopacity="0.0"
     inkscape:pagecheckerboard="0"
     inkscape:deskcolor="#d1d1d1"
     showgrid="false"
     inkscape:zoom="4.6603364"
     inkscape:cx="723.55292"
     inkscape:cy="1295.7219"
     inkscape:window-width="1920"
     inkscape:window-height="1016"
     inkscape:window-x="0"
     inkscape:window-y="0"
     inkscape:window-maximized="1"
     inkscape:current-layer="g5728"
     inkscape:document-units="mm">
    <inkscape:page
       x="0"
       y="0"
       id="page5726"
       width="400"
       height="400" />
  </sodipodi:namedview>
  <g
     id="g5728"
     inkscape:groupmode="layer"
     inkscape:label="Page 1"
     transform="matrix(1.33333 0 0 -1.33333 0 1122.52)">
    <g
       id="g5766">
      <g
         id="path5768">
        <path
           id="path1936"
           style="color:#000000;fill:#231f20;fill-rule:evenodd;stroke-width:1.68095;-inkscape-stroke:none"
           d="M 6.5274869,571.87845 H 70.722604 l -0.490281,-1.54487 1.132879,-0.0159 c 0.90751,-0.0126 1.54834,-0.13265 1.839815,-0.25967 h 0.0019 c 0.229155,-0.0992 0.693468,-0.50674 1.14877,-0.92165 L 68.75989,551.52692 c -0.304486,-0.97362 -0.695221,-1.66405 -1.109625,-2.09988 -0.461315,-0.48388 -0.905309,-0.77165 -1.327829,-0.92358 l -0.0062,-0.002 -0.0058,-0.004 c -0.111865,-0.0422 -0.604173,-0.1248 -1.332092,-0.1248 h -0.644536 l -0.632521,-2.36342 h 10.628835 l 0.623219,2.36342 h -1.089858 c -0.935223,0 -1.500152,0.20261 -1.740209,0.40424 l -0.0019,0.002 c -0.299266,0.24932 -0.412379,0.48495 -0.412379,0.94723 0,0.34865 0.06883,0.77846 0.224793,1.29489 v 0.002 l 0.0019,0.008 4.662131,14.65224 10.232346,-19.94922 h 1.890587 l 6.836034,21.2755 0.0019,0.006 c 0.471734,1.42949 1.039832,2.28702 1.494099,2.60334 l 0.0019,0.002 c 0.571866,0.40096 1.309041,0.64649 2.289401,0.69919 l 0.5895,0.0314 0.448034,1.49061 H 89.976128 l -0.480204,-1.46115 1.091796,-0.0605 c 0.93711,-0.0533 1.490056,-0.27579 1.679747,-0.44145 0.244337,-0.21341 0.34184,-0.41649 0.34184,-0.83794 0,-0.4087 -0.08139,-0.9188 -0.259674,-1.52161 l -3.216866,-10.13468 -7.415845,14.49411 h 8.271221 l -0.0027,-0.008 h 10.405197 l 0.002,0.008 h 8.54872 v -7.40073 c -0.98404,-0.17964 -1.96786,-0.387 -2.90641,-0.82786 -1.56373,-0.7317 -2.9644,-1.68885 -4.17185,-2.85952 -1.21725,-1.18018 -2.221196,-2.56323 -3.0037,-4.13464 v -0.002 c -0.798474,-1.61199 -1.199155,-3.35209 -1.199155,-5.17993 0,-1.62792 0.593616,-3.10099 1.736333,-4.242 1.180632,-1.17825 2.849252,-1.73633 4.822192,-1.73633 0.0262,0 0.0517,0.004 0.0779,0.004 l -0.0101,-0.0585 0.40966,0.0422 0.94995,2.69635 c -0.0679,-0.0109 -0.13783,-0.0186 -0.21278,-0.0213 l -0.0725,-0.002 c -0.30767,7.8e-4 -0.48697,0.0715 -0.73251,0.31083 -0.22005,0.21715 -0.31045,0.42006 -0.31045,0.79686 0,2.14257 0.5526,4.60376 1.703,7.3767 v 0.002 c 1.15953,2.79004 2.25449,4.52907 2.93782,5.09583 0.30275,0.2476 0.67469,0.38098 1.23016,0.38098 0.21543,0 0.35248,-0.0527 0.55306,-0.26394 h 0.002 v -0.002 c 0.1653,-0.17279 0.27518,-0.41185 0.27518,-0.90615 0,-1.44173 -0.26189,-3.07192 -0.79104,-4.87491 -0.53649,-1.80676 -1.21745,-3.44904 -2.04096,-4.92994 -0.8309,-1.49634 -1.5569,-2.42492 -1.92974,-2.7107 -0.17328,-0.12256 -0.35131,-0.20046 -0.55539,-0.24107 l -0.95188,-2.70178 0.64027,0.0655 c 0.008,10e-4 0.0152,0.005 0.0232,0.006 l 0.58214,0.0566 0.0136,0.074 c 1.56258,0.2474 3.11008,0.76255 4.62298,1.63866 h 0.002 c 2.09545,1.21566 3.80102,2.89792 5.0842,4.99816 1.27944,2.09808 1.93748,4.24901 1.93748,6.40815 0,0.40297 -0.0398,0.79008 -0.1093,1.16001 l -0.002,0.006 v 0.006 c -0.23616,1.17046 -0.43983,1.67902 -1.26388,2.67194 l -0.008,0.008 -0.006,0.008 c -0.51163,0.58584 -1.1548,1.06642 -1.90802,1.42589 v -0.002 c -0.71376,0.3413 -1.49791,0.44097 -2.27739,0.5488 v 7.31043 h 12.02527 v -7.91969 l -3.92962,-0.96119 0.73445,-1.89252 c 0.005,-0.0527 -0.0266,-0.0828 -0.012,-0.13837 0.0726,-0.2757 0.28429,-0.49347 0.45152,-0.59376 0.33447,-0.2006 0.53779,-0.17571 0.72632,-0.18371 0.24602,-0.01 0.344,-0.003 0.48059,0.002 0.0718,-0.13591 0.14196,-0.28299 0.20696,-0.4647 0.23401,-0.7147 0.52375,-2.48769 0.75965,-5.10552 0.22551,-2.63329 0.34572,-4.65444 0.34572,-6.00003 0,-0.49686 -0.0217,-1.25181 -0.0605,-2.25414 l -0.0329,-0.87281 h 1.88671 l 0.22634,0.17557 c 3.34069,2.60041 5.92555,4.74022 7.75381,6.44342 h 0.002 c 1.0174,0.94845 1.94065,1.99754 2.76922,3.1564 0.81851,1.14568 1.41888,2.1537 1.78323,3.0723 v 0.002 c 0.36894,0.91084 0.5488,1.85936 0.5488,2.80643 0,0.24449 -0.0195,0.484 -0.0605,0.71701 l -0.0116,0.0643 -0.0217,0.0624 c -0.0211,0.0614 -0.015,0.10425 -0.0624,0.33215 -0.0474,0.2279 -0.16155,0.53084 -0.37091,0.86312 l -0.0256,0.0411 -0.41393,0.51392 -0.004,0.006 c -0.0158,0.0189 -0.0462,0.0565 -0.0934,0.10736 l -0.002,0.002 c -0.57507,0.62179 -1.42158,0.91816 -2.32196,0.91816 -0.86951,0 -1.69059,-0.30452 -2.30103,-0.87708 -0.61727,-0.57366 -0.94723,-1.38304 -0.94723,-2.21266 0,-0.39603 0.0744,-0.7952 0.24223,-1.16427 l 0.004,-0.008 0.004,-0.008 c 0.19175,-0.40138 0.48924,-0.79261 0.95886,-1.3945 l 0.004,-0.006 0.006,-0.006 c 0.37816,-0.46882 0.50772,-0.8594 0.50772,-1.18947 0,-0.42268 -0.27248,-1.19743 -0.96855,-2.1894 l -0.002,-0.004 -0.004,-0.004 c -0.44255,-0.6453 -1.61385,-1.72348 -2.65604,-2.72465 -0.12622,4.38625 -0.6727,8.22932 -1.87896,11.25787 l -0.27169,0.67981 -0.88677,-0.21705 v 7.16819 h 18.77952 c -0.52092,-0.62117 -0.86158,-1.36506 -0.86158,-2.17778 0,-0.9593 0.41057,-1.86664 1.13288,-2.53125 0.0915,-0.0842 0.19323,-0.1367 0.28913,-0.2089 v -2.53319 l -2.78317,-0.41237 -2.10918,-0.28875 0.34339,-2.52156 1.13676,-0.21316 c -0.0209,-0.28815 -0.0953,-0.76485 -0.32014,-1.48596 l -2.78898,-8.79716 c -0.24591,-0.75264 -0.3868,-1.39996 -0.3868,-1.99601 0,-0.89529 0.38593,-1.74765 1.06234,-2.33784 0.6919,-0.60731 1.61835,-0.88484 2.63279,-0.88484 2.67191,0 5.06299,1.89437 7.16043,5.24621 l 0.47246,0.75577 -2.11926,1.15807 -0.43331,-0.60927 c -0.7092,-0.99838 -1.2567,-1.56241 -1.71307,-1.965 0.0477,0.20758 0.0353,0.20845 0.12518,0.50424 l 0.002,0.008 4.15828,13.21512 v 0.97243 h -1.42201 v 1.50185 c 0.73821,0.12245 1.44048,0.38125 1.99601,0.89258 l 0.002,0.002 c 0.71403,0.66392 1.12551,1.568 1.12551,2.52931 0,0.81078 -0.34058,1.55675 -0.86739,2.17933 h 21.6716 c -0.52531,-0.28512 -1.11756,-0.47106 -1.572,-0.85538 -1.74428,-1.47246 -2.69364,-3.35518 -2.69364,-5.45317 0,-1.1967 0.28607,-2.34772 0.84569,-3.40794 v -0.002 -0.002 c 0.75657,-1.41853 2.05307,-2.9172 3.88155,-4.57415 1.76398,-1.60336 2.88153,-2.84357 3.27694,-3.51181 v -0.002 c 0.43664,-0.73348 0.63911,-1.45335 0.63911,-2.22661 0,-0.84699 -0.30923,-1.5253 -1.06118,-2.20298 -0.73394,-0.6629 -1.61104,-0.99025 -2.76379,-0.99025 -1.19456,0 -2.21593,0.28793 -3.1285,0.85732 -0.90927,0.57835 -1.59584,1.35027 -2.10181,2.39288 -2.3e-4,10e-4 2.4e-4,9.4e-4 0,0.002 -0.50498,1.06058 -0.85381,2.39211 -1.02126,3.99395 l -0.0798,0.75383 h -2.17003 l -2.85952,-11.21485 2.12933,-3.8e-4 0.21666,0.15037 c 0.49839,0.34727 0.89815,0.5634 1.14063,0.6488 0.26188,0.0924 0.57284,0.14612 0.94955,0.14612 0.41457,0 1.59856,-0.15265 3.33198,-0.46083 l -0.002,0.002 c 1.78014,-0.32187 3.27329,-0.48602 4.50168,-0.48602 1.96941,0 3.7625,0.32682 5.35744,0.998 h 0.002 c 1.60245,0.67046 2.8775,1.64891 3.75211,2.92193 h 0.002 c 0.86337,1.26001 1.31465,2.68012 1.31465,4.18541 0,1.31865 -0.3146,2.57677 -0.94142,3.71877 -0.63838,1.17305 -1.78392,2.43412 -3.44747,3.87691 l -0.004,0.004 c -1.99603,1.75188 -3.25327,3.0815 -3.67962,3.77729 -0.47307,0.77338 -0.69491,1.50051 -0.69531,2.23824 0,0.68646 0.25368,1.24957 0.91777,1.86928 0.64696,0.60111 1.31289,0.86545 2.16422,0.86545 0.92848,0 1.74748,-0.25069 2.55256,-0.79298 0.79725,-0.53805 1.44671,-1.29871 1.9495,-2.3363 0.31889,-0.66755 0.57344,-1.65158 0.70887,-2.91959 l 0.0798,-0.7519 h 2.06849 l 2.3456,8.78902 h 16.44942 v -7.53134 l -2.23243,-0.12131 -0.0116,0.055 -0.0198,-0.0566 -0.0663,-0.004 -0.22246,-0.69919 c -0.11303,0.14438 -0.19092,0.32289 -0.33022,0.44339 -0.62764,0.54548 -1.45962,0.8046 -2.35761,0.8046 -1.58816,0 -3.19939,-0.65155 -4.83964,-1.85338 -1.97961,-1.44476 -3.58695,-3.36118 -4.79507,-5.70509 -1.19278,-2.31905 -1.81811,-4.42846 -1.81811,-6.34188 0,-1.30399 0.31662,-2.51469 0.94142,-3.57227 0.6916,-1.16559 1.95491,-1.80842 3.40019,-1.80842 1.11599,0 2.18246,0.36983 3.13664,1.04684 h 0.002 c 0.67953,0.48086 1.35126,1.14355 2.02392,1.88671 l 1.55882,6.71589 c -0.11727,-0.23734 -0.23546,-0.47511 -0.36781,-0.71934 -0.68577,-1.25404 -1.43858,-2.30603 -2.25801,-3.15059 h -0.002 v -0.002 c -0.52074,-0.53806 -0.92115,-0.70112 -1.22086,-0.70112 l 7.7e-4,3.9e-4 c 0.006,0 -0.0327,0.0185 -0.12131,0.11317 -0.0443,0.0581 -0.16394,0.33767 -0.16394,0.8887 0,1.52751 0.47857,3.43567 1.47859,5.69347 0.001,10e-4 9.4e-4,8.8e-4 0.002,0.002 v 0.002 c 1.02114,2.27114 1.98542,3.73561 2.68163,4.32998 0.33605,0.27532 0.58984,0.35735 0.74026,0.35735 0.21244,0 0.22593,-0.0159 0.31433,-0.13255 l 0.002,-0.002 0.002,-0.002 c 0.14816,-0.1929 0.32983,-0.74413 0.32983,-1.64254 0,-0.62581 -0.0867,-1.29973 -0.26743,-2.0274 -0.0333,-0.20367 -0.0968,-0.39819 -0.14842,-0.54296 l -0.006,-0.0194 c -0.13715,-0.42147 -0.2409,-0.78475 -0.42324,-1.18594 l -10e-4,-0.003 -0.001,-0.002 v -3.9e-4 l -0.0101,-0.0291 -0.004,-0.008 -0.006,-0.0155 -0.043,-0.0996 c -0.1259,-0.30213 -0.266,-0.61119 -0.4178,-0.92591 l -1.64448,-7.08563 c 0.005,-0.75147 0.32656,-1.47426 0.87321,-1.97314 h 0.002 l 0.002,-0.002 c 0.59795,-0.54023 1.41319,-0.76352 2.30878,-0.76352 1.40959,0 2.76176,0.42245 3.96101,1.24217 l 0.004,0.002 c 0.70765,0.47929 1.36405,1.11209 1.98438,1.87315 l 0.0233,0.0291 0.0217,0.0314 c 1.0851,1.60615 0.94858,2.5837 0.66004,3.01145 l -0.0643,0.0957 -0.088,0.0744 c 0.018,-0.0153 -0.10843,0.10366 -0.27751,0.16976 -0.16908,0.0664 -0.27949,0.0656 -0.36509,0.0686 h -0.004 -0.006 c -0.21627,0.005 -0.63474,-0.13347 -0.82437,-0.35385 -0.19979,-0.21259 -0.34141,-0.38739 -0.45889,-0.56044 -0.12083,-0.178 -0.25301,-0.38191 -0.53717,-0.77514 -0.099,-0.10666 -0.19338,-0.20323 -0.17558,-0.18953 -0.12359,-0.0944 -0.0892,-0.0608 -0.18371,-0.11549 l 0.29495,1.08598 4.26564,13.40231 -1.3007,-0.0702 v 7.36895 h 16.55446 l -0.63872,-2.33397 1.27357,0.18759 c 0.24822,0.0367 0.45035,0.0527 0.57826,0.0527 0.24272,0 0.34323,-0.0535 0.41393,-0.11318 0.0812,-0.0717 0.0744,-0.0663 0.0744,-0.12131 0,-0.28694 -0.15233,-1.07506 -0.50617,-2.1677 l -1.11699,-3.45135 c -0.19599,0.14065 -0.39281,0.36823 -0.5957,0.46703 l -0.008,0.004 -0.008,0.004 c -0.52938,0.24389 -1.12279,0.36548 -1.74835,0.36548 -1.1601,0 -2.32524,-0.29524 -3.46685,-0.84568 h -0.002 l -0.002,-0.002 c -1.17183,-0.57186 -2.34694,-1.48375 -3.55444,-2.72852 -1.23371,-1.26081 -2.29889,-2.82513 -3.21299,-4.66795 -0.85445,-1.72127 -1.32471,-3.48807 -1.40031,-5.28108 -3e-5,-10e-4 3e-5,-9.4e-4 0,-0.002 -3e-5,-0.001 3e-5,-9.4e-4 0,-0.002 -0.0361,-0.77139 -0.027,-1.59698 0.21084,-2.38668 0.19759,-0.75434 0.53465,-1.43054 1.03521,-1.97082 0.82447,-0.89581 1.9417,-1.39643 3.16183,-1.39643 1.09797,0 2.17217,0.42195 3.21299,1.14839 l 0.008,0.004 0.006,0.006 c 0.63063,0.4581 1.27514,1.13175 1.93942,1.92741 -0.002,-0.0499 -0.0368,-0.13065 -0.0368,-0.17945 0,-0.004 3.8e-4,-0.007 3.9e-4,-0.0109 l 2.21537,8.41501 c -0.1651,-0.38902 -0.35218,-0.79582 -0.55966,-1.22241 v -0.002 c -1.07613,-2.22048 -2.15843,-3.72891 -3.14439,-4.54082 l -0.002,-0.002 -0.002,-0.002 c -0.35929,-0.30058 -0.63997,-0.39261 -0.86545,-0.39261 0.003,0 0.011,-0.0392 -0.10542,0.10736 l -0.004,0.006 -0.006,0.006 c -0.0507,0.0614 -0.15204,0.28532 -0.15232,0.7736 0,1.43818 0.47964,3.34335 1.48247,5.66013 1.02177,2.32128 2.01164,3.82085 2.75411,4.43153 l 0.004,0.002 0.002,0.004 c 0.39525,0.33165 0.66238,0.41044 0.84956,0.41044 0.20599,0 0.3176,-0.04 0.50191,-0.2403 l 0.002,-0.004 0.004,-0.002 c 0.11511,-0.1226 0.2558,-0.43524 0.2558,-1.06428 0,-0.83909 -0.24632,-1.97163 -0.78329,-3.35174 l -0.0136,-0.0329 -0.16007,-0.54106 -0.006,0.002 -2.2584,-8.58089 c 0.0442,-0.73916 0.36694,-1.44307 0.91855,-1.93555 0.62642,-0.55899 1.47874,-0.79879 2.42196,-0.79879 2.63537,0 4.96506,1.78052 6.9337,4.93576 l 0.49609,0.79685 -2.19522,1.05266 -0.41238,-0.56237 c -0.58274,-0.79744 -1.03791,-1.23307 -1.39643,-1.52356 0.0968,0.35345 0.21963,0.77647 0.40231,1.34178 v 0.002 l 6.44342,20.34571 h 56.29515 v 15.34561 h -18.27606 c -0.0428,0 -0.0806,0.002 -0.11007,0.006 h -6.41087 v 0.0861 c 3.18666,1.71022 6.30266,4.59904 8.9863,7.30267 -0.34708,-1.13751 -0.66056,-2.29513 -0.70926,-3.38469 -0.0605,-1.35349 0.12044,-2.62239 0.7267,-3.64087 0.0104,-0.0175 0.0323,-0.0257 0.043,-0.043 h -0.22053 v -0.27712 h 7.28911 c 0.41137,0.30297 0.86763,0.57453 1.16427,0.95072 1.04563,1.32542 1.55167,2.88993 2.07391,4.09976 l 0.96894,2.24212 -2.14251,-1.17164 c -0.77848,-0.42568 -1.19971,-0.45507 -1.27551,-0.4554 -0.005,0.025 -0.006,0.006 -0.008,0.0508 -0.0256,0.51942 0.47552,2.01874 1.15497,3.20136 v 0.002 h 0.002 c 0.75648,1.33051 2.66636,5.12056 4.66601,9.05489 1.99964,3.93421 4.08141,8.00076 5.03691,9.65215 0.55974,0.96855 0.76705,1.87679 0.66043,2.67775 -0.10663,0.80097 -0.53017,1.44496 -1.03521,1.87509 -0.50504,0.43014 -1.08344,0.67457 -1.63285,0.77514 -0.49176,0.09 -0.99973,0.15223 -1.48596,-0.2151 l -7.45538,-9.73548 c 0.0128,-0.0282 0.0184,-0.0182 -0.002,-0.0841 -0.022,-0.0701 -0.10218,-0.22864 -0.31083,-0.44338 l -0.0624,-0.0647 -0.002,0.002 c -0.0371,-0.0359 -0.0527,-0.0518 -0.0531,-0.0527 -1.4272,-1.32924 -4.33856,-5.02205 -7.48018,-8.50028 -1.57146,-1.73999 -3.17966,-3.40594 -4.59392,-4.62298 -1.41425,-1.21718 -2.71242,-1.91031 -3.19903,-1.93361 -0.73264,-0.0344 -1.26487,0.1926 -1.75765,0.62283 -0.49278,0.43024 -0.91481,1.08895 -1.22861,1.84795 -0.62759,1.51799 -0.78255,3.45711 -0.64648,4.29084 0.1856,1.08384 0.67192,3.95255 1.96113,6.74611 1.29063,2.79676 3.3208,5.42103 6.58372,6.2384 0.23734,0.0592 0.47114,0.0867 0.70423,0.0872 0.69926,0.002 1.39247,-0.24144 2.15723,-0.61081 1.01907,-0.49227 2.08962,-1.20803 3.31841,-1.6189 1.13147,-0.37889 2.80151,-0.77984 3.81063,-1.28714 0.45098,-0.22671 0.70094,-0.47084 0.77244,-0.57322 l 7.30616,9.54053 c -0.357,-0.35813 -1.13414,-0.55238 -2.02236,-0.47555 -0.88914,0.0769 -1.83631,0.42483 -2.2832,0.74414 -1.34485,0.96098 -3.26881,0.90158 -5.96864,0.89258 -0.90057,-0.003 -1.88735,-0.0136 -2.95913,-0.0136 -4.12194,0 -7.57434,-1.57272 -10.3494,-3.9397 -2.77492,-2.36685 -4.90035,-5.51546 -6.51977,-8.75375 -1.61941,-3.23817 -2.7313,-6.56973 -3.44321,-9.33007 -0.71191,-2.76034 -1.03134,-4.87981 -1.03134,-5.96671 0,-2.26159 0.49924,-4.32625 2.08593,-5.61323 v -0.17596 h -8.20107 v 1.03327 c 0.83759,0.84626 1.6157,1.90034 2.30684,3.27152 0.01,0.0106 0.0171,0.0163 0.0271,0.0271 l -0.006,0.004 c 0.0404,0.0805 0.0947,0.10858 0.13449,0.19108 l -1.38287,0.92591 c -0.31948,-0.35742 -0.59658,-0.61271 -0.84762,-0.82631 0.0197,0.15994 -2.6e-4,0.17945 0.0508,0.40269 0.16638,0.55091 0.74799,1.93384 1.50999,3.66762 0.76771,1.74691 1.72043,3.88421 2.65023,6.0977 0.9298,2.21349 1.83702,4.5028 2.51768,6.57055 0.68066,2.06787 1.14838,3.88782 1.14838,5.3241 0,2.57019 -0.38443,4.52243 -1.46076,5.8985 -1.07633,1.37606 -2.79854,1.9805 -4.94157,1.9805 -2.24186,0 -4.5058,-1.56101 -6.77945,-3.50212 -1.63764,-1.3982 -3.11887,-3.00194 -4.59159,-4.54082 0.001,0.0488 0.0233,0.11594 0.0233,0.16394 0,0.17253 -0.008,0.29042 -0.0101,0.39998 -0.006,-0.0328 -0.0108,-0.0665 -0.0174,-0.0992 l 0.0155,0.16395 c 0,-0.0167 0.001,-0.047 0.002,-0.0647 0.25035,1.28427 0.38219,2.63201 0.27014,3.8676 -0.11462,1.2652 -0.47443,2.4699 -1.41232,3.244 -0.21658,0.18138 -0.35765,0.22428 -0.55074,0.29688 -0.19391,0.0729 -0.41866,0.14005 -0.67981,0.20115 -0.52231,0.12225 -1.18514,0.21895 -1.93942,0.23255 -1.17362,0.0211 -2.57094,-0.15957 -3.94318,-0.80073 h -0.002 c -3.01242,-1.41402 -6.27401,-4.72651 -9.11535,-7.74412 0.21975,0.97694 0.43386,1.98049 0.48446,3.00176 0.0648,1.30835 -0.0361,2.57159 -0.51973,3.62498 -0.48367,1.05339 -1.52341,1.87896 -2.84945,1.87896 -2.59924,0 -5.08965,-2.15386 -7.1054,-4.16603 -2.01587,-2.01206 -3.49437,-4.01566 -3.49437,-4.01566 l 1.04297,-1.25574 c 2.04147,0.988 3.31131,1.20252 3.63079,1.13482 0.1598,-0.0339 0.0925,0.004 0.12519,-0.0802 0.0327,-0.0838 0.0677,-0.36592 0,-0.78484 -0.27095,-1.67569 -1.97135,-5.09492 -3.38662,-8.46113 -1.40301,-3.34679 -2.61011,-6.55781 -3.4905,-9.28512 -0.88027,-2.72729 -1.44202,-4.93716 -1.53092,-6.45698 l -0.0849,-1.46658 h 0.24107 l 1.129,0.70499 c 3.04816,1.90216 4.79114,3.24754 6.33606,5.23071 1.54481,1.98316 2.86627,4.52679 5.26559,8.92583 4.72892,8.68209 8.79789,10.70867 10.56643,10.70867 0.16497,0 0.19773,-0.0233 0.28913,-0.11898 0.0914,-0.0957 0.21412,-0.30785 0.29882,-0.63291 0.16437,-0.63037 0.16491,-1.64382 0.0349,-2.67969 -0.66196,-1.51039 -1.47902,-3.20207 -2.22428,-4.9218 -1.43797,-3.32348 -2.91785,-6.65502 -4.06643,-9.50991 -1.14858,-2.85502 -1.98245,-5.16056 -2.08205,-6.77712 l -0.0547,-0.87902 0.88057,-0.0112 c 0,0 1.68912,-0.0135 3.78737,1.01738 2.09813,1.03084 4.67899,3.11738 6.68721,7.17788 3.84499,7.77116 5.55624,10.81077 5.57254,10.83967 3.71197,5.18426 6.77657,6.49613 8.27704,6.49613 0.28993,0 0.34501,-0.0471 0.51392,-0.40424 0.1689,-0.35712 0.28318,-1.01438 0.27518,-1.78129 -0.0166,-1.53381 -0.48531,-3.50377 -1.05265,-4.70282 -0.63946,-1.34626 -2.08576,-4.36755 -3.375,-7.30888 -0.64461,-1.47066 -1.24852,-2.9213 -1.69913,-4.14627 -0.45062,-1.22497 -0.77359,-2.12532 -0.77359,-2.93742 0,-0.67494 -0.0442,-1.55027 0.045,-2.43164 0.0662,-0.65347 0.2736,-1.30989 0.62129,-1.91229 h -35.3398 l 0.009,0.005 h -0.16472 l -3.9e-4,-0.006 h -5.17799 c -0.009,-4.5e-4 -0.0193,-7.7e-4 -0.0298,-7.7e-4 h -12.96862 c -0.0132,0 -0.0252,6.4e-4 -0.036,10e-4 h -6.02368 v 0.0721 c 2.44429,1.31505 5.01061,3.28618 7.30074,5.34194 -0.18876,-1.81664 -0.0101,-3.33875 0.76352,-4.27146 0.46473,-0.5603 1.04821,-0.87485 1.63634,-1.12629 h 4.6784 c 0.67654,0.26606 1.36563,0.60665 2.05841,1.03986 1.47585,0.92273 2.92245,2.19831 4.06449,3.67808 0.0364,0.0472 0.0852,0.083 0.12093,0.13061 l -1.2228,1.14063 c -0.83332,-0.72188 -1.45224,-1.00061 -1.7654,-1.05071 -0.31317,-0.0501 -0.31482,-0.0145 -0.42982,0.13875 -0.22995,0.30653 -0.34668,1.53145 -0.0566,2.40219 0.13298,0.39962 0.74628,1.77264 1.56852,3.51374 0.82223,1.74112 1.87083,3.91519 2.95099,6.16398 2.16031,4.49748 4.4309,9.25724 5.3086,11.63692 0.56056,1.52125 0.68542,2.71001 0.45501,3.67382 -0.22999,0.9621 -0.85503,1.63776 -1.51541,1.99407 -0.50177,0.27945 -1.59058,0.70327 -3.03122,0.48446 -1.44582,-0.21958 -3.10668,-1.23562 -4.18968,-3.61723 -0.47194,-1.0411 -0.92681,-2.31868 -1.45883,-3.89085 -1.75526,-5.14447 -4.94715,-10.3577 -8.18169,-14.24026 -1.61733,-1.94132 -3.24703,-3.55124 -4.68345,-4.65205 -1.43643,-1.10093 -2.70664,-1.6406 -3.36337,-1.6406 -0.2459,0 -0.16916,-0.0342 -0.25386,0.16007 -0.0849,0.19425 -0.15166,0.68713 -0.088,1.34953 0.12744,1.32469 0.69104,3.28375 1.42783,5.30473 1.47382,4.04218 3.65039,8.45474 4.19704,9.43937 0.62646,1.12631 1.84587,3.54005 2.39249,5.8202 0.2733,1.13996 0.41106,2.25351 0.0667,3.25989 -0.17221,0.50319 -0.49702,0.98063 -0.97475,1.29876 -0.47784,0.31813 -1.07288,0.46509 -1.73246,0.46509 -2.47364,0 -5.00615,-1.28863 -6.98409,-2.52544 -1.97794,-1.23681 -3.40057,-2.4766 -3.40057,-2.4766 l 0.87514,-1.41038 c 1.39429,0.58041 2.39684,0.82649 2.97037,0.80499 0.54407,-0.0204 0.71482,-0.13061 0.95576,-0.58601 -0.0111,0.002 0.009,-0.11243 -0.0415,-0.31238 -0.0717,-0.2848 -0.22739,-0.70325 -0.45114,-1.19141 -0.44751,-0.9763 -1.15782,-2.24325 -1.96113,-3.59591 -1.6066,-2.7052 -3.58313,-5.74999 -4.69895,-7.84954 -2.20427,-4.16427 -2.73627,-7.00422 -2.73627,-9.50797 0,-1.54231 0.39611,-3.45021 1.46852,-4.93537 v -0.4337 h -11.61134 c 6.4e-4,6.9e-4 0.004,0.004 0.005,0.005 h -5.69656 c -0.0375,0 -0.0674,0.0104 -0.0674,0.024 0,0.0136 0.0299,0.0248 0.0674,0.0248 h 5.74152 c 0.68597,0.73897 3.21291,3.44669 7.25306,8.11774 l 0.004,0.004 -1.26775,1.10343 -0.004,-0.004 c -0.58055,-0.65875 -2.14942,-1.29081 -4.18193,-1.63672 -2.03551,-0.34643 -4.50317,-0.468 -6.87285,-0.46858 -3.69646,-9.1e-4 -5.74127,0.2405 -7.08214,0.36703 l 30.09397,26.72286 h -24.39857 l -9.84555,-10.82456 0.62245,-0.56548 0.62167,-0.56508 c 2.07539,2.28266 6.74109,3.14568 10.91215,3.26338 2.50382,0.0707 4.47671,-0.0698 5.91205,-0.21084 l -28.5699,-25.3522 h 3.25174 c 0.0114,0 0.0205,-8.6e-4 0.0205,-0.002 0,-10e-4 -0.009,-0.002 -0.0205,-0.002 h -3.25562 l -0.003,-0.003 h -3.08199 c 1.06829,0.88196 2.0643,2.02301 2.93549,3.57033 l 0.004,0.004 c 0.0441,0.0784 0.10107,0.1131 0.14457,0.1934 l -1.33209,0.99606 c -0.42288,-0.4231 -0.81984,-0.76414 -1.13443,-0.98211 -0.0351,-0.0242 -0.0237,-0.0109 -0.057,-0.0314 0.0163,0.17421 -0.002,0.23018 0.0763,0.5333 0.18087,0.53645 0.83784,1.92875 1.69525,3.66412 0.86243,1.74566 1.93316,3.88063 2.97851,6.09345 1.04535,2.2127 2.06578,4.5025 2.83201,6.57248 0.76623,2.06998 1.29488,3.8906 1.29488,5.35162 0,2.58461 -0.44598,4.57191 -1.65029,5.94307 -1.20431,1.37117 -3.06644,1.94562 -5.44115,1.94562 -2.67396,0 -5.51442,-1.86604 -8.31851,-4.10557 -1.77855,-1.42056 -3.24978,-2.86714 -4.81638,-4.3358 0.28764,1.04589 0.54453,2.14407 0.60733,3.25175 0.0749,1.32059 -0.0472,2.60989 -0.61702,3.67576 -0.5697,1.06574 -1.71318,1.83012 -3.1661,1.83012 -2.71944,0 -5.46883,-1.93076 -7.74412,-3.84163 l -6.05081,-1.50612 c -2.0582,3.93532 -6.352165,6.14848 -10.040881,6.14848 -9.120614,0 -16.116758,-6.11657 -20.744134,-12.46284 l -0.972811,-1.33597 h 7.488321 l 0.249985,0.36549 c 1.427436,2.07819 3.091871,3.9814 4.677634,5.33573 1.58575,1.35432 3.115287,2.09949 4.023407,2.09949 1.604014,0 2.868654,-0.39351 3.86334,-1.41387 0.994685,-1.02035 1.76634,-2.76678 2.054531,-5.62913 l 0.07635,-0.75771 h 10.152118 l 0.13875,0.67012 c 0.1892,0.90814 0.17833,1.74823 0.15813,2.58202 l 1.43558,0.35734 0.045,-0.0624 c 0.16057,0.0669 0.3186,0.12924 0.4864,0.19534 l 3.79901,0.94723 c 0.14757,-0.025 0.2703,-0.0601 0.2868,-0.0744 0.0213,-0.0184 0.042,-0.0282 0.0609,-0.17751 0.0376,-0.29856 -0.10795,-1.05348 -0.47672,-1.9805 -0.73752,-1.85429 -2.21243,-4.44029 -3.48041,-7.04688 -1.62885,-3.3438 -3.03248,-6.55323 -4.05674,-9.28318 -1.02437,-2.72983 -1.67882,-4.93955 -1.77742,-6.49031 l -0.0504,-0.77438 h 1.32008 c 3.50711,1.88934 5.50691,3.21697 7.29104,5.18846 1.79038,1.97841 3.327,4.52511 6.11321,8.92389 h 0.002 v 0.002 c 5.4872,8.68417 10.1952,10.75984 12.41594,10.75984 0.39216,0 0.49452,-0.0894 0.67787,-0.43757 0.18335,-0.34814 0.30708,-0.98787 0.29688,-1.74603 -0.0204,-1.51561 -0.54355,-3.47738 -1.17784,-4.67375 -0.71824,-1.34249 -2.3419,-4.36302 -3.79086,-7.30461 -0.72449,-1.47086 -1.40516,-2.92154 -1.9123,-4.1486 -0.50713,-1.22705 -0.87281,-2.11742 -0.87281,-2.96882 0,-0.6894 -0.0541,-1.59724 0.0605,-2.51574 0.0459,-0.36816 0.15576,-0.74461 0.28332,-1.11311 h -0.8515 c -0.0253,-0.009 -0.0848,-0.0151 -0.15426,-0.0151 H 92.474432 c -0.06946,0 -0.128943,0.006 -0.154255,0.0151 h -9.089778 v 0.0155 c 5.87675,2.11075 11.957436,6.58068 17.312551,13.64455 l 1.02165,1.34759 h -8.191384 l -0.242234,-0.42168 c -1.607609,-2.80744 -4.407514,-5.40712 -6.967034,-7.26546 -1.279746,-0.92917 -2.498683,-1.67595 -3.462588,-2.18166 -0.481946,-0.25285 -0.901651,-0.44658 -1.218921,-0.56857 -0.317257,-0.122 -0.57112,-0.15428 -0.50966,-0.15425 -0.595716,0 -1.927525,0.3576 -3.025404,1.45495 -1.09788,1.09736 -2.056856,2.92578 -2.056856,6.02755 0,0.62467 0.09452,1.32683 0.271689,2.07624 l 0.244172,1.03288 h -7.863493 l -0.226344,-0.48601 c -0.679405,-1.46172 -1.195432,-2.78209 -1.546808,-3.87497 -0.351389,-1.09287 -0.551131,-1.91539 -0.551131,-2.59016 0,-1.39624 0.08961,-3.09197 0.730578,-4.70476 0.522147,-1.31385 1.591157,-2.47265 3.062611,-3.35174 h -3.154854 c -0.0074,-1.7e-4 -0.01403,-7.8e-4 -0.0217,-7.8e-4 h -1.885936 v -0.005 h -4.238124 c 0.0012,0.002 0.0023,0.003 0.0035,0.005 h -11.81675 c 0.0014,-0.002 0.0028,-0.003 0.0043,-0.005 h -1.115051 v 0.005 h -9.383947 c -0.0077,0 -0.01427,6.1e-4 -0.0217,7.8e-4 h -13.78956 c 5.714541,4.14767 10.294098,11.3436 14.152273,20.15618 2.374011,-9.1684 6.487648,-16.00809 10.105222,-20.10076 h 11.905892 c 1.42722,1.89727 2.816741,4.11173 4.014106,6.50504 l 1.172025,2.34173 -2.314593,-1.2228 c -1.74431,-0.92063 -3.574161,-0.60834 -5.6113,0.57051 -2.037139,1.17885 -4.156315,3.24 -6.089953,5.56634 -3.653694,4.39573 -6.519635,9.48607 -7.646452,11.53731 0.35312,0.3252 0.673167,0.61299 1.246439,1.19722 0.818426,0.83409 1.851894,1.91614 3.031217,3.16803 2.358671,2.50378 5.299869,5.68453 8.240216,8.88475 5.880694,6.40032 11.782759,12.90376 12.953117,14.15033 1.172268,1.24931 2.070971,2.01984 2.919597,2.47079 0.848626,0.45095 1.66971,0.62283 2.859523,0.62283 1.970866,0 3.261824,-2.27351 3.261824,-2.27351 l 0.582137,-1.10342 0.802666,0.95498 c 0,0 5.109121,6.06465 10.193202,11.14857 l 0.544929,0.54493 -0.498033,0.58989 c -1.764302,1.74104 -3.95382,2.58629 -6.029104,3.03532 -0.148197,0.002 -0.292287,-10e-4 -0.433696,-0.006 h -0.0019 c -3.473686,-0.1288 -6.953064,-2.27576 -10.135065,-4.82646 -3.181605,-2.55038 -6.066733,-5.56015 -8.144485,-7.58173 -2.465224,-2.39242 -7.717698,-8.31031 -12.984124,-14.35768 -4.057473,-4.65903 -7.187528,-8.33166 -9.898645,-11.50398 0.191727,0.55074 0.396766,1.07797 0.584074,1.63479 v 0.002 c 3.256957,9.6084 6.782568,16.01585 9.478515,20.01007 2.696147,3.99464 4.507876,5.52914 4.507876,5.52914 l 1.732457,1.4782 H 31.169881 l -11.951239,-13.18566 3.246322,-0.70693 0.308509,0.23603 c 0,0 3.28318,2.4798 7.099584,3.69552 h 0.0019 c 3.38373,1.08546 7.421152,0.29779 12.062473,-0.21704 -4.527402,-8.55977 -9.237963,-20.87199 -12.47834,-31.52335 -1.658516,-5.45129 -3.468172,-8.82772 -5.205121,-10.7889 -1.736961,-1.96131 -3.340198,-2.53707 -4.869095,-2.53707 -1.290375,0 -3.56679,1.33609 -5.355501,2.77542 -1.788698,1.43947 -3.154466,2.88278 -3.154466,2.88278 l -0.685619,0.72631 -6.2244418,-8.30649 0.3085091,-0.48834 c 0,0 0.8872648,-1.18234 2.2541316,-2.41807 v -14.6188"
           sodipodi:nodetypes="ccccccccccccsccccsccsccccccccccccccccssccccccccccsccscscccccccscccscccsccccccccccccscccccccccccccccsccccscccccccccscccsccccccscsccccccscccccccccssccccccccscscccccccccccccscccsccccccscsccccccccccsccsccccsccccccsccccccccccccccsccscscccccccccccsccccscccsccccccccccccccccscccccccccccccsccccccccccscscccccscccccsscccsccccsccccccccccccccccscccsccccccsccccccccccsccccsscccccccccccccscsssccscccccccsscsccscsccsssssssscccccccccccssssssscsccccccssscccssscccsccccccccccsscccscccsccssccssssccccccssccccscccsccsscsscscsccscsccccsscssccsccsscsccccssscccccssccccccsccssscccccccccccsssssccsssccsccccssscccccccccssccccccscccssscssssccsscccscccssscssscccsssccsccccccccsccccccccsscssccsscccscccccscccccccccccccccccsccccccc" />
      </g>
    </g>
    <g
       gcodetools="Gcodetools orientation group"
       transform="matrix(0.750002 0 0 -0.750002 0 841.892)"
       id="g5983">
      <g
         gcodetools="Gcodetools orientation point (2 points)"
         id="g5973">
        <path
           style="stroke:none;fill:#000000;"
           gcodetools="Gcodetools orientation point arrow"
           d="m 0 400 l 2.9375 -6.34375 l 0.8125 1.90625 l 6.84375 -6.84375 l 0 0 l 0.6875 0.6875 l -6.84375 6.84375 l 1.90625 0.8125 z"
           id="path5967" />
        <text
           x="10.0"
           y="390.0"
           style="font-family:DejaVu Sans;font-style:normal;font-variant:normal;font-weight:normal;font-stretch:normal;font-family:DejaVu Sans;fill:#000000;fill-opacity:1;stroke:none;font-size:10.000000px;"
           gcodetools="Gcodetools orientation point text"
           xml:space="preserve"
           id="text5971"><tspan
             x="10.0"
             y="390.0"
             sodipodi:role="line"
             id="tspan5969">(0.0; 0.0; 0.00000)</tspan></text>
      </g>
      <g
         gcodetools="Gcodetools orientation point (2 points)"
         id="g5981">
        <path
           style="stroke:none;fill:#000000;"
           gcodetools="Gcodetools orientation point arrow"
           d="m 100 400 l 2.9375 -6.34375 l 0.8125 1.90625 l 6.84375 -6.84375 l 0 0 l 0.6875 0.6875 l -6.84375 6.84375 l 1.90625 0.8125 z"
           id="path5975" />
        <text
           x="110.0"
           y="390.0"
           style="font-family:DejaVu Sans;font-style:normal;font-variant:normal;font-weight:normal;font-stretch:normal;font-family:DejaVu Sans;fill:#000000;fill-opacity:1;stroke:none;font-size:10.000000px;"
           gcodetools="Gcodetools orientation point text"
           xml:space="preserve"
           id="text5979"><tspan
             x="110.0"
             y="390.0"
             sodipodi:role="line"
             id="tspan5977">(100.0; 0.0; -0.12500)</tspan></text>
      </g>
    </g>
    <g
       id="g8832" />
    <g
       gcodetools="Preview group"
       id="g8644" />
    <g
       gcodetools="Preview group"
       id="g13281" />
    <g
       id="g17570" />
    <g
       id="g23205" />
  </g>
  <g
     id="g7676" />
  <g
     id="g8648" />
  <g
     id="g13286" />
</svg>
