<?xml version="1.0" encoding="UTF-8" standalone="no"?>
<!-- Created with Inkscape (http://www.inkscape.org/) -->

<svg
   width="400mm"
   height="400mm"
   viewBox="0 0 400 400"
   version="1.1"
   id="svg2569"
   inkscape:version="1.1.2 (b8e25be8, 2022-02-05)"
   sodipodi:docname="puzzle.svg"
   xmlns:inkscape="http://www.inkscape.org/namespaces/inkscape"
   xmlns:sodipodi="http://sodipodi.sourceforge.net/DTD/sodipodi-0.dtd"
   xmlns="http://www.w3.org/2000/svg"
   xmlns:svg="http://www.w3.org/2000/svg">
  <sodipodi:namedview
     id="namedview2571"
     pagecolor="#ffffff"
     bordercolor="#666666"
     borderopacity="1.0"
     inkscape:pageshadow="2"
     inkscape:pageopacity="0.0"
     inkscape:pagecheckerboard="0"
     inkscape:document-units="px"
     showgrid="false"
     inkscape:snap-to-guides="true"
     width="400mm"
     inkscape:object-nodes="true"
     inkscape:snap-global="true"
     inkscape:snap-intersection-paths="true"
     inkscape:zoom="1"
     inkscape:cx="799"
     inkscape:cy="710.5"
     inkscape:window-width="2483"
     inkscape:window-height="1217"
     inkscape:window-x="1997"
     inkscape:window-y="195"
     inkscape:window-maximized="0"
     inkscape:current-layer="layer1" />
  <defs
     id="defs2566" />
  <g
     inkscape:label="Layer 1"
     inkscape:groupmode="layer"
     id="layer1">
    <path
       id="path3618"
       style="opacity:0.57;fill:none;stroke:#000000;stroke-width:5.00031;stroke-linecap:round;stroke-linejoin:round;stroke-miterlimit:4;stroke-dasharray:none"
       d="m 615.50684,808.2368 a 36.025392,36.049504 0 0 1 3.54104,-46.72651 72.050782,72.099009 0 0 0 21.05424,-53.67624 l 1.5e-4,-1.9e-4 v 0 a 72.050782,72.099009 0 0 0 -21.05424,-48.28566 72.050782,72.099009 0 0 0 -101.89368,0 72.050782,72.099009 0 0 0 -1.50478,100.16693 l -0.23282,-0.004 0.002,0.13531 a 36.025392,36.049504 0 0 1 0.82186,0.65526 36.025392,36.049504 0 0 1 10.52614,24.14377 36.025392,36.049504 0 0 1 -7.58739,23.51052 m 265.18279,-45.36106 a 295.04067,147.49985 0 0 1 -168.86268,45.45386 m -96.3233,-0.0521 a 295.04067,147.49985 0 0 1 -168.233,-45.40177"
       transform="scale(0.26458333)" />
    <path
       id="path17206"
       style="opacity:0.57;fill:none;stroke:#000000;stroke-width:1.323;stroke-linecap:round;stroke-linejoin:round;stroke-miterlimit:4;stroke-dasharray:none"
       d="m 195.50604,157.14652 a 9.5380978,9.5317182 0 0 1 12.36306,0.9369 19.076196,19.063436 0 0 0 14.20183,5.5706 l 5e-5,4e-5 v 0 a 19.076196,19.063436 0 0 0 12.77559,-5.5706 19.076196,19.063436 0 0 0 0,-26.95937 19.076196,19.063436 0 0 0 -26.5025,-0.39814 l 0.001,-0.0616 -0.0358,5.3e-4 a 9.5380978,9.5317182 0 0 1 -0.17337,0.21745 9.5380978,9.5317182 0 0 1 -6.38804,2.78504 9.5380978,9.5317182 0 0 1 -6.22049,-2.00749 m 12.00178,70.16294 a 39.026001,78.062843 0 0 1 -12.02633,-44.67825 m 0.0138,-25.48554 a 39.026001,78.062843 0 0 1 12.01255,-44.511637" />
    <path
       id="path17208"
       style="opacity:0.57;fill:none;stroke:#000000;stroke-width:1.323;stroke-linecap:round;stroke-linejoin:round;stroke-miterlimit:4;stroke-dasharray:none"
       d="m 104.87684,131.82369 a 9.5380978,9.5317182 0 0 1 -12.363057,-0.9369 19.076196,19.063436 0 0 0 -14.20183,-5.5706 l -5e-5,-4e-5 v 0 a 19.076196,19.063436 0 0 0 -12.77559,5.5706 19.076196,19.063436 0 0 0 0,26.95937 19.076196,19.063436 0 0 0 26.5025,0.39814 l -0.001,0.0616 0.0358,-5.3e-4 a 9.5380978,9.5317182 0 0 1 0.17337,-0.21745 9.5380978,9.5317182 0 0 1 6.38804,-2.78504 9.5380978,9.5317182 0 0 1 6.220487,2.00749 M 92.853733,87.1474 a 39.026001,78.062843 0 0 1 12.026327,44.67824 m -0.0138,25.48554 a 39.026001,78.062843 0 0 1 -12.012547,44.51164" />
    <path
       id="path17210"
       style="opacity:0.57;fill:none;stroke:#000000;stroke-width:1.323;stroke-linecap:round;stroke-linejoin:round;stroke-miterlimit:4;stroke-dasharray:none"
       d="m 137.53003,75.124283 a 9.5317182,9.5380978 0 0 1 -0.9369,12.36305 19.063436,19.076196 0 0 0 -5.5706,14.201847 l -4e-5,5e-5 v 0 a 19.063436,19.076196 0 0 0 5.5706,12.77558 19.063436,19.076196 0 0 0 26.95937,0 19.063436,19.076196 0 0 0 0.39814,-26.502507 l 0.0616,10e-4 -5.3e-4,-0.0358 a 9.5317182,9.5380978 0 0 1 -0.21745,-0.17337 9.5317182,9.5380978 0 0 1 -2.78504,-6.38804 9.5317182,9.5380978 0 0 1 2.0075,-6.22049 m -70.16295,12.00178 a 78.062843,39.026001 0 0 1 44.67825,-12.02634 m 25.48554,0.0138 a 78.062843,39.026001 0 0 1 44.51165,12.01255" />
  </g>
</svg>
