<?xml version="1.0" encoding="UTF-8" standalone="no"?>
<!-- Created with Inkscape (http://www.inkscape.org/) -->

<svg
   width="400mm"
   height="400mm"
   viewBox="0 0 400 400"
   version="1.1"
   id="svg2569"
   inkscape:version="1.1.2 (b8e25be8, 2022-02-05)"
   sodipodi:docname="puzzle big rounded.svg"
   xmlns:inkscape="http://www.inkscape.org/namespaces/inkscape"
   xmlns:sodipodi="http://sodipodi.sourceforge.net/DTD/sodipodi-0.dtd"
   xmlns="http://www.w3.org/2000/svg"
   xmlns:svg="http://www.w3.org/2000/svg">
  <sodipodi:namedview
     id="namedview2571"
     pagecolor="#ffffff"
     bordercolor="#666666"
     borderopacity="1.0"
     inkscape:pageshadow="2"
     inkscape:pageopacity="0.0"
     inkscape:pagecheckerboard="0"
     inkscape:document-units="px"
     showgrid="false"
     inkscape:snap-to-guides="true"
     width="400mm"
     inkscape:object-nodes="true"
     inkscape:snap-global="true"
     inkscape:snap-intersection-paths="true"
     inkscape:zoom="0.54"
     inkscape:cx="800"
     inkscape:cy="891.66667"
     inkscape:window-width="2483"
     inkscape:window-height="1217"
     inkscape:window-x="1878"
     inkscape:window-y="181"
     inkscape:window-maximized="0"
     inkscape:current-layer="layer1" />
  <defs
     id="defs2566">
    <inkscape:perspective
       sodipodi:type="inkscape:persp3d"
       inkscape:vp_x="0 : 200 : 1"
       inkscape:vp_y="0 : 1000 : 0"
       inkscape:vp_z="400 : 200 : 1"
       inkscape:persp3d-origin="200 : 133.33333 : 1"
       id="perspective18270" />
  </defs>
  <g
     inkscape:label="Layer 1"
     inkscape:groupmode="layer"
     id="layer1">
    <path
       id="path3618-7"
       style="opacity:0.57;fill:none;stroke:#000000;stroke-width:5.00031;stroke-linecap:round;stroke-linejoin:round;stroke-miterlimit:4;stroke-dasharray:none"
       d="M 679.00222 522.21821 A 103.22414 72.634103 0 0 0 664.32023 508.1201 L 664.65359 508.12385 L 664.65098 507.98741 A 51.612072 36.317054 0 0 1 663.4735 507.32727 A 51.612072 36.317054 0 0 1 648.39315 483.00431 A 51.612072 36.317054 0 0 1 659.26326 459.3193 "
       transform="scale(0.26458333)" />
    <path
       id="path18911"
       style="opacity:0.57;fill:none;stroke:#000000;stroke-width:5.00031;stroke-linecap:round;stroke-linejoin:round;stroke-miterlimit:4;stroke-dasharray:none"
       d="M 688.24243 577.77949 A 103.22414 72.634103 0 0 0 679.00222 522.21821 "
       transform="scale(0.26458333)" />
    <path
       id="path18909"
       style="opacity:0.57;fill:none;stroke:#000000;stroke-width:5.00031;stroke-linecap:round;stroke-linejoin:round;stroke-miterlimit:4;stroke-dasharray:none"
       d="M 489.99257 577.79734 A 103.22414 72.634103 0 0 0 516.18558 609.03047 A 103.22414 72.634103 0 0 0 662.16439 609.03047 A 103.22414 72.634103 0 0 0 688.24243 577.77949 "
       transform="scale(0.26458333)" />
    <path
       id="path18907"
       style="opacity:0.57;fill:none;stroke:#000000;stroke-width:5.00031;stroke-linecap:round;stroke-linejoin:round;stroke-miterlimit:4;stroke-dasharray:none"
       d="M 499.08086 522.22123 A 103.22414 72.634103 0 0 0 486.02227 560.38621 L 486.02208 560.38647 L 486.02208 560.38647 A 103.22414 72.634103 0 0 0 489.99257 577.79734 "
       transform="scale(0.26458333)" />
    <path
       id="path18905"
       style="opacity:0.57;fill:none;stroke:#000000;stroke-width:5.00031;stroke-linecap:round;stroke-linejoin:round;stroke-miterlimit:4;stroke-dasharray:none"
       d="M 521.25888 459.2383 A 51.612072 36.317054 0 0 1 516.18573 506.31164 A 103.22414 72.634103 0 0 0 499.08086 522.22123 "
       transform="scale(0.26458333)" />
    <path
       style="opacity:0.57;fill:none;stroke:#000000;stroke-width:1.323;stroke-linecap:round;stroke-linejoin:round;stroke-miterlimit:4;stroke-dasharray:none"
       d="m 163.58672,351.0043 a 13.655694,9.6088871 0 0 1 -1.34227,12.45482 27.311386,19.217773 0 0 0 -7.98075,14.30723 l -5e-5,7e-5 v 0 a 27.311386,19.217773 0 0 0 7.98076,12.87039 27.311386,19.217773 0 0 0 38.62356,0 27.311386,19.217773 0 0 0 0.5704,-26.6992 l 0.0882,9.9e-4 -6.9e-4,-0.0361 a 13.655694,9.6088871 0 0 1 -0.31154,-0.17466 13.655694,9.6088871 0 0 1 -3.99001,-6.43545 13.655694,9.6088871 0 0 1 2.87605,-6.26666"
       id="path3618-7-0" />
    <path
       style="opacity:0.57;fill:none;stroke:#000000;stroke-width:1.323;stroke-linecap:round;stroke-linejoin:round;stroke-miterlimit:4;stroke-dasharray:none"
       d="m 163.79886,197.5611 a 13.655694,9.6088871 0 0 1 -1.34227,12.45482 27.311386,19.217773 0 0 0 -7.98075,14.30723 l -5e-5,7e-5 v 0 a 27.311386,19.217773 0 0 0 7.98076,12.87039 27.311386,19.217773 0 0 0 38.62356,0 27.311386,19.217773 0 0 0 0.5704,-26.6992 l 0.0882,9.9e-4 -6.9e-4,-0.0361 a 13.655694,9.6088871 0 0 1 -0.31154,-0.17466 13.655694,9.6088871 0 0 1 -3.99001,-6.43545 13.655694,9.6088871 0 0 1 2.87605,-6.26666"
       id="path3618-7-0-33" />
    <path
       style="opacity:0.57;fill:none;stroke:#000000;stroke-width:1.323;stroke-linecap:round;stroke-linejoin:round;stroke-miterlimit:4;stroke-dasharray:none"
       d="m 5.5803553,292.29239 a 9.6088871,13.655694 0 0 1 12.4548197,1.34227 19.217773,27.311386 0 0 0 14.30723,7.98075 l 7e-5,5e-5 v 0 a 19.217773,27.311386 0 0 0 12.87039,-7.98076 19.217773,27.311386 0 0 0 0,-38.62356 19.217773,27.311386 0 0 0 -26.6992,-0.5704 l 9.9e-4,-0.0882 -0.0361,6.9e-4 a 9.6088871,13.655694 0 0 1 -0.17466,0.31154 9.6088871,13.655694 0 0 1 -6.43545,3.99001 9.6088871,13.655694 0 0 1 -6.2666597,-2.87605"
       id="path3618-7-0-33-3" />
    <path
       style="opacity:0.57;fill:none;stroke:#000000;stroke-width:1.323;stroke-linecap:round;stroke-linejoin:round;stroke-miterlimit:4;stroke-dasharray:none"
       d="m 349.04872,292.29239 a 9.6088871,13.655694 0 0 1 12.45482,1.34227 19.217773,27.311386 0 0 0 14.30723,7.98075 l 7e-5,5e-5 v 0 a 19.217773,27.311386 0 0 0 12.87039,-7.98076 19.217773,27.311386 0 0 0 0,-38.62356 19.217773,27.311386 0 0 0 -26.6992,-0.5704 l 9.9e-4,-0.0882 -0.0361,6.9e-4 a 9.6088871,13.655694 0 0 1 -0.17466,0.31154 9.6088871,13.655694 0 0 1 -6.43545,3.99001 9.6088871,13.655694 0 0 1 -6.26666,-2.87605"
       id="path3618-7-0-33-3-1" />
    <path
       style="opacity:0.57;fill:none;stroke:#000000;stroke-width:1.323;stroke-linecap:round;stroke-linejoin:round;stroke-miterlimit:4;stroke-dasharray:none"
       d="m 312.78234,65.55155 a 13.655694,9.6088871 0 0 1 -1.34227,12.45482 27.311386,19.217773 0 0 0 -7.98075,14.30723 l -5e-5,7e-5 v 0 a 27.311386,19.217773 0 0 0 7.98076,12.87039 27.311386,19.217773 0 0 0 38.62356,0 27.311386,19.217773 0 0 0 0.5704,-26.6992 l 0.0882,9.9e-4 -6.9e-4,-0.0361 a 13.655694,9.6088871 0 0 1 -0.31154,-0.17466 13.655694,9.6088871 0 0 1 -3.99001,-6.43545 13.655694,9.6088871 0 0 1 2.87605,-6.26666"
       id="path3618-7-0-3" />
    <path
       id="rect18336"
       style="opacity:0.47767;fill:none;stroke:#000000;stroke-width:1.323;stroke-linecap:round;stroke-linejoin:round;stroke-miterlimit:4;stroke-dasharray:none"
       d="m 200.23308,197.66538 148.80307,1e-5 c 0.019,0 0.034,0.0161 0.034,0.036 v 153.28835 c 0,0.0198 -0.015,0.036 -0.034,0.036 H 200.10038" />
    <path
       id="path19790"
       style="opacity:0.47767;fill:none;stroke:#000000;stroke-width:5.00031;stroke-linecap:round;stroke-linejoin:round;stroke-miterlimit:4;stroke-dasharray:none"
       d="M 21.172101 966.72173 L 21.172102 747.21782 C 21.172102 747.14261 21.232764 747.08176 21.308127 747.08176 L 21.308127 747.08179 L 21.308127 747.08179 L 619.46257 747.08177 "
       transform="scale(0.26458333)" />
    <path
       id="path19979"
       style="opacity:0.47767;fill:none;stroke:#000000;stroke-width:5.00031;stroke-linecap:round;stroke-linejoin:round;stroke-miterlimit:4;stroke-dasharray:none"
       d="M 620.12281 1326.7114 L 21.308127 1326.7114 C 21.232764 1326.7114 21.172102 1326.6506 21.172102 1326.5754 L 21.172101 1104.669 "
       transform="scale(0.26458333)" />
    <path
       id="rect18821"
       style="opacity:0.47767;fill:none;stroke:#000000;stroke-width:1.323;stroke-linecap:round;stroke-linejoin:round"
       d="m 126.766,81.824849 -49.804849,2e-6 c -0.0199,0 -0.036,-0.01605 -0.036,-0.03599 v -14.6271 c 0,-0.01994 0.0161,-0.03599 0.036,-0.03599 v 3e-6 0 H 209.18084 c 0.0199,0 0.036,0.01605 0.036,0.03599 V 81.78886 c 0,0.01994 -0.0161,0.03599 -0.036,0.03599 l -46.15391,-2e-6" />
    <path
       id="path19097"
       style="opacity:0.47767;fill:none;stroke:#000000;stroke-width:5.00031;stroke-linecap:round;stroke-linejoin:round"
       d="M 1088.387 285.1852 L 951.33781 285.1852 "
       transform="scale(0.26458333)" />
    <path
       style="opacity:0.57;fill:none;stroke:#000000;stroke-width:1.323;stroke-linecap:round;stroke-linejoin:round;stroke-miterlimit:4;stroke-dasharray:none"
       d="m 251.56883,75.31507 a 13.655694,9.6088871 0 0 1 -1.34227,12.45482 27.311386,19.217773 0 0 0 -7.98075,14.30722 l -5e-5,7e-5 v 0 a 27.311386,19.217773 0 0 0 7.98076,12.87039 27.311386,19.217773 0 0 0 38.62356,0 27.311386,19.217773 0 0 0 0.5704,-26.69919 l 0.0882,9.9e-4 -6.9e-4,-0.0361 a 13.655694,9.6088871 0 0 1 -0.31154,-0.17466 13.655694,9.6088871 0 0 1 -3.99001,-6.43545 13.655694,9.6088871 0 0 1 2.87605,-6.26666"
       id="path19074" />
    <path
       id="rect19229"
       style="opacity:0.47767;fill:none;stroke:#000000;stroke-width:5.00031;stroke-linecap:round;stroke-linejoin:round;stroke-miterlimit:4;stroke-dasharray:none"
       d="M 1182.5624 248.14814 L 827.9138 248.14814 C 827.83845 248.14814 827.77779 248.08747 827.77779 248.01212 L 827.77779 92.728603 C 827.77779 92.65325 827.83845 92.592587 827.9138 92.592587 L 827.9138 92.592587 L 1407.2714 92.592587 C 1407.3467 92.592587 1407.4074 92.65325 1407.4074 92.728603 L 1407.4074 248.01212 C 1407.4074 248.08747 1407.3467 248.14814 1407.2714 248.14814 L 1319.8729 248.14813 "
       transform="scale(0.26458333)" />
    <path
       id="path19340"
       style="opacity:0.47767;fill:none;stroke:#000000;stroke-width:5.00031;stroke-linecap:round;stroke-linejoin:round;stroke-miterlimit:4;stroke-dasharray:none"
       d="M 1319.8729 248.14813 L 1182.5624 248.14814 "
       transform="scale(0.26458333)" />
    <path
       style="opacity:0.57;fill:none;stroke:#000000;stroke-width:1.323;stroke-linecap:round;stroke-linejoin:round;stroke-miterlimit:4;stroke-dasharray:none"
       d="m 349.04872,292.29239 a 9.6088871,13.655694 0 0 1 12.45482,1.34227 19.217773,27.311386 0 0 0 14.30723,7.98075 l 7e-5,5e-5 v 0 a 19.217773,27.311386 0 0 0 12.87039,-7.98076 19.217773,27.311386 0 0 0 0,-38.62356 19.217773,27.311386 0 0 0 -26.6992,-0.5704 l 9.9e-4,-0.0882 -0.0361,6.9e-4 a 9.6088871,13.655694 0 0 1 -0.17466,0.31154 9.6088871,13.655694 0 0 1 -6.43545,3.99001 9.6088871,13.655694 0 0 1 -6.26666,-2.87605"
       id="path20086" />
  </g>
</svg>
