<?xml version="1.0" encoding="UTF-8" standalone="no"?>
<!-- Created with Inkscape (http://www.inkscape.org/) -->

<svg
   version="1.1"
   id="svg1782"
   width="400mm"
   height="400mm"
   viewBox="0 0 400 400"
   sodipodi:docname="svrca logo samo putanja.svg"
   inkscape:version="1.2.2 (1:1.2.2+202212051552+b0a8486541)"
   xmlns:inkscape="http://www.inkscape.org/namespaces/inkscape"
   xmlns:sodipodi="http://sodipodi.sourceforge.net/DTD/sodipodi-0.dtd"
   xmlns="http://www.w3.org/2000/svg"
   xmlns:svg="http://www.w3.org/2000/svg">
  <defs
     id="defs1786">
    <marker
       id="CheckToolsAndOPMarker"
       orient="auto"
       refX="-4"
       refY="-1.687441"
       style="overflow:visible">
      <path
         d="m 4.588864,-1.687441 v 0 L 9.177728,0 c -0.73311,-0.996261 -0.728882,-2.359329 0,-3.374882"
         style="fill:#000044;fill-rule:evenodd;stroke:none"
         id="path467" />
    </marker>
    <marker
       id="DrawCurveMarker"
       orient="auto"
       refX="-4"
       refY="-1.687441"
       style="overflow:visible">
      <path
         d="m 4.588864,-1.687441 v 0 L 9.177728,0 c -0.73311,-0.996261 -0.728882,-2.359329 0,-3.374882"
         style="fill:#000044;fill-rule:evenodd;stroke:none"
         id="path470" />
    </marker>
    <marker
       id="DrawCurveMarker_r"
       orient="auto"
       refX="4"
       refY="-1.687441"
       style="overflow:visible">
      <path
         d="m -4.588864,-1.687441 v 0 L -9.177728,0 c 0.73311,-0.996261 0.728882,-2.359329 0,-3.374882"
         style="fill:#000044;fill-rule:evenodd;stroke:none"
         id="path473" />
    </marker>
    <marker
       id="InOutPathMarker"
       orient="auto"
       refX="-4"
       refY="-1.687441"
       style="overflow:visible">
      <path
         d="m 4.588864,-1.687441 v 0 L 9.177728,0 c -0.73311,-0.996261 -0.728882,-2.359329 0,-3.374882"
         style="fill:#0072a7;fill-rule:evenodd;stroke:none"
         id="path476" />
    </marker>
  </defs>
  <sodipodi:namedview
     id="namedview1784"
     pagecolor="#ffffff"
     bordercolor="#666666"
     borderopacity="1.0"
     inkscape:pageshadow="2"
     inkscape:pageopacity="0.0"
     inkscape:pagecheckerboard="0"
     showgrid="false"
     width="450px"
     units="mm"
     inkscape:document-units="mm"
     inkscape:zoom="0.20293468"
     inkscape:cx="3163.5796"
     inkscape:cy="675.09409"
     inkscape:window-width="1789"
     inkscape:window-height="941"
     inkscape:window-x="26"
     inkscape:window-y="23"
     inkscape:window-maximized="0"
     inkscape:current-layer="g1788"
     inkscape:showpageshadow="2"
     inkscape:deskcolor="#d1d1d1" />
  <g
     inkscape:groupmode="layer"
     inkscape:label="Image"
     id="g1788">
    <path
       id="path1882"
       style="fill:#000000;stroke-width:0.398692"
       d="m 269.79751,243.34833 v 1.75229 c 0,0.96356 0.13873,1.75142 0.30866,1.75142 0.16987,0 0.49505,0.4922 0.72317,1.0952 0.91015,2.40577 3.34327,6.79262 5.89327,10.6198 3.85224,5.78169 4.5884,7.66211 4.61432,11.80643 0.0202,3.23713 -0.52653,5.10366 -2.45107,8.37418 -0.0646,0.1096 1.72216,0.19884 3.96897,0.19914 2.36427,2.1e-4 4.41203,0.19411 4.8623,0.45979 0.72434,0.42737 0.68374,0.49772 -0.601,1.03455 -0.7589,0.31708 -2.27633,1.14052 -3.37068,1.82742 l -1.98765,1.24818 2.00757,0.007 c 1.27747,0.006 2.65753,0.33461 3.78883,0.90512 2.08586,1.05182 2.11691,1.28617 0.81735,6.07881 -1.28961,4.75569 -1.66217,11.72304 -1.19205,22.27867 0.22349,5.01607 0.3176,9.35029 0.20908,9.63322 -0.21686,0.56508 -4.23528,2.7097 -4.52833,2.41669 -0.1003,-0.10027 -0.59782,-1.58696 -1.10517,-3.30188 -4.07472,-13.77367 -6.65658,-21.92175 -7.22196,-22.78466 -2.72413,-4.15754 -8.21237,-5.51572 -13.0627,-3.23583 -3.43532,1.61479 -3.926,2.61313 -9.65405,19.69098 -5.2043,15.51616 -5.22779,15.57185 -6.38022,15.68573 -3.81987,0.37756 -5.29664,0.93654 -6.75492,2.55065 -1.24888,1.38237 -1.41307,1.73466 -1.33143,3.46027 0.006,0.6823 0.0559,1.09284 0.11766,1.57219 l 0.0344,0.12129 -0.0181,0.005 c 0.15731,1.44284 0.47709,1.9811 1.92249,3.44854 l 1.86365,1.89354 -1.13503,3.53358 h -5.77649 c 0.72643,-1.78792 1.1767,-3.49211 1.27079,-5.00171 0.0867,-1.38949 -0.005,-2.51407 -0.23986,-3.52819 -0.0645,-0.35974 -0.28695,-0.93429 -0.38558,-1.16759 -0.33024,-0.79832 -0.75615,-1.54742 -1.38665,-2.26554 -1.67594,-1.90873 -4.12966,-2.94379 -6.95767,-2.93258 -4.14871,0.0159 -7.22273,2.21266 -8.71905,6.22998 -3.98165,10.68982 -15.80005,15.65266 -25.68918,10.78904 -7.61663,-3.74593 -12.02022,-12.5696 -10.32564,-20.69562 1.16799,-5.60097 5.15445,-10.86124 10.06767,-13.28447 9.31756,-4.59553 19.72054,-1.19498 24.84562,8.12073 2.33112,4.23725 4.43283,5.64856 8.39048,5.6335 6.58877,-0.025 10.42117,-5.28986 8.7109,-11.96571 -1.25075,-4.88221 -7.52497,-12.51597 -13.58045,-16.52031 -3.35665,-2.21963 -7.84853,-4.07336 -12.21644,-5.04242 -2.20179,-0.48853 -5.119,-0.67923 -8.06374,-0.66257 -1.14502,-4.48292 -4.93005,-8.82229 -9.18066,-10.25776 -1.54288,-0.52103 -4.61702,-0.82725 -4.61702,-0.82725 -4.5633,-0.10279 -8.84703,1.9307 -11.76026,5.77012 -3.44206,4.53644 -3.59393,11.30007 -0.47338,16.2687 -4.87174,4.97424 -8.45485,11.21629 -9.95001,18.0047 -0.0866,0.39318 -0.11049,0.8388 -0.1765,1.24993 h -5.04063 c 0.6583,-2.02639 0.7987,-3.33167 0.81099,-7.3722 0.0138,-4.53677 -0.11973,-5.61503 -1.06171,-8.6457 -1.93137,-6.21373 -5.85128,-11.0229 -10.92121,-13.39853 l -2.30444,-1.08074 h -12.9867 -12.98761 l -1.62559,1.07799 c -2.3316,1.54271 -3.75809,4.60565 -3.81328,8.18864 -0.0462,2.99802 0.30048,3.82221 5.66516,13.46914 1.31598,2.36643 2.31455,4.42765 2.21936,4.58174 -0.0952,0.15404 -1.01431,0.39679 -2.04195,0.53765 -1.06505,0.146 -2.44011,0.69328 -3.19961,1.27262 -1.00801,0.76882 -1.60598,1.20826 -1.96864,2.62121 H 101.2058 c 4.36529,-14.019 7.31793,-23.70956 7.31793,-24.40483 0,-2.70554 -2.31969,-5.56425 -5.47056,-6.74316 -4.177078,-1.56284 -8.980878,-0.73843 -10.665068,1.83196 -1.02092,1.55812 -7.592378,23.11389 -9.863117,32.35541 -0.283052,1.15203 -0.693079,2.07629 -0.912355,2.05371 -0.530845,-0.0547 -5.818797,-19.65426 -7.991329,-29.62013 -0.607039,-2.7846 -0.896128,-3.36407 -2.526196,-5.04419 -2.636527,-2.71758 -4.954993,-3.28836 -8.767922,-2.15605 -4.004368,1.18916 -6.763961,5.3195 -6.314134,9.45129 0.125128,1.14942 1.331814,6.21625 2.679156,11.25974 1.176588,4.40435 1.987921,7.46368 3.066561,11.51136 h -6.826432 c -1.28256,-7.68914 -5.082554,-14.91836 -12.362169,-23.56853 -1.890277,-2.24615 -3.608505,-4.53537 -3.817806,-5.08586 -0.611133,-1.60738 0.199897,-2.68145 3.530884,-4.67766 3.587286,-2.14977 6.917594,-5.49618 8.142484,-8.1814 1.308608,-2.8689 1.219695,-6.79572 -0.221758,-9.73098 -1.842153,-3.75117 -4.919356,-6.03367 -9.86493,-7.3152 -2.514085,-0.65143 -3.134761,-0.63739 -6.042596,0.12221 -1.346922,0.35178 -1.558653,0.28404 -2.591365,-0.80828 -0.618577,-0.65429 -2.134206,-1.87874 -3.367963,-2.72262 -1.884749,-1.2891 -2.745253,-1.59652 -5.382759,-1.92518 -1.156585,-0.14414 -2.099106,-0.20874 -2.972427,-0.19099 -0.87331,0.0177 -1.677423,0.1179 -2.558779,0.30322 -2.956609,0.62168 -3.850741,1.09316 -6.153929,3.24576 -2.5161353,1.7579 -2.5559303,2.06328 -4.2558843,6.5051 -1.506541,4.90959 0.07769,10.66388 3.9273273,14.26475 l 1.951445,1.82201 -0.255249,3.4485 c -0.595336,8.07122 2.085916,14.40276 11.342096,26.77263 3.101782,4.14523 5.893855,9.33149 6.263442,11.63896 0.774997,4.83881 -2.12573,8.21802 -12.420088,14.46749 -5.24353,3.18321 -7.032287,4.82497 -8.2130843,7.54059 -1.045486,2.40438 -1.232263,7.08623 -0.383769,9.60968 1.2220553,3.63444 3.9221143,6.21935 7.5794963,7.25636 4.156124,1.17839 10.814705,-0.24993 16.459646,-3.53087 5.14352,-2.98958 13.382172,-10.51603 16.513962,-15.0875 3.471946,-5.06801 5.148135,-9.9093 5.547499,-15.53102 h 8.734425 c 2.164312,8.11674 4.473479,16.77364 5.781929,21.71028 0.929939,3.50847 2.012926,7.00663 2.408529,7.77411 1.052149,2.04123 3.227663,3.95967 5.22256,4.60707 2.178811,0.70708 5.452165,0.44067 7.518852,-0.61366 2.810344,-1.43375 3.824865,-3.18767 6.227237,-10.77009 3.3362,-10.5296 5.21982,-16.59133 7.28261,-23.20277 h 15.645958 c -0.0341,2.69169 -0.0417,6.15358 -0.0417,10.8678 0,18.59818 0.008,18.82154 0.87074,20.35529 0.59737,1.06286 1.50706,1.87247 2.89096,2.57237 1.74418,0.88227 2.42759,1.00127 5.01076,0.88069 3.4815,-0.16256 5.58842,-1.03655 6.88345,-2.85205 0.86499,-1.21268 0.89403,-1.59937 1.08796,-14.20408 0.19424,-12.62527 0.22141,-12.95777 0.99835,-12.95777 0.64702,0 2.0369,2.4604 7.37494,13.04103 3.61813,7.17152 7.02767,13.51726 7.57587,14.10364 1.38049,1.47655 3.18557,2.1614 5.70861,2.1614 2.76858,0 4.45065,-0.58641 6.56033,-2.28544 2.49565,-2.00985 3.42257,-4.06947 3.1806,-7.06356 -0.18013,-2.22893 -0.63834,-3.18839 -6.01544,-12.57849 l -5.82085,-10.16724 1.28256,-0.98296 c 0.87394,-0.67007 1.6319,-1.38897 2.34246,-2.1415 h 9.29652 c 0.13821,3.80544 0.72961,7.57645 1.79847,10.68312 3.66503,10.65261 12.10578,19.36305 22.51673,23.23629 0.88571,0.32954 3.04653,0.92746 4.80077,1.32873 4.09319,0.9364 13.02391,0.8186 16.9439,-0.22173 3.59591,-0.95434 10.08622,-4.10875 13.00932,-6.3241 2.43496,-1.84539 4.71655,-4.15502 6.69609,-6.61824 h 8.41855 c -0.68721,2.79008 -0.629,4.16547 -0.006,6.26523 0.74186,2.49814 2.07427,4.14435 4.51655,5.58009 1.54052,0.90562 2.3215,1.08979 4.64329,1.08979 2.33511,0 3.09906,-0.1825 4.67948,-1.11155 2.42516,-1.42557 3.66515,-3.27304 4.9492,-7.3686 0.56835,-1.81275 1.1779,-3.38365 1.35316,-3.49191 0.17523,-0.10828 1.99408,1.10687 4.0423,2.69906 15.18179,11.80192 25.90685,18.84676 37.40417,24.57496 11.07507,5.51789 19.18037,8.18915 29.90161,9.85317 5.00177,0.77632 17.3683,0.44068 22.52669,-0.61092 8.42358,-1.71735 19.16235,-6.11538 26.1888,-10.72482 3.87533,-2.5422 4.50846,-3.48407 4.50846,-6.6916 0,-2.11365 -0.17541,-2.72608 -1.21201,-4.20244 -1.67071,-2.37967 -4.08546,-3.65141 -6.92235,-3.64764 -1.80004,0.005 -3.11605,0.38973 -6.8165,2.00755 -10.69124,4.67422 -21.6385,7.26273 -30.7678,7.27808 -3.88482,0.006 -9.40587,-0.50715 -11.22805,-1.04629 -1.39759,-0.41353 -0.82809,-1.46328 7.93791,-14.69288 2.99606,-4.52158 4.68105,-6.02001 8.52627,-7.57043 3.74345,-1.50942 4.00644,-1.37114 3.29735,1.72787 -0.23323,1.01921 -0.35401,1.92419 -0.2679,2.01029 0.3675,0.36748 3.92267,-3.01044 5.45336,-5.18094 1.44829,-2.05365 1.71813,-2.26812 2.07814,-1.65728 0.2275,0.38608 0.40957,2.35331 0.40461,4.37266 -0.01,3.64482 -0.005,3.66689 0.79559,2.99052 1.17381,-0.99131 1.90301,-2.02489 2.84665,-4.03688 l 0.83721,-1.78399 0.64715,0.98839 c 0.35662,0.54433 0.89112,2.05096 1.18571,3.3481 l 0.53495,2.35779 1.6989,-2.14781 c 0.93455,-1.1823 2.15413,-3.04869 2.71083,-4.14727 0.87893,-1.73446 0.98831,-2.3725 0.83001,-4.83971 l -0.18283,-2.84027 2.02928,-1.07073 c 1.92316,-1.01496 9.08101,-6.40548 9.31555,-7.01562 0.16217,-0.42199 -1.43196,-1.06283 -4.11743,-1.65456 l -2.37049,-0.52317 2.78863,-0.43539 c 2.50836,-0.39167 2.70251,-0.48414 1.9153,-0.91961 -0.48187,-0.26648 -1.82505,-0.73213 -2.98784,-1.03455 l -2.11528,-0.5503 1.59393,-0.27968 c 8.4241,-1.478 14.9211,-4.83065 20.00771,-10.32473 3.94739,-4.26362 5.39573,-9.19421 4.54828,-15.49116 -0.8292,-6.16149 -3.26816,-10.59705 -12.35223,-22.45612 -5.79925,-7.57089 -6.34364,-8.41566 -5.88145,-9.14446 10.34355,-20.29742 -3.44322,-36.20047 -39.0787,-14.06013 -1.82287,2.4663 -2.75478,2.48934 -4.60887,0.10952 -0.76508,-0.98201 -1.50595,-1.67018 -1.64732,-1.52875 -0.14135,0.14139 -0.25797,-0.0426 -0.25797,-0.40823 0,-0.36545 -0.18459,-0.66436 -0.41094,-0.66436 -0.22632,0 -0.54132,-0.33765 -0.69874,-0.75033 -0.56821,-1.48986 -6.3244,-5.77397 -8.25926,-6.14669 -0.6578,-0.12676 -2.81003,-0.61163 -4.78357,-1.07982 -4.22082,-1.00133 -10.80366,-1.13303 -18.96684,-0.37742 -7.28284,0.67409 -13.30589,0.325 -17.248,-1.00016 -3.54848,-1.1929 -6.34706,-2.44988 -9.23677,-4.14457 z" />
    <g
       gcodetools="Gcodetools tool definition"
       transform="translate(1685.627,349.54238)"
       id="g703" />
  </g>
  <g
     id="g1428" />
  <g
     id="g2912" />
</svg>
