<?xml version="1.0" encoding="UTF-8" standalone="no"?>
<!-- Created with Inkscape (http://www.inkscape.org/) -->

<svg
   width="400mm"
   height="400mm"
   viewBox="0 0 400 400"
   version="1.1"
   id="svg5"
   inkscape:version="1.1.2 (b8e25be8, 2022-02-05)"
   sodipodi:docname="ivana psy.svg"
   xmlns:inkscape="http://www.inkscape.org/namespaces/inkscape"
   xmlns:sodipodi="http://sodipodi.sourceforge.net/DTD/sodipodi-0.dtd"
   xmlns="http://www.w3.org/2000/svg"
   xmlns:svg="http://www.w3.org/2000/svg">
  <sodipodi:namedview
     id="namedview7"
     pagecolor="#ffffff"
     bordercolor="#666666"
     borderopacity="1.0"
     inkscape:pageshadow="2"
     inkscape:pageopacity="0.0"
     inkscape:pagecheckerboard="0"
     inkscape:document-units="mm"
     showgrid="false"
     inkscape:zoom="0.83972969"
     inkscape:cx="734.76025"
     inkscape:cy="602.57486"
     inkscape:window-width="2319"
     inkscape:window-height="1108"
     inkscape:window-x="1996"
     inkscape:window-y="190"
     inkscape:window-maximized="0"
     inkscape:current-layer="layer1" />
  <defs
     id="defs2">
    <rect
       x="155.58406"
       y="374.17323"
       width="1226.671"
       height="513.04164"
       id="rect2212" />
    <rect
       x="155.58406"
       y="374.17322"
       width="1226.671"
       height="513.04163"
       id="rect2212-4" />
  </defs>
  <g
     inkscape:label="Layer 1"
     inkscape:groupmode="layer"
     id="layer1">
    <g
       aria-label="Ivana"
       transform="matrix(3.2424858,0,0,3.2424858,-472.02456,-964.65415)"
       id="text2210"
       style="font-size:40px;line-height:1.25;white-space:pre;shape-inside:url(#rect2212)">
      <path
         id="path916"
         style="font-family:Luminari;-inkscape-font-specification:'Luminari, Normal';stroke-width:12.2551"
         d="M 140.30859 1032.8887 C 138.34778 1032.8887 136.55002 1033.5424 134.91602 1034.8496 C 133.28201 1035.83 132.4668 1037.9527 132.4668 1041.2207 C 132.4668 1044.1619 133.28201 1045.9597 134.91602 1046.6133 C 136.55002 1046.9401 138.51122 1047.2669 140.79883 1047.5938 C 143.74004 1047.9206 148.47959 1047.9206 155.01562 1047.5938 C 161.55166 1047.2669 167.26985 1047.4304 172.17188 1048.084 C 179.03471 1048.7376 183.77426 1050.8622 186.38867 1054.457 C 189.00309 1057.725 190.47398 1064.5873 190.80078 1075.0449 L 190.80078 1084.8496 C 191.12758 1089.098 191.29102 1095.3065 191.29102 1103.4766 C 191.61782 1111.6466 191.78125 1122.1043 191.78125 1134.8496 C 192.10805 1147.2681 192.27148 1162.7922 192.27148 1181.4199 C 192.27148 1198.4136 191.78119 1216.8776 190.80078 1236.8125 C 189.82038 1256.7474 188.51291 1275.8651 186.87891 1294.166 C 185.2449 1312.1401 183.28371 1327.9892 180.99609 1341.7148 C 179.03528 1355.1137 177.07409 1363.7737 175.11328 1367.6953 C 173.47927 1370.3097 168.57825 1372.4344 160.4082 1374.0684 C 152.23816 1375.7024 141.29013 1376.5195 127.56445 1376.5195 C 125.27684 1376.5195 123.47908 1377.3367 122.17188 1378.9707 C 120.86467 1380.2779 120.21094 1381.5854 120.21094 1382.8926 C 120.21094 1384.5266 120.86467 1386.1609 122.17188 1387.7949 C 123.15228 1389.7557 124.45974 1390.7363 126.09375 1390.7363 L 133.9375 1389.7559 C 137.20552 1389.4291 141.77968 1388.9388 147.66211 1388.2852 C 153.87134 1387.9584 160.4067 1387.6315 167.26953 1387.3047 C 174.13237 1387.3047 181.15997 1387.1413 188.34961 1386.8145 L 207.95703 1386.8145 L 210.89844 1386.8145 C 226.25812 1386.8145 239.16735 1386.9779 249.625 1387.3047 C 260.08265 1387.6315 268.74263 1387.9584 275.60547 1388.2852 C 282.4683 1388.9388 287.85963 1389.4291 291.78125 1389.7559 C 295.70287 1390.0827 298.64466 1390.2461 300.60547 1390.2461 C 303.21988 1390.2461 305.67137 1389.5924 307.95898 1388.2852 C 310.5734 1386.9779 311.88086 1384.8533 311.88086 1381.9121 C 311.88086 1379.2977 311.39056 1377.6634 310.41016 1377.0098 C 309.42975 1376.3562 307.14169 1376.0293 303.54688 1376.0293 C 299.29845 1376.0293 294.55891 1375.8659 289.33008 1375.5391 C 284.42805 1375.2123 279.52703 1374.722 274.625 1374.0684 C 269.72297 1373.088 265.47373 1372.2708 261.87891 1371.6172 C 258.28409 1370.6368 255.8326 1369.6562 254.52539 1368.6758 C 252.56458 1367.0418 251.09564 1360.6699 250.11523 1349.5586 C 249.13483 1338.4473 248.31767 1325.3747 247.66406 1310.3418 C 247.33726 1294.9821 247.17383 1279.1331 247.17383 1262.793 C 247.50063 1246.1261 247.8275 1231.5825 248.1543 1219.1641 C 248.46805 1203.4762 249.08573 1186.4185 250.00195 1168.0195 L 317.59375 1168.0195 C 314.8083 1169.7635 312.18266 1171.4551 309.73633 1173.0859 C 303.8539 1177.0076 300.74868 1179.1322 300.42188 1179.459 C 299.76824 1180.1126 300.09514 1181.2566 301.40234 1182.8906 C 302.38275 1184.1978 303.19991 1184.8516 303.85352 1184.8516 C 305.48752 1184.198 307.28528 1183.5442 309.24609 1182.8906 C 310.8801 1182.237 312.67591 1181.9102 314.63672 1181.9102 C 321.49955 1181.9102 328.85402 1187.4649 336.69727 1198.5762 C 344.86731 1209.3606 354.67128 1228.4783 366.10938 1255.9297 C 370.3578 1265.7337 374.60509 1276.3549 378.85352 1287.793 C 383.42874 1298.9042 387.84142 1310.1791 392.08984 1321.6172 C 396.33827 1333.0552 400.2587 1344.3301 403.85352 1355.4414 C 407.77514 1366.5527 411.20722 1376.6835 414.14844 1385.834 C 414.80204 1387.7948 415.45574 1389.1023 416.10938 1389.7559 C 417.08978 1390.7363 418.88754 1391.2266 421.50195 1391.2266 C 427.71119 1391.2266 431.30475 1390.5728 432.28516 1389.2656 C 436.86038 1382.076 443.56112 1371.9451 452.38477 1358.873 C 461.53521 1345.801 471.50265 1331.5843 482.28711 1316.2246 C 493.07157 1300.5381 504.0196 1284.3622 515.13086 1267.6953 C 526.56892 1251.0284 536.86322 1235.3408 546.01367 1220.6348 C 555.49092 1205.6019 563.1703 1192.5312 569.05273 1181.4199 C 569.16955 1181.2109 569.27796 1181.0114 569.39258 1180.8047 L 601.14844 1180.8047 C 598.8519 1182.0137 596.66412 1183.2011 594.61133 1184.3613 C 593.95772 1185.6685 593.63086 1187.6278 593.63086 1190.2422 C 593.63086 1194.8174 595.59205 1198.7398 599.51367 1202.0078 C 603.43529 1205.2758 607.68454 1206.9102 612.25977 1206.9102 C 614.87418 1206.9102 616.34504 1205.6027 616.67188 1202.9883 C 616.99868 1201.0275 618.30614 1198.2491 620.59375 1194.6543 C 623.20816 1191.0595 626.6383 1187.4659 630.88672 1183.8711 C 635.46194 1180.2763 640.69179 1177.1711 646.57422 1174.5566 C 652.78345 1171.9422 659.48221 1170.6348 666.67188 1170.6348 C 674.84192 1170.6348 681.70414 1172.1057 687.25977 1175.0469 C 692.81539 1177.6613 697.55494 1181.7452 701.47656 1187.3008 C 705.39818 1192.5296 708.66684 1199.2303 711.28125 1207.4004 C 713.89566 1215.2436 716.18177 1224.2305 718.14258 1234.3613 C 713.56735 1237.3025 706.21484 1241.3864 696.08398 1246.6152 C 686.27993 1251.5173 675.49533 1256.7471 663.73047 1262.3027 C 652.29241 1267.8584 641.01751 1273.4128 629.90625 1278.9688 C 618.79499 1284.1976 610.13501 1288.4468 603.92578 1291.7148 C 590.52691 1298.9045 580.55947 1305.9301 574.02344 1312.793 C 567.8142 1319.329 564.70898 1327.8255 564.70898 1338.2832 C 564.70898 1344.8192 565.68958 1351.1931 567.65039 1357.4023 C 569.938 1363.2848 573.20666 1368.5127 577.45508 1373.0879 C 582.0303 1377.6631 587.58506 1381.4221 594.12109 1384.3633 C 600.65713 1386.9777 608.33846 1388.2852 617.16211 1388.2852 C 627.61976 1388.2852 638.40437 1386.324 649.51562 1382.4023 C 660.95372 1378.1539 672.0632 1373.0875 682.84766 1367.2051 C 693.63211 1361.3226 703.59955 1355.1142 712.75 1348.5781 C 721.16506 1342.2669 727.83687 1337.0025 733.48828 1332.3496 L 729.33203 1319.3398 C 728.06765 1320.8234 726.65635 1322.4179 724.51562 1324.5586 C 722.88162 1326.1926 719.93983 1328.4807 715.69141 1331.4219 C 711.44298 1334.3631 706.37852 1337.3029 700.49609 1340.2441 C 694.94046 1343.1854 688.73198 1345.8003 681.86914 1348.0879 C 675.33311 1350.3755 668.95923 1351.5195 662.75 1351.5195 C 650.98514 1351.5195 642.32516 1347.924 636.76953 1340.7344 C 631.2139 1333.5447 628.43555 1325.2116 628.43555 1315.7344 C 628.43555 1308.8715 630.39674 1302.9899 634.31836 1298.0879 C 638.23998 1293.1859 643.96012 1288.2829 651.47656 1283.3809 C 655.39818 1280.7664 660.29921 1277.99 666.18164 1275.0488 C 672.06407 1271.7808 678.27256 1268.6756 684.80859 1265.7344 C 691.34463 1262.4664 697.88193 1259.5246 704.41797 1256.9102 C 710.954 1254.2957 716.83563 1252.0077 722.06445 1250.0469 C 722.39125 1251.3541 722.88155 1254.1324 723.53516 1258.3809 C 724.51556 1262.6293 725.49616 1267.6957 726.47656 1273.5781 C 727.45697 1279.4606 728.43756 1285.669 729.41797 1292.2051 C 730.39837 1298.7411 731.37894 1304.7862 732.35938 1310.3418 C 732.68618 1313.6098 732.03245 1316.2247 730.39844 1318.1855 C 730.28491 1318.3275 730.01011 1318.589 729.88672 1318.7383 L 734.08789 1331.8809 C 734.41375 1331.6115 734.98438 1331.1953 735.30078 1330.9316 C 736.60799 1339.1017 738.07888 1346.9445 739.71289 1354.4609 C 741.3469 1361.9774 743.30614 1368.6762 745.59375 1374.5586 C 747.88136 1380.1142 750.49628 1384.5269 753.4375 1387.7949 C 756.70552 1391.3897 760.46447 1393.1875 764.71289 1393.1875 C 768.30771 1393.1875 773.20874 1392.0435 779.41797 1389.7559 C 785.6272 1387.4682 792.32794 1384.5265 799.51758 1380.9316 C 807.03402 1377.3368 814.54997 1373.5782 822.06641 1369.6562 C 829.58285 1365.4078 836.44506 1361.4874 842.6543 1357.8926 C 848.86353 1354.2978 854.09337 1351.1925 858.3418 1348.5781 C 862.59022 1345.9637 865.03976 1344.3294 865.69336 1343.6758 C 866.27923 1342.504 866.6014 1341.1999 866.66211 1339.7656 L 867.91797 1339.7656 C 867.631 1343.1113 867.34361 1346.4019 867.05664 1349.5586 C 866.40304 1356.4214 865.75126 1362.1396 865.09766 1366.7148 C 864.44405 1369.9829 863.95375 1372.9246 863.62695 1375.5391 C 863.30015 1377.8267 862.80985 1379.7879 862.15625 1381.4219 C 861.50265 1382.7291 861.01235 1383.5462 860.68555 1383.873 C 860.35875 1384.1998 860.19531 1385.1804 860.19531 1386.8145 C 860.19531 1388.4485 861.50277 1389.7559 864.11719 1390.7363 C 866.7316 1392.0435 870.32517 1392.6973 874.90039 1392.6973 C 880.12922 1392.6973 886.50309 1391.5532 894.01953 1389.2656 C 901.86277 1386.978 909.37872 1384.3631 916.56836 1381.4219 C 923.758 1378.4807 930.12992 1375.5389 935.68555 1372.5977 C 941.56798 1369.3296 945.49036 1366.8801 947.45117 1365.2461 C 948.10478 1364.5925 948.10478 1363.4485 947.45117 1361.8145 C 947.12437 1359.8536 946.63407 1358.873 945.98047 1358.873 C 943.36606 1359.5267 940.91457 1359.8535 938.62695 1359.8535 C 935.03213 1359.8535 931.92691 1359.0364 929.3125 1357.4023 C 927.02489 1355.7683 925.06565 1352.8265 923.43164 1348.5781 C 921.79763 1344.0029 920.49017 1337.9578 919.50977 1330.4414 C 918.85616 1322.925 918.5293 1313.2844 918.5293 1301.5195 L 918.5293 1284.3613 C 918.8561 1279.7861 919.01953 1276.0291 919.01953 1273.0879 C 919.34633 1270.1467 919.6732 1267.5318 920 1265.2441 C 920.3268 1262.9565 920.65367 1260.3416 920.98047 1257.4004 C 921.96087 1247.5963 924.08355 1238.4461 927.35156 1229.9492 C 930.61958 1221.1256 935.03226 1213.4462 940.58789 1206.9102 C 946.14352 1200.0473 952.84231 1194.654 960.68555 1190.7324 C 968.52879 1186.8108 977.51563 1184.8516 987.64648 1184.8516 C 1003.6598 1184.8516 1016.8959 1192.3675 1027.3535 1207.4004 C 1038.138 1222.1065 1043.5315 1243.8391 1043.5312 1272.5977 C 1043.5312 1287.3037 1042.8775 1301.0282 1041.5703 1313.7734 C 1040.5899 1326.5187 1039.4459 1337.6302 1038.1387 1347.1074 C 1036.8315 1355.9311 1035.6874 1362.303 1034.707 1366.2246 C 1034.0534 1370.1462 1033.7266 1373.4149 1033.7266 1376.0293 C 1033.7266 1379.9509 1035.034 1383.7099 1037.6484 1387.3047 C 1040.5897 1390.8995 1045.8175 1392.6973 1053.334 1392.6973 C 1059.5432 1392.6973 1067.8763 1390.7361 1078.334 1386.8145 C 1088.7916 1383.2196 1099.2494 1379.1338 1109.707 1374.5586 C 1120.4915 1369.6566 1130.1321 1364.919 1138.6289 1360.3438 C 1141.4049 1358.9042 1141.8658 1358.5624 1144.0273 1357.4141 C 1146.3147 1363.2915 1149.5806 1368.5159 1153.8262 1373.0879 C 1158.4014 1377.6631 1163.9562 1381.4221 1170.4922 1384.3633 C 1177.0282 1386.9777 1184.7096 1388.2852 1193.5332 1388.2852 C 1203.9909 1388.2852 1214.7755 1386.324 1225.8867 1382.4023 C 1237.3248 1378.1539 1248.4341 1373.0875 1259.2188 1367.2051 C 1270.0032 1361.3226 1279.9706 1355.1142 1289.1211 1348.5781 C 1297.0158 1342.6571 1303.6883 1337.4693 1309.1504 1333.0078 L 1306.8867 1318.0352 C 1306.8471 1318.0849 1306.8103 1318.1366 1306.7695 1318.1855 C 1305.4623 1319.8196 1303.5011 1321.9442 1300.8867 1324.5586 C 1299.2527 1326.1926 1296.3109 1328.4807 1292.0625 1331.4219 C 1287.8141 1334.3631 1282.7496 1337.3029 1276.8672 1340.2441 C 1271.3116 1343.1854 1265.1011 1345.8003 1258.2383 1348.0879 C 1251.7022 1350.3755 1245.3303 1351.5195 1239.1211 1351.5195 C 1227.3562 1351.5195 1218.6963 1347.924 1213.1406 1340.7344 C 1207.585 1333.5447 1204.8066 1325.2116 1204.8066 1315.7344 C 1204.8066 1308.8715 1206.7678 1302.9899 1210.6895 1298.0879 C 1214.6111 1293.1859 1220.3293 1288.2829 1227.8457 1283.3809 C 1231.7673 1280.7664 1236.6703 1277.99 1242.5527 1275.0488 C 1248.4352 1271.7808 1254.6437 1268.6756 1261.1797 1265.7344 C 1267.7157 1262.4664 1274.253 1259.5246 1280.7891 1256.9102 C 1287.3251 1254.2957 1293.2067 1252.0077 1298.4355 1250.0469 C 1298.7623 1251.3541 1299.2526 1254.1324 1299.9062 1258.3809 C 1300.8869 1262.6293 1301.8673 1267.6957 1302.8477 1273.5781 C 1303.8281 1279.4606 1304.8087 1285.669 1305.7891 1292.2051 C 1306.7695 1298.7411 1307.7501 1304.7862 1308.7305 1310.3418 C 1309.018 1313.2176 1308.5453 1315.5876 1307.3145 1317.4512 L 1309.6074 1332.6328 C 1310.3138 1332.0539 1311.0072 1331.4855 1311.6719 1330.9316 C 1312.9791 1339.1017 1314.45 1346.9445 1316.084 1354.4609 C 1317.718 1361.9774 1319.6772 1368.6762 1321.9648 1374.5586 C 1324.2525 1380.1142 1326.8674 1384.5269 1329.8086 1387.7949 C 1333.0766 1391.3897 1336.8356 1393.1875 1341.084 1393.1875 C 1344.6788 1393.1875 1349.5798 1392.0435 1355.7891 1389.7559 C 1361.9983 1387.4682 1368.699 1384.5265 1375.8887 1380.9316 C 1383.4051 1377.3368 1390.9211 1373.5781 1398.4375 1369.6562 C 1405.9539 1365.4078 1412.8162 1361.4874 1419.0254 1357.8926 C 1425.2346 1354.2978 1430.4645 1351.1925 1434.7129 1348.5781 C 1438.9613 1345.9637 1441.4108 1344.3294 1442.0645 1343.6758 C 1442.7181 1342.3686 1443.0449 1340.8977 1443.0449 1339.2637 C 1442.3913 1336.3225 1440.5955 1334.8535 1437.6543 1334.8535 C 1436.6739 1335.5071 1434.5495 1336.8126 1431.2812 1338.7734 C 1428.34 1340.4074 1424.9079 1342.2052 1420.9863 1344.166 C 1417.0647 1345.8 1412.9789 1347.2709 1408.7305 1348.5781 C 1404.482 1349.8853 1400.5616 1350.5391 1396.9668 1350.5391 C 1389.4504 1350.5391 1383.0765 1346.9435 1377.8477 1339.7539 C 1372.9456 1332.2375 1368.8618 1322.5969 1365.5938 1310.832 C 1362.3255 1298.7404 1359.8742 1285.0161 1358.2402 1269.6562 C 1356.6062 1253.9698 1355.2988 1237.7919 1354.3184 1221.125 C 1353.6648 1210.0137 1352.8476 1199.7194 1351.8672 1190.2422 C 1351.2136 1180.4381 1349.0909 1171.9416 1345.4961 1164.752 C 1341.9013 1157.5623 1336.3446 1152.0076 1328.8281 1148.0859 C 1321.6385 1144.1643 1311.1808 1142.2031 1297.4551 1142.2031 C 1288.3046 1142.2031 1278.0103 1143.674 1266.5723 1146.6152 C 1255.1342 1149.2296 1243.5324 1152.6598 1231.7676 1156.9082 C 1220.3295 1161.1566 1209.2181 1165.7327 1198.4336 1170.6348 C 1187.6491 1175.5368 1178.4989 1180.1129 1170.9824 1184.3613 C 1170.3288 1185.6685 1170.002 1187.6278 1170.002 1190.2422 C 1170.002 1194.8174 1171.9631 1198.7398 1175.8848 1202.0078 C 1179.8064 1205.2758 1184.0556 1206.9102 1188.6309 1206.9102 C 1191.2453 1206.9102 1192.7162 1205.6027 1193.043 1202.9883 C 1193.3698 1201.0275 1194.6753 1198.2491 1196.9629 1194.6543 C 1199.5773 1191.0595 1203.0094 1187.4659 1207.2578 1183.8711 C 1211.833 1180.2763 1217.0629 1177.1711 1222.9453 1174.5566 C 1229.1545 1171.9422 1235.8533 1170.6348 1243.043 1170.6348 C 1251.213 1170.6348 1258.0752 1172.1057 1263.6309 1175.0469 C 1269.1865 1177.6613 1273.926 1181.7452 1277.8477 1187.3008 C 1281.7693 1192.5296 1285.036 1199.2303 1287.6504 1207.4004 C 1290.2648 1215.2436 1292.5529 1224.2305 1294.5137 1234.3613 C 1289.9384 1237.3025 1282.5859 1241.3864 1272.4551 1246.6152 C 1262.651 1251.5173 1251.8664 1256.7471 1240.1016 1262.3027 C 1228.6635 1267.8584 1217.3886 1273.4129 1206.2773 1278.9688 C 1195.1661 1284.1976 1186.5061 1288.4468 1180.2969 1291.7148 C 1166.898 1298.9045 1156.9306 1305.9301 1150.3945 1312.793 C 1144.1853 1319.329 1141.0801 1327.8255 1141.0801 1338.2832 C 1141.0801 1341.6459 1141.3501 1344.9637 1141.8691 1348.2402 C 1140.426 1348.8553 1139.2562 1349.3789 1137.6484 1350.0488 C 1134.0536 1351.356 1130.1332 1352.6635 1125.8848 1353.9707 C 1121.9631 1354.9511 1118.3676 1355.4414 1115.0996 1355.4414 C 1098.1059 1355.4414 1089.6094 1342.3687 1089.6094 1316.2246 C 1089.6094 1309.035 1089.9362 1300.8653 1090.5898 1291.7148 C 1091.5702 1282.5644 1092.5508 1273.2507 1093.5312 1263.7734 C 1094.512 1254.2962 1095.3288 1245.1459 1095.9824 1236.3223 C 1096.9628 1227.4986 1097.4531 1219.8192 1097.4531 1213.2832 C 1097.4531 1188.7731 1091.0793 1170.9609 1078.334 1159.8496 C 1065.9155 1148.4115 1049.903 1142.6934 1030.2949 1142.6934 C 1019.5105 1142.6934 1009.0527 1144.4911 998.92188 1148.0859 C 988.79099 1151.6808 979.15045 1156.4184 970 1162.3008 C 960.84955 1167.8564 952.35301 1174.0669 944.50977 1180.9297 C 936.66652 1187.7925 929.31401 1194.4913 922.45117 1201.0273 C 922.45117 1199.7201 922.6146 1197.1052 922.94141 1193.1836 C 923.26821 1189.262 923.43164 1185.1781 923.43164 1180.9297 C 923.75844 1176.3545 924.08531 1171.9418 924.41211 1167.6934 C 924.73891 1163.4449 924.90234 1160.5031 924.90234 1158.8691 C 924.90234 1148.0847 920.1628 1142.6934 910.68555 1142.6934 C 907.09073 1142.6934 901.86284 1144.0008 895 1146.6152 C 888.46397 1149.2296 881.43636 1152.3329 873.91992 1155.9277 C 866.40348 1159.5226 859.05097 1163.4449 851.86133 1167.6934 C 844.67169 1171.9418 838.9535 1175.5373 834.70508 1178.4785 C 832.09066 1180.1125 830.45634 1181.2566 829.80273 1181.9102 C 829.47593 1182.237 829.3125 1182.7273 829.3125 1183.3809 C 829.3125 1186.3221 829.96623 1187.791 831.27344 1187.791 C 832.90745 1187.4642 834.53982 1187.3008 836.17383 1187.3008 L 841.07617 1187.3008 C 844.34419 1187.3008 847.61284 1188.2814 850.88086 1190.2422 C 854.47568 1192.203 857.5809 1195.3082 860.19531 1199.5566 C 863.13653 1203.4783 865.42263 1208.8696 867.05664 1215.7324 C 869.01745 1222.2685 870.16148 1230.2767 870.48828 1239.7539 C 870.81508 1248.2508 870.97852 1255.2764 870.97852 1260.832 C 871.30532 1266.0609 871.46875 1270.4735 871.46875 1274.0684 C 871.46875 1282.5652 871.14188 1291.3886 870.48828 1300.5391 C 870.16148 1309.3627 869.67118 1318.0227 869.01758 1326.5195 C 868.67115 1330.8499 868.32495 1335.0212 867.97852 1339.0762 L 866.62695 1339.0762 C 865.93856 1336.2627 864.15982 1334.8535 861.2832 1334.8535 C 860.3028 1335.5071 858.17817 1336.8126 854.91016 1338.7734 C 851.96894 1340.4074 848.53685 1342.2052 844.61523 1344.166 C 840.69361 1345.8 836.60975 1347.2709 832.36133 1348.5781 C 828.11291 1349.8853 824.19052 1350.5391 820.5957 1350.5391 C 813.07926 1350.5391 806.70734 1346.9435 801.47852 1339.7539 C 796.57649 1332.2375 792.49067 1322.5969 789.22266 1310.832 C 785.95464 1298.7404 783.50315 1285.0162 781.86914 1269.6562 C 780.23513 1253.9698 778.92767 1237.7919 777.94727 1221.125 C 777.29366 1210.0137 776.4765 1199.7194 775.49609 1190.2422 C 774.84249 1180.4381 772.71982 1171.9416 769.125 1164.752 C 765.53018 1157.5623 759.97347 1152.0076 752.45703 1148.0859 C 745.26739 1144.1643 734.80966 1142.2031 721.08398 1142.2031 C 711.93354 1142.2031 701.63923 1143.674 690.20117 1146.6152 C 678.76311 1149.2296 667.16135 1152.6598 655.39648 1156.9082 C 643.95842 1161.1566 632.84696 1165.7327 622.0625 1170.6348 C 614.7811 1173.9445 608.26429 1177.1015 602.47266 1180.1133 L 569.77344 1180.1133 C 575.49654 1169.6965 578.36719 1162.2811 578.36719 1157.8887 C 578.36719 1147.7578 570.68585 1142.6934 555.32617 1142.6934 C 544.54172 1142.6934 534.08401 1143.3471 523.95312 1144.6543 C 514.14907 1145.6347 505.32566 1146.9422 497.48242 1148.5762 C 489.96598 1150.2102 483.92093 1152.0076 479.3457 1153.9688 C 475.09728 1155.9296 472.97266 1157.5619 472.97266 1158.8691 C 472.97266 1159.5227 473.46295 1160.5033 474.44336 1161.8105 C 475.75057 1162.791 477.38489 1162.9544 479.3457 1162.3008 C 481.30651 1161.6472 483.26771 1161.1569 485.22852 1160.8301 C 487.18933 1160.5033 489.15052 1160.3398 491.11133 1160.3398 C 494.70615 1160.3398 498.13628 1160.6667 501.4043 1161.3203 C 504.67231 1161.9739 507.45067 1163.1179 509.73828 1164.752 C 512.35269 1166.386 514.31389 1168.8375 515.62109 1172.1055 C 516.9283 1175.0467 517.58203 1179.1325 517.58203 1184.3613 C 517.58203 1191.2242 516.11114 1199.3938 513.16992 1208.8711 C 510.55551 1218.0215 507.12342 1227.8255 502.875 1238.2832 C 498.62658 1248.7409 493.88898 1259.1986 488.66016 1269.6562 C 483.75813 1279.7874 478.85518 1289.2642 473.95312 1298.0879 C 469.3779 1306.9115 465.1306 1314.4275 461.20898 1320.6367 C 457.61417 1326.5191 455.16268 1330.4415 453.85547 1332.4023 L 416.10938 1219.6543 C 407.6125 1195.1442 400.26001 1176.0265 394.05078 1162.3008 C 387.84155 1148.2483 380.97738 1141.2227 373.46094 1141.2227 C 368.55891 1141.2227 362.02356 1143.1838 353.85352 1147.1055 C 346.01027 1151.0271 338.16746 1155.4378 330.32422 1160.3398 C 326.17302 1162.7614 322.30508 1165.0897 318.70312 1167.3281 L 250.03711 1167.3281 C 250.06391 1166.7934 250.08793 1166.2694 250.11523 1165.7324 C 251.09564 1146.4511 252.07624 1128.4774 253.05664 1111.8105 C 254.36385 1095.1437 255.66936 1081.2538 256.97656 1070.1426 C 258.61057 1058.7045 260.2449 1052.6595 261.87891 1052.0059 L 267.76172 1050.5352 C 270.37613 1049.8816 273.15449 1049.3913 276.0957 1049.0645 L 285.89844 1048.084 C 289.16645 1047.7572 292.10824 1047.5938 294.72266 1047.5938 C 302.2391 1046.9401 305.99805 1043.8349 305.99805 1038.2793 C 305.99805 1035.6649 304.85402 1034.1959 302.56641 1033.8691 C 300.6056 1033.2155 298.48097 1032.8887 296.19336 1032.8887 C 291.61814 1033.5423 283.12159 1034.3575 270.70312 1035.3379 C 258.61146 1035.9915 243.90448 1036.3184 226.58398 1036.3184 C 200.11305 1036.3184 179.68787 1035.83 165.30859 1034.8496 C 151.25612 1033.5424 142.92301 1032.8887 140.30859 1032.8887 z "
         transform="matrix(0.08159892,0,0,0.08159892,145.5749,297.50451)" />
    </g>
    <g
       aria-label="Psychologist"
       transform="matrix(3.7170732,0,0,3.7170732,-547.81509,-1416.8035)"
       id="text2210-4"
       style="font-size:40px;line-height:1.25;white-space:pre;shape-inside:url(#rect2212-4)">
      <path
         id="path1917"
         style="font-size:15.3415px;font-family:Luminari;-inkscape-font-specification:'Luminari, Normal';stroke-width:14.0488"
         d="m 652.54492,287.71094 c -0.17511,0.002 -0.37041,0.0161 -0.58594,0.043 -0.86212,0.28659 -2.65861,0.71595 -5.38867,1.29101 -2.58628,0.57507 -5.45993,1.00739 -8.62109,1.29492 -3.73576,0.28754 -7.83085,0.50319 -12.28516,0.64649 -4.4543,0.1433 -8.76477,0.21484 -12.93164,0.21484 -2.15527,0 -3.87864,0.64635 -5.17187,1.93945 -1.29315,1.29315 -1.93946,2.94534 -1.93946,4.95704 0,0.28753 0.28627,0.43164 0.86133,0.43164 0.71789,-0.1433 1.5085,-0.1433 2.3711,0 1.00579,0.14329 2.01177,0.50111 3.01757,1.07617 1.14957,0.43102 2.08438,1.29475 2.80274,2.58789 0.57497,1.0058 1.07698,2.15407 1.50781,3.44726 0.43177,1.14948 0.86409,3.59228 1.29492,7.32813 0.28753,3.0174 0.5738,8.11838 0.86133,15.30273 0.42356,7.06303 0.63738,15.66291 0.64453,25.78125 h -17.73437 c -0.31165,-0.55228 -0.95758,-1.17149 -1.9375,-1.85742 -1.29315,-1.00626 -3.23198,-1.93912 -5.81836,-2.80078 -2.44262,-1.00542 -5.46056,-1.79603 -9.05274,-2.37109 -3.4485,-0.71836 -7.3993,-1.07813 -11.85351,-1.07813 -5.46011,0 -11.78244,1.00598 -18.9668,3.01758 -7.18426,2.0116 -14.0087,5.38921 -20.47461,10.13086 -6.30086,4.5825 -11.67551,10.7347 -16.12109,18.45703 h -20.94922 c 2.49924,-4.42598 4.71787,-8.57037 6.64453,-12.42383 2.87326,-5.60377 4.74092,-10.12971 5.60352,-13.57812 0,-1.72426 -0.78866,-3.2342 -2.36915,-4.52735 -1.58054,-1.29323 -4.02338,-1.93945 -7.32812,-1.93945 -1.58058,0 -4.38305,0.28822 -8.40625,0.86328 -4.0232,0.43111 -8.11819,1.0043 -12.28516,1.72266 -4.16686,0.71892 -7.83111,1.50943 -10.99218,2.37109 -3.16117,0.86213 -4.74219,1.65274 -4.74219,2.3711 0,0.71873 0.28822,1.29378 0.86328,1.72461 0.57506,0.28753 1.00544,0.43164 1.29297,0.43164 1.29314,-0.28754 2.44342,-0.43164 3.44922,-0.43164 1.14947,-0.14424 2.65746,-0.2168 4.52539,-0.2168 2.44271,0 4.67004,0.93481 6.68164,2.80273 2.0116,1.72426 3.01758,4.66907 3.01758,8.83594 0,4.02329 -1.00598,8.98193 -3.01758,14.87305 -1.86793,5.89112 -4.16643,11.85388 -6.89649,17.88867 -2.73005,6.03489 -5.60369,11.70905 -8.62109,17.02539 -2.87372,5.31643 -5.24535,9.41143 -7.11328,12.28516 -2.0116,-5.31644 -4.1659,-11.06372 -6.46484,-17.24219 -2.15537,-6.17856 -4.38274,-12.28552 -6.68164,-18.32031 -2.29895,-6.17856 -4.59745,-12.06819 -6.89649,-17.67188 -2.29894,-5.60378 -4.52637,-10.56241 -6.68164,-14.87305 -2.01169,-4.45421 -4.02356,-7.97416 -6.03516,-10.56054 -1.86792,-2.58638 -3.52021,-3.87891 -4.95703,-3.87891 -1.43691,0 -3.80854,0.79055 -7.11328,2.37109 -3.16107,1.58059 -6.46555,3.37708 -9.91406,5.38868 -3.44851,1.86792 -6.6087,3.66256 -9.48242,5.38672 -1.99468,1.26017 -3.39998,2.16695 -4.24414,2.73632 h -11.96289 c 0.55019,-0.76823 1.08353,-1.53646 1.5957,-2.30468 1.72444,-2.73006 2.80159,-4.74192 3.23242,-6.03516 0.43083,-1.14947 0.50433,-1.72461 0.2168,-1.72461 -1.14947,-0.43073 -2.94597,-0.93275 -5.38867,-1.50781 -2.29895,-0.71808 -4.88605,-1.36439 -7.75977,-1.93946 -2.73005,-0.7186 -5.53253,-1.29378 -8.40625,-1.7246 -2.87372,-0.43083 -5.3877,-0.64649 -7.54297,-0.64649 -7.18436,0 -14.08192,1.15018 -20.69141,3.44922 -6.60953,2.29894 -12.49911,5.24376 -17.67187,8.83594 -5.029,3.59218 -9.12409,7.68727 -12.28516,12.28515 -0.32581,0.49648 -0.63319,0.99153 -0.92382,1.48633 h -22.66993 c 2.23088,-3.10438 4.23507,-6.40042 6.00977,-9.89258 4.45421,-8.90852 6.67969,-18.96629 6.67969,-30.17382 0,-13.21906 -5.09914,-23.56541 -15.30078,-31.03711 -10.20176,-7.61538 -24.28336,-11.42383 -42.24414,-11.42383 -4.74166,0 -9.34071,0.50396 -13.79493,1.50976 -4.31063,0.86213 -8.19016,1.86811 -11.63867,3.01758 -3.30474,1.14947 -6.10535,2.22662 -8.4043,3.23242 -2.15498,0.8626 -3.52064,1.29493 -4.0957,1.29493 0.14367,0.28753 -0.71801,0.42968 -2.58594,0.42968 h -6.89843 -9.48243 c -3.4485,-0.14423 -6.82416,-0.28639 -10.1289,-0.42968 -3.16116,-0.1433 -5.96364,-0.2168 -8.40625,-0.2168 -2.4428,0 -4.02383,0.0735 -4.74219,0.2168 -0.57506,0.28743 -0.86328,1.07599 -0.86328,2.36914 v 2.37109 c 0,0.28753 0.57514,0.50319 1.72461,0.64648 h 3.88086 4.31055 c 1.29331,-0.14329 2.1551,-0.21484 2.58593,-0.21484 1.29277,0 2.36983,1.15028 3.23242,3.44922 0.86176,2.29904 1.58119,6.6095 2.15625,12.93164 0.57507,6.17856 1.00544,14.79949 1.29297,25.86328 0.28753,11.06388 0.43164,25.36093 0.43164,42.89063 0,8.4775 -0.28821,17.52927 -0.86328,27.15625 -0.43111,9.4833 -1.00625,18.3197 -1.72461,26.50976 -0.71798,8.04649 -1.5085,14.87279 -2.37109,20.47656 -0.71855,5.74745 -1.43594,8.97891 -2.1543,9.69727 -1.0058,1.0058 -3.3044,2.73112 -6.89648,5.17383 -3.44851,2.58638 -7.47234,5.24455 -12.07031,7.97461 -4.59798,2.72996 -9.33929,5.24393 -14.22461,7.54297 -4.88533,2.29866 -9.12471,3.73548 -12.7168,4.31054 -1.43728,0.28753 -2.2278,0.71986 -2.37109,1.29493 -0.1433,0.71843 0.14492,1.43593 0.86328,2.15429 0.57478,0.71818 1.36529,1.36441 2.37109,1.93945 0.86222,0.57507 1.65273,0.86329 2.37109,0.86329 1.72426,0 4.74025,-1.15028 9.05079,-3.44922 4.31063,-2.29904 9.05194,-5.02839 14.22461,-8.18946 5.17264,-3.01739 10.34677,-6.1065 15.51953,-9.26757 5.17266,-3.01749 9.48313,-5.24483 12.93164,-6.68164 3.59218,-1.58059 7.3275,-3.08858 11.20703,-4.5254 4.02319,-1.43688 7.97399,-2.73138 11.85351,-3.88085 4.0232,-1.0059 7.76048,-1.86758 11.20899,-2.58594 3.59208,-0.57507 6.75237,-0.86328 9.48242,-0.86328 0.43177,0 0.71998,-0.28627 0.86328,-0.86133 0.1433,-0.43111 0.21484,-1.00625 0.21484,-1.72461 0,-0.57441 -0.0715,-1.14955 -0.21484,-1.72461 -0.14423,-0.43177 -0.43245,-0.71803 -0.86328,-0.86133 -1.29314,0 -2.87426,0.0716 -4.74219,0.21485 -1.72425,0.28753 -3.44762,0.42968 -5.17187,0.42968 -1.72416,0.1433 -3.30528,0.0727 -4.74219,-0.21484 -1.29342,-0.14367 -2.15511,-0.71881 -2.58594,-1.72461 -0.71864,-1.43682 -1.29378,-4.45476 -1.72461,-9.05273 -0.43176,-4.74166 -0.71998,-9.98498 -0.86328,-15.73243 -0.1433,-5.74745 -0.21484,-11.49669 -0.21484,-17.24414 v -14.00781 c 0.43771,0.19891 1.45934,0.25219 2.0293,0.41797 v -11.51758 c -0.92871,-0.81601 -1.7269,-1.63719 -2.02735,-2.47851 v -12.28516 c 0.1433,-5.17267 0.21485,-10.63341 0.21485,-16.38086 0.14421,-5.74745 0.28834,-11.56786 0.43164,-17.45898 0.28753,-6.03489 0.50318,-11.49359 0.64648,-16.37891 0.2866,-5.029 0.50225,-9.26829 0.64648,-12.7168 0.28754,-3.44794 0.5738,-5.60225 0.86133,-6.46484 0.28744,-1.0058 1.14912,-2.08491 2.58594,-3.23438 1.58058,-1.29323 3.52137,-2.44146 5.82031,-3.44726 2.44271,-1.14957 5.10089,-2.08438 7.97461,-2.80274 3.0174,-0.86165 6.03534,-1.29297 9.05274,-1.29297 5.4601,0 10.56108,1.07902 15.30273,3.23438 4.74165,2.15527 8.83674,5.17126 12.28516,9.05078 3.59218,3.87953 6.3927,8.62279 8.40429,14.22656 2.0116,5.46011 3.01758,11.56511 3.01758,18.31836 0,9.19587 -1.07715,17.31478 -3.23242,24.35547 -2.0116,6.89692 -4.95641,12.71538 -8.83594,17.45703 -3.73585,4.74165 -8.26364,8.33473 -13.58008,10.77735 -5.17266,2.29903 -10.91995,3.44922 -17.24218,3.44922 -6.89692,0 -12.50001,-0.86366 -16.81055,-2.58789 -2.03127,-0.8802 -3.59076,-1.77954 -4.82422,-2.69141 v 11.01172 c 1.39625,0.35077 2.5297,0.76649 4.60742,0.94726 3.44851,0.28753 6.61065,0.43164 9.48438,0.43164 9.33963,0 18.5357,-1.65219 27.58789,-4.95703 9.19596,-3.30474 17.38605,-8.04605 24.57031,-14.22461 4.09319,-3.53133 7.73699,-7.4448 10.9336,-11.73828 h 22.83593 c -2.02504,3.74549 -3.03906,7.44274 -3.03906,11.0918 0,5.74745 1.58112,10.12909 4.74219,13.14648 3.16107,3.0174 7.04069,5.31786 11.63867,6.89844 4.74165,1.58002 9.84263,2.80147 15.30273,3.66406 5.60369,0.71846 10.70476,1.72444 15.30274,3.01758 4.74165,1.29324 8.69244,3.1609 11.85351,5.60352 3.16117,2.44271 4.74219,6.17803 4.74219,11.20703 0,4.4543 -1.43682,8.04729 -4.31055,10.77734 -2.73005,2.72996 -6.46538,4.09375 -11.20703,4.09375 -4.02319,0 -8.11819,-0.64631 -12.28515,-1.93945 -4.16687,-1.29314 -7.97532,-2.80114 -11.42383,-4.52539 -3.44841,-1.86793 -6.32206,-3.73559 -8.6211,-5.60352 -2.15523,-2.0116 -3.23242,-3.66584 -3.23242,-4.95898 0,-1.00608 0.0716,-1.72347 0.21485,-2.1543 0.14329,-0.43083 0.35895,-0.79059 0.64648,-1.07812 0.43074,-0.71865 0.14252,-1.29378 -0.86328,-1.72461 -1.00589,-0.57507 -1.86758,-0.50352 -2.58594,0.21484 -0.71836,0.86213 -1.93981,2.65862 -3.66406,5.38867 -1.58058,2.58638 -3.37707,5.53315 -5.38867,8.83789 -1.86793,3.16107 -3.73559,6.3213 -5.60352,9.48242 -1.86746,3.0174 -3.23311,5.24483 -4.0957,6.68165 -1.14947,1.8682 -1.72461,3.01839 -1.72461,3.44921 0,1.29315 0.64817,1.93946 1.94141,1.93946 0.28659,0 0.71595,-0.14411 1.29101,-0.43164 0.7193,-0.1433 1.15163,-0.35896 1.29492,-0.64649 0.28744,-0.86203 0.93366,-2.08348 1.93946,-3.66406 1.0058,-1.72435 2.08295,-2.9457 3.23242,-3.66406 h 0.002 c 0.14367,0.28697 1.5805,0.86201 4.31055,1.72461 2.73005,0.71789 5.81916,1.50654 9.26758,2.36914 3.59218,0.86184 7.11204,1.58118 10.56054,2.15625 3.44842,0.71836 5.96239,1.07812 7.54297,1.07812 3.30474,0 6.60927,-0.43131 9.91406,-1.29297 3.30475,-0.71845 6.53806,-1.72434 9.69922,-3.01757 3.16107,-1.29315 6.10589,-2.65889 8.83594,-4.09571 2.73005,-1.58058 5.17286,-3.08848 7.32813,-4.52539 2.29894,-1.43681 4.5994,-3.0891 6.89843,-4.95703 2.29895,-2.0116 4.38208,-4.16776 6.25,-6.4668 1.86793,-2.29894 3.37592,-4.74174 4.52539,-7.32812 1.14948,-2.58629 1.72461,-5.24456 1.72461,-7.97461 0,-6.03479 -1.58111,-10.56063 -4.74218,-13.57813 -3.16107,-3.01739 -7.11187,-5.24482 -11.85352,-6.68164 -4.74165,-1.58067 -9.84263,-2.7289 -15.30273,-3.44726 -5.46011,-0.71836 -10.56118,-1.72434 -15.30274,-3.01758 -4.74165,-1.43682 -8.69235,-3.51995 -11.85351,-6.25 -3.16107,-2.73005 -4.74219,-6.89818 -4.74219,-12.50195 0,-3.44842 1.29252,-6.39323 3.87891,-8.83594 2.73001,-2.44271 6.17883,-3.66406 10.3457,-3.66406 8.62117,0 15.15897,1.43682 19.61328,4.31054 4.59788,2.87373 6.89648,6.82443 6.89648,11.85352 0,1.14956 -0.0715,2.08437 -0.21484,2.80273 0.28744,0.28754 0.7914,0.43164 1.50977,0.43164 h 1.29296 c 0.71846,0 1.93981,-1.00598 3.66407,-3.01757 1.86792,-2.0116 3.80871,-4.31206 5.82031,-6.89844 1.23729,-1.48478 2.40085,-2.96838 3.49609,-4.45313 h 11.56641 c -0.0764,0.34608 0.0599,0.82492 0.41016,1.4375 0.57497,1.0059 1.07698,1.36371 1.50781,1.07618 0.57478,-0.28754 1.22109,-0.5738 1.93945,-0.86133 0.71817,-0.43083 1.36439,-0.64649 1.93945,-0.64649 2.0116,0 4.23907,1.36565 6.68164,4.09571 2.58639,2.72996 5.24456,6.39225 7.97461,10.99023 2.73006,4.45431 5.46136,9.69958 8.19141,15.73438 2.87373,6.03479 5.67424,12.35722 8.4043,18.96679 2.87372,6.60958 5.60512,13.29168 8.1914,20.04492 2.58638,6.75325 5.02919,13.14676 7.32813,19.18165 -0.57469,1.72412 -1.94034,4.31125 -4.0957,7.75976 -2.0116,3.59218 -4.4544,7.46985 -7.32813,11.63672 -2.87372,4.31063 -5.96284,8.83843 -9.26758,13.58008 -3.16107,4.74165 -6.32321,9.19446 -9.48437,13.36133 -3.0174,4.16686 -5.81792,7.90414 -8.4043,11.20898 -2.58629,3.30474 -4.52707,5.67442 -5.82031,7.11133 v 0.002 c 0,0.14424 -0.0716,0.28639 -0.21485,0.42969 v 0.64648 c 0,2.29904 1.7965,3.44922 5.38868,3.44922 3.73585,0 8.04631,-0.64621 12.93164,-1.93945 5.02899,-1.29314 9.7703,-2.72997 14.22461,-4.31055 4.4543,-1.43681 8.2608,-2.80256 11.42187,-4.0957 3.16145,-1.29324 4.81373,-1.93945 4.95703,-1.93945 0.43083,-0.28782 0.7906,-0.86296 1.07813,-1.72461 0.28753,-0.71846 0.43164,-1.43594 0.43164,-2.1543 0,-0.71874 -0.14411,-1.29378 -0.43164,-1.72461 -0.14424,-0.28753 -0.57461,-0.14342 -1.29297,0.43164 -1.58049,1.29314 -3.52128,2.44147 -5.82031,3.44727 -2.29895,1.00561 -4.45325,1.65192 -6.46485,1.93945 -1.86792,0.43083 -3.44899,0.28672 -4.74218,-0.43164 -1.1492,-0.57478 -1.50896,-1.93848 -1.07813,-4.09375 0.71836,-3.59218 1.86864,-7.6161 3.44922,-12.07031 1.72425,-4.31064 3.66309,-8.90765 5.81836,-13.79297 2.15527,-4.74165 4.5269,-9.55609 7.11328,-14.44141 2.58638,-4.74165 5.31573,-9.33875 8.18945,-13.79297 1.43682,-2.29903 3.73542,-5.89202 6.89649,-10.77734 3.30483,-4.88532 6.96899,-10.41724 10.99218,-16.5957 4.0232,-6.17856 8.19132,-12.71636 12.50196,-19.61329 4.45421,-7.04059 8.62038,-13.79386 12.5,-20.25976 0.9355,-1.59383 1.83642,-3.1527 2.70508,-4.67969 h 20.97461 c -3.97937,7.59022 -5.97071,16.8378 -5.97071,27.74414 0,14.94332 4.095,26.72457 12.28516,35.3457 8.33383,8.62118 19.89958,12.93165 34.69922,12.93165 5.17276,0 10.41803,-1.00598 15.73437,-3.01758 5.31644,-2.0116 10.41741,-4.38128 15.30274,-7.11133 4.88532,-2.87373 9.19579,-5.74737 12.93164,-8.62109 3.87952,-2.87373 6.89746,-5.17428 9.05273,-6.89844 0.28753,-0.28753 0.43164,-0.71791 0.43164,-1.29297 0,-0.71874 -0.14411,-1.29378 -0.43164,-1.72461 -0.28744,-0.57506 -0.7914,-0.86328 -1.50976,-0.86328 -0.14424,0 -0.28835,0.0735 -0.43165,0.2168 0,0.14329 -0.0715,0.21484 -0.21484,0.21484 -3.16116,2.73005 -7.18304,5.1709 -12.06836,7.32617 -4.88532,2.0116 -11.42312,3.01758 -19.61328,3.01758 -6.03479,0 -11.63983,-0.93286 -16.8125,-2.80078 -5.17276,-2.0116 -9.62548,-4.81417 -13.36133,-8.40625 -3.59208,-3.73585 -6.46573,-8.26169 -8.62109,-13.57813 -2.0116,-5.4601 -3.01758,-11.56706 -3.01758,-18.32031 0,-11.06379 1.93884,-19.90019 5.81836,-26.50977 3.87952,-6.7532 8.90933,-10.1289 15.08789,-10.1289 3.59218,0 6.89667,0.57318 9.91406,1.72266 3.0174,1.14943 5.60255,2.58629 7.75782,4.31054 2.29903,1.58058 4.02435,3.23278 5.17382,4.95703 1.29315,1.72416 1.93946,3.16099 1.93946,4.31055 0,0.71845 0.0715,1.43789 0.21484,2.15625 0.28744,0.71836 0.93365,0.86247 1.93945,0.43164 1.58049,-0.86213 3.37708,-2.15475 5.38868,-3.87891 2.15536,-1.86792 4.16723,-3.73754 6.03515,-5.60546 1.86793,-2.0116 3.44905,-3.87927 4.74219,-5.60352 1.29433,-1.68237 2.12078,-2.95544 2.48242,-3.82227 h 17.61914 c -0.008,5.48396 -0.15034,11.64037 -0.42969,18.48047 -0.14423,7.0406 -0.43049,14.22471 -0.86132,21.55274 -0.28754,7.32803 -0.71986,14.65643 -1.29493,21.98437 -0.5744,7.18436 -1.14958,13.79333 -1.7246,19.82813 -0.43112,4.16687 -1.0043,7.25588 -1.72266,9.26758 -0.71836,2.01159 -1.07813,3.37734 -1.07813,4.0957 0,3.30483 2.15617,4.95703 6.4668,4.95703 0.71846,0 2.01098,-0.28822 3.87891,-0.86328 2.01159,-0.57478 4.38141,-1.22109 7.11132,-1.93945 2.58639,-0.8626 5.31769,-1.72428 8.19141,-2.58594 3.0174,-1.00627 5.74675,-1.94108 8.18945,-2.80274 2.44262,-1.00533 4.45458,-1.93818 6.03516,-2.80078 1.58058,-0.86231 2.37109,-1.50862 2.37109,-1.93945 0,-0.43177 -0.1441,-0.86409 -0.43164,-1.29492 -0.14423,-0.43083 -0.43245,-0.64649 -0.86328,-0.64649 -0.86184,0.28753 -1.57923,0.50319 -2.15429,0.64649 -0.71808,0.14423 -1.36439,0.28834 -1.93946,0.43164 h -1.50976 c -4.1664,-0.57469 -6.68038,-2.73095 -7.54297,-6.4668 -0.8626,-3.87952 -1.29492,-9.33822 -1.29492,-16.37891 0,-5.45997 0.0735,-10.13024 0.21679,-14.00976 0.28753,-4.02329 0.64535,-8.11829 1.07618,-12.28516 0.14419,-2.44261 0.28834,-4.3834 0.43164,-5.82031 0.28753,-1.43728 0.50318,-2.58561 0.64648,-3.44727 0.28753,-1.00604 0.50319,-1.72546 0.64648,-2.15624 0.28754,-0.57441 0.5738,-1.1476 0.86133,-1.72266 1.14957,-2.44271 2.94606,-4.81434 5.38867,-7.11328 2.44271,-2.29894 4.95864,-4.23973 7.54493,-5.82032 2.4427,-1.43686 5.10088,-2.51406 7.97461,-3.23242 2.87372,-0.86259 5.60307,-1.29297 8.18945,-1.29297 3.87952,0 7.47065,0.86169 10.77539,2.58594 3.44851,1.72416 6.46635,4.23814 9.05273,7.54297 2.58629,3.30474 4.59825,7.39983 6.03516,12.28516 1.58049,4.88532 2.37109,10.49026 2.37109,16.8125 0,7.61537 -0.9348,14.72636 -2.80273,21.33593 -1.86793,6.60958 -4.02223,12.50117 -6.46484,17.67383 -2.44271,5.17276 -4.88551,9.41206 -7.32813,12.7168 -2.29904,3.44804 -4.02436,5.60225 -5.17383,6.46484 -0.71836,0.86213 -0.71836,1.65274 0,2.3711 0.71855,0.71836 1.43789,0.86247 2.15625,0.43164 2.44262,-1.43691 6.17794,-4.45476 11.20703,-9.05274 5.029,-4.59798 10.0589,-10.34526 15.08789,-17.24218 5.17267,-7.0406 9.62548,-15.15756 13.36133,-24.35352 1.86127,-4.48079 3.27585,-9.16136 4.24414,-14.03906 h 17.70313 c -0.5309,3.2609 -0.80469,6.71606 -0.80469,10.375 0,6.46581 0.93486,12.57091 2.80273,18.31836 2.0116,5.74745 4.88525,10.77725 8.6211,15.08789 3.87952,4.16687 8.62083,7.54252 14.22461,10.1289 5.60378,2.44271 11.99737,3.66407 19.18164,3.66407 4.74165,0 9.26749,-0.71739 13.57812,-2.1543 4.31054,-1.58058 8.26329,-3.44825 11.85547,-5.60352 2.96542,-1.77921 5.63194,-3.55867 8.00977,-5.33789 l -1.16016,-8.1582 c -3.97551,3.53563 -9.06023,5.30469 -15.25586,5.30469 -4.74165,0 -9.33866,-0.93295 -13.79297,-2.80078 -4.31054,-2.0117 -8.19016,-4.81417 -11.63867,-8.40625 -3.44841,-3.73586 -6.25088,-8.2617 -8.40625,-13.57813 -2.0116,-5.31634 -3.01758,-11.35027 -3.01758,-18.10351 0,-6.32224 0.71739,-11.99835 2.1543,-17.02735 1.43682,-5.02899 3.3776,-9.26829 5.82031,-12.7168 2.44262,-3.59212 5.24509,-6.32152 8.40625,-8.18945 3.30474,-1.86792 6.75353,-2.80273 10.34571,-2.80273 5.02899,0 9.69717,1.22135 14.00781,3.66406 4.31054,2.29894 8.04782,5.53226 11.20898,9.69922 3.30474,4.16687 5.81872,9.05247 7.54297,14.65625 1.86793,5.46001 2.80078,11.42277 2.80078,17.88867 0,12.78814 -2.22538,22.27075 -6.67968,28.44922 -0.87839,1.25902 -1.83943,2.38816 -2.87891,3.39062 l 1.17383,8.25586 c 0.28448,-0.21765 0.56611,-0.43664 0.84179,-0.65429 2.73006,-2.15537 4.88622,-3.87873 6.4668,-5.17188 l 6.25,-6.25 c 3.01749,-3.0174 6.03534,-6.61038 9.05274,-10.77734 3.01739,-4.16687 5.60254,-8.90818 7.75781,-14.22461 1.43578,-3.32026 2.42357,-6.78018 2.96289,-10.38086 h 21.43359 c -0.0646,2.1814 -0.13276,4.3493 -0.20703,6.50195 -0.28753,8.19007 -0.71986,15.73199 -1.29492,22.62891 -0.43177,6.75325 -0.86214,11.92735 -1.29297,15.51953 0,0.71855 -0.0716,1.43594 -0.21484,2.1543 -0.1433,0.71864 -0.28741,1.29378 -0.43164,1.72461 -0.28754,0.71808 -0.6473,1.36439 -1.07813,1.93945 -0.28753,0.43073 -0.43164,0.9347 -0.43164,1.50977 0,0.7185 0.50397,1.43593 1.50977,2.15429 1.0058,0.57469 2.36949,1.43637 4.09375,2.58594 2.15536,1.29361 4.67119,2.37272 7.54492,3.23437 3.0174,1.0058 5.53137,1.50782 7.54297,1.50782 1.72425,0 3.66504,-0.35977 5.82031,-1.07813 2.15527,-0.71845 4.59612,-1.58014 7.32617,-2.58594 5.60378,-2.01159 11.20872,-4.38127 16.8125,-7.11132 5.19194,-2.4661 9.43611,-4.63761 12.75195,-6.51758 0.76285,1.05878 1.56529,2.08448 2.41797,3.06836 3.87953,4.16687 8.62083,7.54252 14.22461,10.1289 5.60378,2.44271 11.99933,3.66407 19.1836,3.66407 4.74165,0 9.26749,-0.71739 13.57812,-2.1543 4.31054,-1.58058 8.26134,-3.44825 11.85352,-5.60352 3.3915,-2.03486 6.39845,-4.07065 9.02145,-6.10546 l -0.25,-9.33594 c -4.20895,4.8326 -9.9343,7.25 -17.1777,7.25 -4.74165,0 -9.33876,-0.93295 -13.79297,-2.80078 -4.31064,-2.0117 -8.19026,-4.81417 -11.63867,-8.40625 -3.44851,-3.73586 -6.25098,-8.2617 -8.40625,-13.57813 -2.0116,-5.31634 -3.01758,-11.35027 -3.01758,-18.10351 0,-6.32224 0.71943,-11.99835 2.15625,-17.02735 1.43691,-5.02899 3.37574,-9.26829 5.81836,-12.7168 2.44271,-3.59212 5.24518,-6.32152 8.40625,-8.18945 3.30483,-1.86792 6.75361,-2.80273 10.3457,-2.80273 5.02909,0 9.69923,1.22135 14.00977,3.66406 4.31063,2.29894 8.04616,5.53226 11.20694,9.69922 3.3048,4.16687 5.8188,9.05247 7.543,14.65625 1.8679,5.46001 2.8027,11.42277 2.8027,17.88867 0,12.78814 -2.2273,22.27075 -6.6816,28.44922 -0.1971,0.28246 -0.4003,0.55663 -0.6055,0.82617 l 0.2617,9.75586 c 2.4759,-1.95746 4.4725,-3.55503 5.9473,-4.76172 1.2933,-1.29314 3.3763,-3.37627 6.25,-6.25 3.0174,-3.0174 6.0359,-6.61038 9.0527,-10.77734 3.0174,-4.16687 5.6026,-8.90818 7.7579,-14.22461 1.0641,-2.46079 1.8696,-5.00234 2.4414,-7.61719 h 11.6211 c 0.038,4.32336 0.7521,8.44411 2.1504,12.35938 1.4369,3.87952 3.5219,7.3283 6.2519,10.3457 2.8737,3.0174 6.3936,5.4602 10.5606,7.32812 4.1668,1.72426 8.9793,2.58594 14.4394,2.58594 2.8737,0 5.6762,-0.28822 8.4063,-0.86328 2.8737,-0.57422 5.532,-1.2917 7.9746,-2.1543 2.3391,-0.77972 4.2914,-1.63776 6.0429,-2.53515 v -7.39649 c -0.3619,0.0279 -0.7238,0.23243 -1.0859,0.23243 -3.8795,0 -7.688,-0.86364 -11.4238,-2.5879 -3.7359,-1.86792 -7.0404,-4.31072 -9.9141,-7.32812 -2.73,-3.16107 -4.9574,-6.82327 -6.6816,-10.99024 -1.7243,-4.16682 -2.586,-8.62163 -2.586,-13.36328 0,-8.62117 2.1542,-15.2321 6.4649,-19.83007 4.3105,-4.74166 9.5558,-7.11133 15.7343,-7.11133 4.3106,0 8.0459,0.86168 11.2071,2.58594 3.161,1.58054 5.8193,3.87908 7.9746,6.89648 2.1553,3.0174 3.7364,6.61047 4.7422,10.77734 1.1495,4.16697 1.7246,8.69281 1.7246,13.57813 0,5.31634 -0.5751,9.7711 -1.7246,13.36328 -1.0058,3.44851 -2.3716,6.24903 -4.0957,8.4043 -1.5806,2.01206 -3.3771,3.45084 -5.3887,4.3125 -1.419,0.60847 -2.8373,0.73312 -4.2559,0.91211 v 7.24023 c 1.8346,-0.99348 3.2644,-1.98699 4.2579,-2.98047 0.2875,0.57413 0.4316,0.78978 0.4316,0.64649 0,0.71845 -0.4323,1.7956 -1.2949,3.23242 -0.7185,1.29323 -1.5802,2.80318 -2.586,4.52734 -1.0053,1.58058 -1.9382,3.23278 -2.8007,4.95703 -0.7184,1.58058 -1.0782,3.01741 -1.0782,4.31055 0,1.43681 0.9329,3.01598 2.8008,4.74023 2.0116,1.72426 4.3832,3.59387 7.1133,5.60547 2.8737,2.0116 5.9628,4.16581 9.2676,6.46485 3.4485,2.44261 6.5375,5.02971 9.2675,7.75976 2.8738,2.73005 5.2455,5.67487 7.1133,8.83594 2.0117,3.16107 3.0176,6.46555 3.0176,9.91406 0,8.19016 -2.7313,14.51259 -8.1914,18.9668 -5.3164,4.59798 -13.1469,6.89648 -23.4922,6.89648 -5.0291,0 -9.9858,-0.71748 -14.8711,-2.15429 -4.8853,-1.43691 -9.2689,-3.30458 -13.1484,-5.60352 -3.7359,-2.29904 -6.825,-4.95721 -9.2676,-7.97461 -2.299,-2.87372 -3.4473,-5.82049 -3.4473,-8.83789 0,-2.29894 0.7174,-4.66862 2.1543,-7.11133 1.4368,-2.29894 3.1623,-4.4551 5.1739,-6.46679 2.0116,-2.0116 4.0216,-3.87936 6.0332,-5.60352 2.1553,-1.72425 3.9518,-3.16108 5.3886,-4.31055 v -0.43164 c 0.1433,0 0.2149,-0.0715 0.2149,-0.21484 0,-0.71808 -0.3578,-1.36439 -1.0762,-1.93945 -0.575,-0.57507 -1.0789,-0.86133 -1.5098,-0.86133 -1.8679,2.15527 -5.0281,5.02891 -9.4824,8.62109 -4.4543,3.59218 -8.9802,7.32751 -13.5781,11.20703 -4.598,3.87953 -8.693,7.68603 -12.2852,11.42188 -3.4485,3.73585 -5.1738,6.75379 -5.1738,9.05273 0,4.0232 1.5079,7.47198 4.5254,10.34571 3.1611,3.01745 7.0407,5.53137 11.6387,7.54296 4.7416,2.0116 9.8427,3.52155 15.3027,4.52735 5.6038,1.0058 10.7779,1.50781 15.5195,1.50781 10.2018,0 19.8287,-1.79649 28.8809,-5.38867 9.0523,-3.59218 16.9538,-8.11812 23.707,-13.57813 6.7533,-5.31643 12.0697,-11.06372 15.9493,-17.24218 4.0227,-6.17856 6.0351,-11.85468 6.0351,-17.02735 0,-3.59218 -1.006,-6.89666 -3.0176,-9.91406 -2.0116,-3.0174 -4.5255,-5.74675 -7.5429,-8.18945 -3.0175,-2.58629 -6.2508,-4.95796 -9.6993,-7.11328 -3.4485,-2.29895 -6.6818,-4.52442 -9.6992,-6.67969 -3.0174,-2.15537 -5.5313,-4.31153 -7.5429,-6.4668 -2.0116,-2.15527 -3.0176,-4.3826 -3.0176,-6.68164 0,-1.72416 1.0771,-4.52673 3.2324,-8.40625 2.1553,-3.87952 4.4557,-8.33224 6.8984,-13.36133 2.5864,-5.17267 4.8119,-10.63341 6.6797,-16.38086 2.012,-5.74745 2.7313,-11.35044 2.1563,-16.81054 h 4.7422 c 2.1553,-0.1433 4.0942,-0.21485 5.8183,-0.21485 8.4494,0 15.8953,-0.73621 22.3418,-2.20508 0.2945,0.13665 0.5712,0.29693 0.8281,0.48047 1.1496,0.57469 2.0844,1.3652 2.8028,2.3711 1.0061,1.58048 1.7234,3.80596 2.1543,6.67968 0.4308,2.87373 0.6465,6.18017 0.6465,9.91602 v 7.54297 c 0,3.44851 -0.1442,7.61468 -0.4317,12.5 -0.2875,4.74165 -0.6473,9.48296 -1.0781,14.22461 -0.2875,4.74165 -0.6454,9.05211 -1.0762,12.93164 -0.2875,3.73585 -0.5032,6.32295 -0.6465,7.75976 -0.1442,1.14957 -0.2883,2.08438 -0.4316,2.80274 v 2.58594 c 0,3.01739 0.9348,5.53137 2.8027,7.54296 1.868,2.0116 4.4531,3.01758 7.7578,3.01758 2.8738,0 6.4668,-0.64631 10.7774,-1.93945 4.4542,-1.43682 8.9801,-3.16214 13.5781,-5.17383 4.8853,-2.0116 9.1246,-3.95043 12.7168,-5.81836 0.213,-0.11073 0.3376,-0.17455 0.543,-0.28125 -0.4375,0.74034 -0.8751,1.4804 -1.3125,2.2207 -1.8675,3.0174 -3.2331,5.24483 -4.0957,6.68165 -1.1495,1.8682 -1.7246,3.01839 -1.7246,3.44921 0,1.29315 0.6463,1.93946 1.9394,1.93946 0.2875,0 0.7199,-0.14411 1.2949,-0.43164 0.7193,-0.1433 1.1497,-0.35896 1.293,-0.64649 0.2874,-0.86203 0.9356,-2.08348 1.9414,-3.66406 1.0058,-1.72435 2.0829,-2.9457 3.2324,-3.66406 0.1437,0.28697 1.5805,0.86201 4.3106,1.72461 2.73,0.71789 5.8191,1.50654 9.2676,2.36914 3.5921,0.86184 7.1121,1.58118 10.5605,2.15625 3.4485,0.71836 5.9624,1.07812 7.543,1.07812 3.3047,0 6.6092,-0.43131 9.914,-1.29297 3.3048,-0.71845 6.5382,-1.72434 9.6993,-3.01757 3.1611,-1.29315 6.1058,-2.65889 8.8359,-4.09571 2.73,-1.58058 5.1728,-3.08848 7.3281,-4.52539 2.299,-1.43681 4.5995,-3.0891 6.8985,-4.95703 2.299,-2.0116 4.382,-4.16776 6.25,-6.4668 1.8679,-2.29894 3.3759,-4.74174 4.5253,-7.32812 1.1495,-2.58629 1.7247,-5.24456 1.7247,-7.97461 0,-6.03479 -1.5812,-10.56063 -4.7422,-13.57813 -3.1611,-3.01739 -7.1119,-5.24482 -11.8535,-6.68164 -4.7417,-1.58067 -9.8427,-2.7289 -15.3028,-3.44726 -5.4601,-0.71836 -10.5611,-1.72434 -15.3027,-3.01758 -4.7417,-1.43682 -8.6925,-3.51995 -11.8535,-6.25 -3.1611,-2.73005 -4.7422,-6.89818 -4.7422,-12.50195 0,-3.44842 1.2926,-6.39323 3.8789,-8.83594 2.73,-2.44271 6.1787,-3.66406 10.3457,-3.66406 8.6212,0 15.1591,1.43682 19.6133,4.31054 4.598,2.87373 6.8965,6.82443 6.8965,11.85352 0,1.14956 -0.072,2.08437 -0.2149,2.80273 0.2875,0.28754 0.7914,0.43164 1.5098,0.43164 h 1.2929 c 0.7185,0 1.9399,-1.00598 3.6641,-3.01757 1.8679,-2.0116 3.8087,-4.31206 5.8203,-6.89844 0.8539,-1.02462 1.6728,-2.04766 2.459,-3.07227 h 12.8242 c -0.3819,0.31259 -0.7541,0.62063 -1.1054,0.91797 -1.8679,1.43719 -2.8008,2.22584 -2.8008,2.36914 -0.1433,0.1433 -0.2149,0.35896 -0.2149,0.64649 0,0.5744 0.2863,1.14954 0.8614,1.72461 l 1.0781,1.07812 c 0.7183,-0.43064 1.58,-1.07686 2.5859,-1.93945 1.0058,-0.86194 2.0849,-1.43708 3.2344,-1.72461 2.4426,-0.57506 5.2431,-0.86328 8.4043,-0.86328 3.1611,-0.1433 7.0407,-0.21485 11.6387,-0.21485 2.0116,0 4.0947,0.0716 6.25,0.21485 2.2989,0 4.8148,0.0726 7.5449,0.21679 -0.7184,1.43682 -2.084,3.66428 -4.0957,6.68164 -2.0116,2.87373 -4.1659,6.46476 -6.4649,10.7754 -2.1552,4.31054 -4.096,9.19614 -5.8203,14.65625 -1.7242,5.4601 -2.5859,11.28051 -2.5859,17.45898 0,5.74745 0.9328,11.0639 2.8008,15.94922 2.0116,4.88532 4.7429,9.12266 8.1914,12.71484 3.4484,3.44851 7.4704,6.17981 12.0683,8.19141 4.598,2.0116 9.4836,3.01758 14.6563,3.01758 2.5864,0 5.3177,-0.43131 8.1914,-1.29297 3.0174,-0.71846 5.891,-1.58014 8.6211,-2.58594 2.8737,-1.14947 5.4589,-2.29975 7.7578,-3.44922 2.299,-1.14956 4.0955,-2.08437 5.3887,-2.80273 4.598,-2.58638 9.0526,-5.3869 13.3633,-8.4043 4.3105,-3.0174 7.9016,-5.89104 10.7753,-8.62109 0.4318,-0.43111 0.72,-1.00625 0.8633,-1.72461 0.1433,-0.71818 0.1433,-1.36439 0,-1.93946 0,-0.71826 -0.1441,-1.22223 -0.4316,-1.50976 -0.1433,-0.43083 -0.359,-0.50238 -0.6465,-0.21484 l -2.5879,2.36914 c -1.5806,1.29314 -3.4482,2.65879 -5.6035,4.0957 -2.1553,1.29314 -4.525,2.51459 -7.1113,3.66406 -2.4426,1.14957 -5.1009,2.08242 -7.9746,2.80078 -2.7301,0.71836 -5.6037,1.07813 -8.6211,1.07813 -5.1728,0 -9.9872,-1.00598 -14.4414,-3.01758 -4.4544,-2.0116 -8.334,-4.81407 -11.6387,-8.40625 -3.1612,-3.59218 -5.6751,-7.82952 -7.543,-12.71484 -1.7242,-5.029 -2.5859,-10.48974 -2.5859,-16.38086 0,-3.87953 0.3578,-7.47251 1.0762,-10.77735 0.7176,-3.30474 1.5084,-6.24958 2.371,-8.83593 0.8617,-2.58639 1.7234,-4.66955 2.586,-6.25 1.006,-1.72435 1.7254,-2.94571 2.1562,-3.66407 h 8.836 c 3.3048,-0.1433 6.5381,-0.21484 9.6992,-0.21484 3.1611,-0.14424 6.179,-0.28834 9.0527,-0.43164 2.8737,-0.1433 5.3876,-0.35895 7.543,-0.64649 2.1553,-0.1432 4.3827,-0.64521 6.6816,-1.50781 2.2991,-0.86213 4.4552,-1.79693 6.4668,-2.80273 2.1553,-1.14947 4.0941,-2.29975 5.8184,-3.44922 1.8679,-1.14957 3.449,-2.08242 4.7422,-2.80078 2.1552,-1.29315 4.2384,-2.5145 6.25,-3.66407 2.1553,-1.14928 3.2324,-1.86871 3.2324,-2.15625 0,-0.57497 -0.2157,-1.07698 -0.6465,-1.50781 -0.4318,-0.43083 -0.718,-0.64648 -0.8613,-0.64648 -0.7185,0.28659 -2.2284,0.7179 -4.5274,1.29297 -2.4427,0.57497 -5.5317,1.07698 -9.2675,1.50781 -3.7359,0.28753 -8.6927,0.43164 -14.8711,0.43164 -4.167,0 -8.8371,-0.14411 -14.0098,-0.43164 -5.1727,-0.43074 -10.2005,-0.93275 -15.0859,-1.50781 -4.8854,-0.71836 -9.2689,-1.58014 -13.1485,-2.58594 -3.8795,-1.00589 -6.6089,-2.15608 -8.1894,-3.44922 -0.2876,-0.57478 7e-4,-1.22109 0.8633,-1.93945 0.8624,-0.86194 1.5086,-1.43708 1.9394,-1.72461 0.2875,-0.2866 -7e-4,-0.71791 -0.8633,-1.29297 -0.8616,-0.57506 -1.7233,-0.71722 -2.5859,-0.42969 -0.7185,0.28744 -2.2284,1.22029 -4.5274,2.80078 -2.1552,1.43691 -4.8134,3.2334 -7.9746,5.38867 -3.0174,2.15527 -6.2488,4.52691 -9.6972,7.11329 -3.3049,2.4427 -6.3939,4.74121 -9.2676,6.89648 -1.681,1.23865 -3.1986,2.39548 -4.5527,3.4707 h -13.3106 c 0.9165,-1.22878 1.7863,-2.45679 2.6055,-3.68554 1.7244,-2.73006 2.8016,-4.74192 3.2324,-6.03516 0.4308,-1.14947 0.5043,-1.72461 0.2168,-1.72461 -1.1495,-0.43073 -2.946,-0.93275 -5.3887,-1.50781 -2.2989,-0.71808 -4.886,-1.36439 -7.7597,-1.93946 -2.7301,-0.7186 -5.5326,-1.29378 -8.4063,-1.7246 -2.8737,-0.43083 -5.3877,-0.64649 -7.543,-0.64649 -7.1843,0 -14.0818,1.15018 -20.6914,3.44922 -6.6095,2.29894 -12.4992,5.24376 -17.6718,8.83594 -5.029,3.59218 -9.124,7.68727 -12.2852,12.28515 -3.0174,4.59798 -4.5273,9.12382 -4.5273,13.57813 0,5.74745 1.581,10.12909 4.7422,13.14648 3.1606,3.0174 7.0406,5.31786 11.6386,6.89844 4.7417,1.58002 9.8427,2.80147 15.3028,3.66406 5.6037,0.71846 10.7047,1.72444 15.3027,3.01758 4.7416,1.29324 8.6924,3.1609 11.8535,5.60352 3.1612,2.44271 4.7422,6.17803 4.7422,11.20703 0,4.4543 -1.4368,8.04729 -4.3106,10.77734 -2.73,2.72996 -6.4653,4.09375 -11.207,4.09375 -4.0232,0 -8.1182,-0.64631 -12.2851,-1.93945 -4.1669,-1.29314 -7.9754,-2.80114 -11.4239,-4.52539 -3.4484,-1.86793 -6.322,-3.73559 -8.6211,-5.60352 -2.1552,-2.0116 -3.2324,-3.66584 -3.2324,-4.95898 0,-1.00608 0.072,-1.72347 0.2149,-2.1543 0.1433,-0.43083 0.3589,-0.79059 0.6464,-1.07812 0.4308,-0.71865 0.1426,-1.29378 -0.8632,-1.72461 -1.0059,-0.57507 -1.8676,-0.50352 -2.586,0.21484 -0.7184,0.86213 -1.9399,2.65862 -3.664,5.38867 -1.5806,2.58638 -3.3771,5.53315 -5.3887,8.83789 -0.084,0.14276 -0.1696,0.28498 -0.2539,0.42774 v 0.002 c -1.0777,0.43093 -2.3158,0.86167 -3.7168,1.29297 -1.7241,0.57497 -3.5919,1.07898 -5.6035,1.50976 -2.0117,0.28754 -3.8082,0.43165 -5.3887,0.43165 -3.161,0 -5.6038,-0.57514 -7.3281,-1.72461 -1.7238,-1.29324 -3.0163,-2.94544 -3.8789,-4.95704 -0.8625,-2.01155 -1.3665,-4.38322 -1.5098,-7.11328 -0.1428,-2.87372 -0.2148,-5.81854 -0.2148,-8.83593 V 404.7832 c 0,-7.04068 0.2157,-13.57848 0.6465,-19.61328 0.4318,-6.03479 0.8621,-11.35124 1.293,-15.94922 0.5749,-4.59798 1.0789,-8.4776 1.5097,-11.63867 0.4309,-3.16107 0.6465,-5.45957 0.6465,-6.89648 v -0.86328 c 0,-1.15004 -0.2882,-2.15592 -0.8633,-3.01758 -0.5748,-1.0058 -1.6519,-1.50782 -3.2324,-1.50781 -1.5806,-10e-6 -4.2388,0.79051 -7.9746,2.37109 -3.7359,1.43691 -7.6155,3.16028 -11.6387,5.17187 -2.3351,1.16756 -4.3562,2.17717 -6.4668,3.23243 h -14.1152 c -5.029,0 -9.7703,-0.0716 -14.2246,-0.21485 -4.4543,-0.1433 -7.5434,-0.357 -9.2676,-0.64453 -1.7242,-1.58049 -5.3884,-3.37707 -10.9922,-5.38867 -5.6038,-2.01169 -12.9322,-3.01758 -21.9844,-3.01758 -2.5863,0 -5.3157,0.2157 -8.1894,0.64648 -2.8737,0.43112 -5.6762,1.00625 -8.4063,1.72461 -2.73,0.57432 -5.3152,1.29171 -7.7578,2.1543 -2.299,0.71789 -4.3109,1.50854 -6.0351,2.37109 -2.73,1.43691 -5.7479,3.23341 -9.0528,5.38868 -3.3047,2.01159 -6.4669,4.66977 -9.4843,7.97461 -2.8738,3.30474 -5.3165,7.3267 -7.3282,12.06836 -1.8067,4.58664 -2.7358,10.05032 -2.7949,16.38476 h -11.4121 c 0.526,-2.72196 0.7969,-5.52401 0.7969,-8.41015 0,-7.47161 -1.3657,-13.86521 -4.0957,-19.18165 -2.7301,-5.31634 -6.3211,-9.6268 -10.7754,-12.93164 -4.4542,-3.44841 -9.6265,-5.96238 -15.5176,-7.54297 -5.7474,-1.58053 -11.71201,-2.37109 -17.89057,-2.37109 -3.30474,0 -6.5361,0.35977 -9.69726,1.07813 -3.0174,0.57515 -5.89104,1.29263 -8.6211,2.15429 -2.58623,0.86213 -5.02908,1.79694 -7.32812,2.80274 -2.15527,1.00626 -3.95186,1.93912 -5.38867,2.80078 -3.16116,1.72425 -6.68102,4.09588 -10.56055,7.11328 -3.87952,2.87372 -7.54377,6.53788 -10.99219,10.99219 -3.30483,4.31054 -6.1073,9.41152 -8.40625,15.30273 -2.29903,5.89112 -3.44726,12.64439 -3.44726,20.25977 0,6.46581 0.93285,12.57091 2.80078,18.31836 1.08002,3.08577 2.41712,5.9571 3.99414,8.6289 -1.00095,0.5001 -2.07183,1.00184 -3.21484,1.50196 -2.29904,1.0058 -4.81497,1.86757 -7.54493,2.58593 -2.73005,0.71836 -5.38822,1.07813 -7.97461,1.07813 -3.3047,0 -6.46493,-1.00598 -9.48242,-3.01758 -3.01749,-2.0116 -4.88515,-4.16776 -5.60351,-6.4668 -0.71836,-2.44261 -1.14967,-5.74719 -1.29297,-9.91406 v -12.7168 -13.57812 c 0.14423,-5.31634 0.28834,-11.06363 0.43164,-17.24219 0.28753,-6.17846 0.50319,-12.50093 0.64648,-18.96679 0.28754,-6.60958 0.64535,-13.07435 1.07618,-19.39649 0.43176,-7.90281 0.86409,-14.44061 1.29492,-19.61328 0.43176,-5.31643 0.86214,-9.55573 1.29297,-12.7168 0.43073,-3.30474 0.9347,-5.67637 1.50976,-7.11328 0.57478,-1.58039 1.22113,-2.51325 1.93945,-2.80078 1.58031,-0.57506 2.65736,-0.86328 3.23243,-0.86328 0.71789,0 1.5085,-0.0706 2.37109,-0.21485 0.57506,-0.14325 1.00544,-0.5746 1.29297,-1.29296 0.43177,-0.71799 0.57587,-1.5085 0.43164,-2.3711 0,-0.86184 -0.21566,-1.58118 -0.64648,-2.15625 -0.28754,-0.57412 -0.71791,-0.78978 -1.29297,-0.64648 -0.71846,0.28753 -1.86873,0.57575 -3.44922,0.86328 -1.58058,0.28753 -3.30395,0.57575 -5.17188,0.86328 -1.86792,0.1433 -3.80871,0.35895 -5.82031,0.64649 -1.86793,0.14325 -3.66246,0.21484 -5.38672,0.21484 h -10.3457 c -4.0232,-0.1433 -7.54315,-0.21485 -10.56055,-0.21484 -4.02329,0 -6.03515,2.36967 -6.03515,7.11132 0,0.28753 0.21565,0.43164 0.64648,0.43164 0.57478,0 1.22109,0.0716 1.93945,0.21485 0.8626,0 1.72428,0.14411 2.58594,0.43164 1.0058,0.14414 2.01178,0.64615 3.01758,1.50781 0.86222,0.71846 1.65273,1.86864 2.37109,3.44922 0.71864,1.43681 1.29183,4.52593 1.72266,9.26758 0.28753,3.4485 0.43164,8.04747 0.43164,13.79492 0.1433,5.74745 0.21484,13.28928 0.21484,22.62891 0,7.61528 -0.14215,15.87849 -0.42968,24.78711 -0.10065,6.15583 -0.23837,12.20322 -0.41016,18.14648 h -21.33789 c 0.23273,-1.84705 0.36133,-3.72684 0.36133,-5.64648 0,-7.47161 -1.36575,-13.86521 -4.09571,-19.18165 -2.73005,-5.31634 -6.32108,-9.6268 -10.77539,-12.93164 -4.4543,-3.44841 -9.62841,-5.96238 -15.51953,-7.54297 -5.74745,-1.58053 -11.7102,-2.37109 -17.88867,-2.37109 -3.30484,0 -6.53815,0.35977 -9.69922,1.07813 -3.0174,0.57515 -5.89104,1.29263 -8.62109,2.15429 -2.58638,0.86213 -5.02919,1.79694 -7.32813,2.80274 -2.15527,1.00626 -3.94981,1.93912 -5.38672,2.80078 -3.16107,1.72425 -6.68297,4.09588 -10.5625,7.11328 -3.87952,2.87372 -7.54172,6.53788 -10.99023,10.99219 -3.30474,4.31054 -6.10721,9.41152 -8.40625,15.30273 -1.08058,2.76902 -1.89784,5.73481 -2.4707,8.88477 h -17.68555 c 0.92209,-4.98407 1.38477,-10.17249 1.38476,-15.56641 1e-5,-5.4601 -1.00598,-10.34571 -3.01757,-14.65625 -2.0116,-4.45431 -4.74104,-8.26276 -8.18946,-11.42383 -3.4485,-3.16107 -7.47233,-5.53074 -12.07031,-7.11133 -4.45421,-1.72421 -9.26669,-2.58789 -14.43945,-2.58789 -4.45431,0 -8.8379,0.79052 -13.14844,2.3711 -4.31063,1.43681 -8.4768,3.3776 -12.5,5.82031 -3.87952,2.29894 -7.6168,4.88409 -11.20898,7.75781 -3.59209,2.73006 -6.82354,5.38823 -9.69727,7.97461 l -0.21289,-0.21289 c 0.1433,-8.4775 0.35895,-16.883 0.64648,-25.21679 0.43177,-8.33384 0.86214,-15.87762 1.29297,-22.63086 0.57441,-6.89693 1.14955,-12.57109 1.72461,-17.0254 0.57441,-4.4537 1.14955,-7.11201 1.72461,-7.9746 0.28744,-0.43177 0.78945,-0.71999 1.50781,-0.86329 0.86166,-0.28753 1.72335,-0.57575 2.58594,-0.86328 0.86222,-0.28753 1.65273,-0.64534 2.3711,-1.07617 0.71836,-0.43148 1.07812,-1.07779 1.07812,-1.93945 0,-1.29343 -0.0726,-2.15706 -0.2168,-2.58789 0,-0.46648 -0.37984,-0.69464 -1.13867,-0.6875 z m 541.77538,15.34179 c -0.4311,0.14368 -1.7236,0.86311 -3.8789,2.15625 -2.0116,1.14957 -4.1678,2.58639 -6.4668,4.31055 -2.1554,1.58058 -4.1672,3.16161 -6.0351,4.74219 -1.868,1.43691 -2.8008,2.51406 -2.8008,3.23242 0,0.57478 0.6462,1.72311 1.9394,3.44727 1.4368,1.58058 3.018,3.23473 4.7422,4.95898 1.7243,1.72425 3.3765,3.30346 4.957,4.74023 1.7245,1.29324 2.8016,1.93946 3.2325,1.93946 0.8621,0 2.2989,-0.57309 4.3105,-1.72266 2.1553,-1.14947 4.3115,-2.44404 6.4668,-3.88086 2.299,-1.58058 4.309,-3.08848 6.0332,-4.52539 1.7242,-1.43691 2.5879,-2.51406 2.5879,-3.23242 0,-0.57469 -0.6483,-1.72497 -1.9414,-3.44922 -1.2931,-1.72425 -2.8011,-3.52074 -4.5254,-5.38867 -1.7242,-1.86793 -3.4476,-3.52022 -5.1719,-4.95703 -1.5806,-1.43729 -2.7308,-2.2278 -3.4492,-2.3711 z"
         transform="matrix(0.07118055,0,0,0.07118055,144.91986,378.44853)" />
    </g>
  </g>
</svg>
