<?xml version="1.0" encoding="UTF-8" standalone="no"?>
<!-- Created with Inkscape (http://www.inkscape.org/) -->

<svg
   id="svg13024"
   version="1.1"
   viewBox="0 0 400 400"
   height="400mm"
   width="400mm"
   sodipodi:docname="ivana wide.svg"
   inkscape:version="1.1.2 (b8e25be8, 2022-02-05)"
   xmlns:inkscape="http://www.inkscape.org/namespaces/inkscape"
   xmlns:sodipodi="http://sodipodi.sourceforge.net/DTD/sodipodi-0.dtd"
   xmlns="http://www.w3.org/2000/svg"
   xmlns:svg="http://www.w3.org/2000/svg">
  <sodipodi:namedview
     id="namedview13026"
     pagecolor="#ffffff"
     bordercolor="#666666"
     borderopacity="1.0"
     inkscape:pageshadow="2"
     inkscape:pageopacity="0.0"
     inkscape:pagecheckerboard="0"
     inkscape:document-units="mm"
     showgrid="false"
     width="400mm"
     inkscape:zoom="1.2810466"
     inkscape:cx="355.56865"
     inkscape:cy="1362.1675"
     inkscape:window-width="2018"
     inkscape:window-height="952"
     inkscape:window-x="2240"
     inkscape:window-y="84"
     inkscape:window-maximized="0"
     inkscape:current-layer="layer1" />
  <defs
     id="defs13021">
    <marker
       id="CheckToolsAndOPMarker"
       orient="auto"
       refX="-4"
       refY="-1.687441"
       style="overflow:visible">
      <path
         d="m 4.588864,-1.687441 0.0,0.0 L 9.177728,0.0 c -0.73311,-0.996261 -0.728882,-2.359329 0.0,-3.374882"
         style="fill:#000044;fill-rule:evenodd;stroke:none"
         id="path16391" />
    </marker>
    <marker
       id="DrawCurveMarker"
       orient="auto"
       refX="-4"
       refY="-1.687441"
       style="overflow:visible">
      <path
         d="m 4.588864,-1.687441 0.0,0.0 L 9.177728,0.0 c -0.73311,-0.996261 -0.728882,-2.359329 0.0,-3.374882"
         style="fill:#000044;fill-rule:evenodd;stroke:none"
         id="path16394" />
    </marker>
    <marker
       id="DrawCurveMarker_r"
       orient="auto"
       refX="4"
       refY="-1.687441"
       style="overflow:visible">
      <path
         d="m -4.588864,-1.687441 0.0,0.0 L -9.177728,0.0 c 0.73311,-0.996261 0.728882,-2.359329 0.0,-3.374882"
         style="fill:#000044;fill-rule:evenodd;stroke:none"
         id="path16397" />
    </marker>
    <marker
       id="InOutPathMarker"
       orient="auto"
       refX="-4"
       refY="-1.687441"
       style="overflow:visible">
      <path
         d="m 4.588864,-1.687441 0.0,0.0 L 9.177728,0.0 c -0.73311,-0.996261 -0.728882,-2.359329 0.0,-3.374882"
         style="fill:#0072a7;fill-rule:evenodd;stroke:none"
         id="path16400" />
    </marker>
  </defs>
  <g
     inkscape:label="Layer 1"
     inkscape:groupmode="layer"
     id="layer1">
    <g
       aria-label="  IVANA"
       transform="matrix(1 0 0 1.10669 -37.3666 215.705)"
       id="text25108"
       style="font-size:88.1944px;line-height:1.25;font-family:Luminari;-inkscape-font-specification:'Luminari, Normal';stroke-width:0.251506">
      <path
         id="path16377"
         style="color:#000000;-inkscape-font-specification:'Luminari, Normal';fill:#000000;stroke:none;stroke-width:4.7811;stroke-miterlimit:4;stroke-dasharray:none;stroke-opacity:1"
         d="m 92.492188,1494.9863 c 1.012314,0.374 2.223167,0.3736 3.236328,0 l 0.15039,-0.055 4.990234,-2.6406 c 2.03576,-1.0099 4.85118,-2.4317 8.45117,-4.2695 3.90984,-1.6991 8.02492,-3.4735 12.35157,-5.3262 4.39334,-1.622 8.85164,-3.3949 13.37695,-5.3183 l 0.0176,-0.01 c 4.63057,-1.7074 8.843,-3.2609 12.63281,-4.6582 l 1.89648,-0.6992 c 9.8916,-3.6472 18.23443,-6.5921 25.01368,-8.834 6.79387,-2.2467 12.42417,-4.0636 16.89648,-5.4551 4.52305,-1.1548 8.10056,-2.0866 10.69726,-2.7852 2.63435,-0.7087 4.60278,-1.2979 6.00391,-1.8144 2.07014,-0.7634 3.87706,-2.0904 5.30859,-3.8438 1.84758,-2.0814 2.45003,-5.0173 1.63672,-7.7187 -0.32054,-1.0649 -0.67874,-1.9713 -1.19336,-2.7813 -0.5146,-0.8097 -1.25193,-1.6202 -2.40625,-1.9687 -1.08956,-0.3292 -1.94036,-0.1912 -2.90234,0 -0.96198,0.1932 -2.02067,0.5201 -3.25391,0.9746 -2.67828,0.9875 -5.7235,1.9824 -9.125,2.9805 -3.15923,0.9112 -6.35323,1.7082 -9.58007,2.3925 -3.25309,0.4501 -6.07429,0.8647 -8.48633,1.2442 -2.22883,0.1313 -3.74458,-0.051 -4.21485,-0.1875 0.12965,-0.01 -0.85655,-0.8419 -1.83007,-2.6055 -1.07274,-1.9434 -2.38467,-4.8489 -3.87305,-8.6426 -3.0022,-7.6525 -6.32506,-16.7601 -9.9668,-27.3046 -0.003,-0.01 -0.005,-0.013 -0.008,-0.022 -3.49798,-10.8455 -6.99744,-22.0786 -10.49609,-33.6992 l -0.01,-0.029 c -9.8e-4,0 -8.7e-4,-0.01 -0.002,-0.01 -3.36486,-11.9537 -6.27513,-22.4003 -8.72852,-31.3262 l -0.002,-0.01 -0.004,-0.012 c -3.29406,-11.7182 -6.69604,-24.5702 -10.20312,-38.5507 -3.50683,-13.9797 -6.73004,-27.0232 -9.67578,-39.1387 l -0.004,-0.01 c -0.002,-0.01 -0.005,-0.021 -0.008,-0.029 -2.72641,-12.156 -4.85597,-22.3348 -6.39063,-30.5215 -0.69181,-4.218 -1.09293,-7.4775 -1.20703,-9.664 -0.0572,-1.0955 -0.0368,-1.9289 0.0195,-2.3965 0.007,-0.059 0.0172,-0.042 0.0293,-0.086 l 2.91992,-2.0566 c 1.44582,-1.0179 3.03568,-1.9711 4.77149,-2.8574 l 6.08789,-3.0215 c 1.97769,-0.9807 3.76612,-1.7632 5.35156,-2.3477 l 0.10547,-0.039 0.10156,-0.047 c 2.17235,-1.0401 3.93429,-2.3033 5.17773,-3.9219 0.84619,-1.1016 1.29312,-2.4032 1.54297,-3.748 l 24.73438,-8.3594 c 0.17458,0.2471 0.3178,0.5194 0.52148,0.7422 l 0.16211,0.1777 0.19336,0.1387 c 1.35828,0.9894 2.6387,1.0805 4.41797,1.2285 l 0.17969,0.014 0.17968,-0.012 c 1.69204,-0.1151 4.0533,-0.4028 7.17579,-0.8614 2.85929,-0.42 6.92605,-1.2622 11.59179,-2.3027 1.47483,1.4774 3.69693,4.3456 6.52735,8.9434 l 0.0215,0.033 0.0215,0.033 c 3.42637,5.1679 7.33697,11.6346 11.71679,19.3847 l 0.0215,0.035 0.0195,0.033 c 4.56338,7.4799 9.50269,15.757 14.81836,24.8281 5.32658,9.0898 10.78614,18.2744 16.375,27.5547 l 0.008,0.012 10.23047,16.5176 h 0.004 c 7.4255,11.8607 14.87314,23.8437 22.34374,35.9453 l 0.004,0.01 0.006,0.01 c 7.42365,11.8575 14.56074,23.4034 21.41406,34.6367 6.86425,11.2513 13.35355,21.7113 19.47071,31.3789 6.11011,9.6566 11.49454,17.8488 16.16992,24.6015 10e-4,0 0.004,0 0.006,0.012 1.63377,2.4796 3.18191,4.4013 4.76758,5.8125 1.52781,1.5539 3.04094,2.7131 4.70703,3.3593 l 0.68359,0.2657 0.71289,-0.1621 c 2.28102,-0.5203 3.80129,-2.2138 5.37695,-4.5137 1.57569,-2.2998 3.15961,-5.3993 4.85352,-9.3789 3.36975,-7.9166 6.99257,-18.4678 10.90039,-31.6973 l 0.01,-0.033 c 4.12424,-13.2785 8.51193,-28.7345 13.17187,-46.3809 4.83304,-17.938 9.85377,-37.2969 15.0625,-58.0781 h 0.004 l 0.002,-0.01 c 5.16213,-21.015 10.49528,-42.9498 15.99609,-65.7989 l 0.002,-0.012 c 5.59893,-22.835 11.39366,-45.8392 17.37304,-69.0058 0.78671,-0.5433 1.86205,-1.061 3.46094,-1.4258 l 0.12696,-0.029 0.12304,-0.041 c 2.21023,-0.7645 4.29702,-1.6329 6.25781,-2.6055 2.26969,-1.0665 4.21042,-2.3448 5.7793,-3.875 1.15004,-1.1218 1.70773,-2.615 1.97656,-4.1992 0.89753,1.5363 1.83286,2.8058 3.32422,3.5039 l 0.31641,0.1484 0.3457,0.051 c 4.63351,0.6909 10.51758,1.1475 17.71485,1.3867 h 0.006 0.004 c 7.3896,0.2224 14.88259,0.315 22.47852,0.2754 7.58863,-0.039 14.72948,-0.1732 21.42187,-0.3965 h 0.002 c 3.19389,-0.1104 4.80005,-0.2269 7.2832,-0.3398 l -22.28906,15.2578 -0.084,1.1484 c -1.24214,17.0488 -2.99642,34.8775 -5.26172,53.4844 -2.27971,18.3642 -4.82126,36.0055 -7.62695,52.9238 -2.80721,16.9275 -5.6914,32.4995 -8.65039,46.7168 -2.95684,14.2073 -5.75088,25.4363 -8.34961,33.625 l -0.004,0.012 -0.004,0.014 c -3.72938,12.2872 -7.153,22.0768 -10.23828,29.3164 l -0.01,0.012 -0.004,0.012 c -2.82258,6.8411 -6.22373,11.6375 -10.02929,14.5468 -3.91016,2.8855 -6.92234,4.8795 -8.86524,5.92 -0.92341,0.3499 -1.8058,1.0437 -2.30664,1.9336 -0.55461,0.9852 -0.67874,2.0515 -0.61914,3.0878 0.0771,1.3399 0.47374,2.6517 1.23047,3.75 0.15118,0.3919 0.25248,0.7857 0.55859,1.1817 0.48646,0.6289 1.56136,1.3276 2.66211,1.25 0.8815,-0.062 1.63265,-0.2971 2.60157,-0.6387 l 0.0937,-0.033 0.0898,-0.041 c 0.18482,-0.083 1.50921,-0.4782 3.42773,-0.8516 1.91727,-0.3731 4.5333,-0.802 7.81641,-1.2773 h 0.0117 c 3.44809,-0.4826 7.93786,-0.9195 13.44336,-1.3067 3.94336,-0.2773 8.11946,-0.4496 12.52929,-0.5156 4.43232,-0.066 8.64259,-0.1171 12.63282,-0.1523 3.9784,0.2071 7.32538,0.3419 10.00781,0.4004 h 0.008 0.008 c 2.91252,0.044 4.59818,0.056 5.53515,-0.01 h 0.01 0.006 c 5.52137,-0.3881 10.18363,-2.2339 13.58789,-5.6016 3.11438,-2.6328 5.64886,-4.8899 7.57226,-6.7714 1.53139,-1.3831 2.76519,-2.6413 3.71094,-3.8301 0.5681,-0.714 1.01797,-1.3426 1.37109,-1.9707 0.35301,-0.6281 0.726,-1.2043 0.66016,-2.3496 -0.0695,-1.2104 -1.0261,-2.5827 -2.10156,-3.086 -1.07543,-0.5031 -2.0925,-0.525 -3.19922,-0.4472 -1.38057,0.097 -2.82406,0.4925 -4.39063,1.0898 -0.73484,0.1873 -4.46156,0.6427 -10.18164,1.0449 -5.14331,0.3619 -9.32883,-1.1905 -13.15039,-4.9004 -3.38224,-3.5055 -5.65707,-10.0243 -6.21679,-19.7714 -0.288,-5.0168 -0.16434,-10.4554 0.375,-16.3067 v -0.01 -0.01 c 0.53153,-6.1615 1.17407,-12.329 1.92578,-18.5059 0.97432,-6.2033 1.957,-12.2866 2.94531,-18.2461 v -0.01 l 0.002,-0.01 c 0.91363,-5.8177 1.7309,-11.2395 2.48828,-16.4043 l 0.0117,-0.01 c 0.49923,-0.2589 1.04941,-0.506 1.60352,-0.7519 l 1.75,-13.9746 0.54492,-5.8047 c -0.34966,0.1101 -0.70359,0.2202 -1.05078,0.3301 l 0.0273,-0.2266 -0.0156,0.01 c 0.8361,-6.4909 1.7623,-13.2657 3.00195,-21.0196 9.8e-4,-0.01 8.1e-4,-0.013 0.002,-0.018 1.68775,-9.1885 3.48681,-18.3854 5.39453,-27.5899 l 0.004,-0.016 c 0.002,-0.01 0.002,-0.015 0.004,-0.024 2.11931,-9.484 4.25759,-18.6028 6.41797,-27.3496 l 0.002,-0.01 0.004,-0.01 c 2.13771,-8.9551 4.33396,-16.7952 6.58203,-23.5156 l 0.004,-0.014 c 2.4607,-6.9946 4.78111,-12.4828 6.89844,-16.4023 l 0.0156,-0.029 0.0137,-0.027 c 1.0295,-2.0329 2.03565,-3.4922 2.8789,-4.3515 0.8178,-0.8333 1.37486,-1.0443 1.73828,-1.0801 0.0109,0.01 0.004,0.01 0.0547,0.045 0.16933,0.1274 0.52058,0.4954 0.90821,1.1465 l 0.0605,0.1 0.0684,0.094 c 0.62899,0.8542 2.30353,5.0021 3.99219,11.4492 1.12554,4.2971 2.5981,10.5818 4.4043,18.8164 l 0.006,0.031 0.008,0.029 c 2.02658,8.215 4.08892,17.0473 6.1875,26.4942 l 0.002,0.01 c 2.08468,9.2026 4.05148,18.29 5.90039,27.2617 l 0.008,0.029 0.008,0.025 c 1.86219,8.0563 3.39179,14.5401 4.76172,20.2539 -4.49851,1.0142 -9.20032,2.1368 -14.47852,3.5664 -5.9575,1.409 -12.01831,2.9466 -18.18164,4.6172 h -0.008 -0.008 c -5.92866,1.6515 -11.63647,3.2874 -17.12304,4.9082 -2.82741,0.7292 -5.1183,1.4239 -7.3418,2.1153 l -2.45312,19.5898 -0.01,0.1035 c 3.13075,-1.2716 7.03747,-2.3483 11.70508,-3.1816 6.9644,-1.2194 14.28857,-2.1003 21.97265,-2.6406 6.59475,-0.4639 12.86482,-0.6608 18.8086,-0.5918 h 0.004 0.002 c 5.50195,0.048 9.78556,0.312 13.49023,0.6679 2.2255,9.4691 4.48939,19.5779 6.80469,30.5899 l 0.008,0.025 0.008,0.023 c 2.6549,11.38 5.05304,22.162 7.19336,32.3418 l 0.008,0.023 0.008,0.022 c 2.36341,10.1718 4.30715,18.8902 5.83398,26.1524 1.52226,7.2404 2.31858,11.8641 2.37305,12.7578 -0.0211,-8e-4 -0.003,-0.034 -0.0879,0.023 -0.30539,0.2087 -1.22741,0.5823 -2.68164,0.793 -3.17246,0.228 -5.73768,0.5272 -7.79688,0.9141 -1.76386,0.1284 -3.37,1.5793 -3.96679,3.1406 l -0.0566,0.1465 -0.0352,0.1504 c -0.26419,1.1059 -0.30555,2.2904 -0.22656,3.6621 0.0869,1.5148 0.45162,2.956 1.12695,4.2402 0.35565,0.6759 0.79168,1.3076 1.46289,1.8281 0.67124,0.5203 1.64993,0.8634 2.56836,0.7988 1.10831,-0.077 2.75231,-0.3262 5.20508,-0.748 2.40369,-0.4132 5.14667,-0.8506 8.22461,-1.3125 3.08368,-0.4628 6.27751,-0.9339 9.58203,-1.4121 h 0.0117 c 3.48604,-0.4881 6.63886,-0.8297 9.45117,-1.0274 8.62656,-0.6067 15.70345,-0.982 21.20703,-1.125 h 0.002 0.002 c 5.74121,-0.1589 10.36027,-0.3615 13.94922,-0.6113 3.5278,10e-5 6.28622,0.045 8.21093,0.1465 2.06306,0.1088 3.68368,0.1329 4.97071,0.043 1.11394,-0.079 2.32589,-0.4937 3.18164,-1.4063 0.22073,-0.2355 0.31788,-0.5272 0.47265,-0.7949 1.39359,0.055 2.88293,0.1186 5.63477,0.375 4.20054,0.4049 8.95341,0.8948 14.25781,1.4707 5.26612,0.8164 10.8649,1.5623 16.80078,2.2383 6.15079,0.9554 12.08446,1.8784 17.79688,2.7656 2.19062,0.3401 5.1548,0.8014 8.87304,1.3789 3.9436,0.8595 7.90243,1.5993 11.87696,2.2168 3.94208,0.6121 7.43948,1.1558 10.50976,1.6328 3.20323,0.7394 5.49843,1.2258 6.9375,1.4492 1.71554,0.2664 3.58777,-0.4087 4.80469,-1.6425 1.12701,-0.9309 2.11998,-1.5813 2.35742,-3.4551 0.1663,-1.3127 0.0401,-2.6893 -0.27734,-4.1445 -0.19729,-1.1181 -0.67861,-2.229 -1.52149,-3.0606 -0.85845,-0.847 -1.99792,-1.3265 -3.14062,-1.5039 -1.86996,-0.2907 -3.56279,-0.4227 -5.10352,-0.3789 h -0.043 -0.043 c -0.79166,0.051 -2.36264,-0.052 -4.47657,-0.3809 -2.47424,-0.3844 -4.42756,-0.7809 -5.79882,-1.1621 -1.29653,-0.3606 -1.97354,-0.7764 -1.96485,-0.7441 -0.58896,-0.7553 -1.24581,-2.0777 -1.76172,-4.0723 l -0.0117,-0.047 -0.0137,-0.047 c -0.082,-0.2706 -0.35823,-2.7866 -0.33593,-6.4395 0.0227,-3.681 0.1382,-8.1051 0.3457,-13.2636 v -0.01 c 0.23735,-5.3789 0.64509,-11.2354 1.22461,-17.5645 0.61115,-6.5804 1.36158,-13.3892 2.2539,-20.4257 1.4191,-11.1899 2.91513,-22.9897 4.48829,-35.3946 l 0.01,-0.035 c 2.6e-4,0 -2.3e-4,8e-4 0,-0.01 1.79278,-12.3694 3.50975,-24.131 5.14844,-35.2852 1.63792,-11.1493 3.21717,-20.9405 4.73242,-29.3632 1.51309,-8.4109 2.83016,-14.2722 3.83594,-17.3164 l 0.006,-0.022 0.008,-0.021 c 2.17129,-7.0012 5.86012,-13.4031 11.13281,-19.2695 5.58454,-6.1429 11.77176,-11.1979 18.58789,-15.1954 l 0.0274,-0.016 0.0215,-0.014 c 6.84626,-4.2337 14.04613,-7.189 21.63672,-8.8906 h 0.0195 l 0.0234,-0.012 c 7.84295,-1.9064 15.19703,-2.2995 22.11719,-1.2246 7.97425,1.2386 15.23375,4.3619 21.89843,9.4414 l 0.0215,0.02 0.0234,0.018 c 6.65334,4.8166 12.26042,11.4958 16.82226,20.1543 4.54707,8.6309 7.72923,19.0514 9.48633,31.2852 1.74938,12.1803 1.65066,26.1084 -0.33594,41.7734 -1.90458,15.0186 -4.5768,29.9196 -8.01367,44.7012 v 0.016 0.018 c -3.22322,14.8391 -6.74519,28.5067 -10.56055,41 l -0.01,0.02 -0.004,0.023 c -3.5982,12.533 -7.31934,23.4157 -11.15039,32.6387 -3.74768,8.8553 -7.06815,15.0526 -9.72852,18.5098 -1.22756,0.9907 -2.25218,1.6412 -2.6914,1.8144 -0.54543,0.1109 -1.0937,0.2222 -1.64258,0.334 -1.05702,0.1263 -2.12857,0.8278 -2.66016,1.586 -0.50602,0.5991 -0.62721,1.0797 -0.74804,1.5429 -0.15307,0.5874 -0.26117,1.2351 -0.36133,2.0254 -0.22261,1.7553 0.30841,3.6793 1.58398,4.9356 1.27555,1.2566 2.96859,1.8472 4.90821,2.1484 3.52144,0.547 8.58191,1.3319 15.18359,2.3574 6.82509,1.0601 13.66516,1.9991 20.52149,2.8164 7.03786,1.0931 13.52793,2.1011 19.46679,3.0235 5.94201,0.9229 9.79382,1.5196 11.55274,1.7929 1.11558,0.1731 2.25382,-0.094 3.26953,-0.5722 0.0412,0.3844 0.0461,0.7735 0.15039,1.1465 0.0189,0.4255 1.1e-4,0.8398 0.15429,1.3105 0.24718,0.7347 0.95235,1.7087 1.99024,2.0469 0.83891,0.2732 1.62565,0.3395 2.64453,0.3867 h 0.0996 0.10156 c 0.1765,-0.01 1.55459,0.123 3.47266,0.5 1.91853,0.3769 4.51024,0.967 7.74805,1.7676 3.39059,0.8551 7.74689,2.1463 13.03906,3.8711 3.79119,1.2356 7.76913,2.6576 11.93359,4.2695 4.18832,1.6205 8.16301,3.1725 11.92578,4.6543 0.0113,0 0.0159,0.01 0.0234,0.01 3.65821,1.6966 6.75075,3.0913 9.24414,4.1601 h 0.0117 0.0117 c 2.72251,1.1449 4.29663,1.7941 5.21094,2.0918 5.29676,1.7256 10.27265,1.7748 14.57226,-0.123 3.74097,-1.2923 6.82495,-2.4557 9.21875,-3.4961 1.86343,-0.718 3.41893,-1.4311 4.68943,-2.1973 0.7621,-0.4596 1.3894,-0.8853 1.9317,-1.3555 0.542,-0.47 1.1047,-0.9166 1.4023,-2.0332 0.3125,-1.1777 -0.1451,-2.7164 -0.9531,-3.5488 -0.8081,-0.8325 -1.7395,-1.2412 -2.7969,-1.5859 -1.3153,-0.4291 -2.7972,-0.607 -4.45507,-0.6407 -0.73566,-0.1004 -4.39382,-1.0913 -9.89648,-2.8847 -4.96071,-1.6167 -8.4848,-4.7176 -10.95117,-9.7071 -2.12803,-4.6543 -2.22411,-11.644 0.26757,-21.0078 1.28262,-4.8199 3.07781,-9.8772 5.39453,-15.164 v -0.01 -0.01 c 2.40869,-5.5888 4.92432,-11.1422 7.54493,-16.6621 0,0 4.1e-4,-0.012 0.0117,-0.016 2.83098,-5.4479 5.63324,-10.7804 8.40235,-15.9941 v -0.01 l 0.01,-0.01 c 2.64127,-5.0823 5.06927,-9.8245 7.36717,-14.3613 0.03,0 0.056,-0.01 0.086,-0.01 l 0.1738,-0.016 0.1,-0.01 c 0.3923,-0.032 0.9278,0.037 1.3437,0.022 l 8.9082,-17.791 -1.5214,-0.1211 -0.166,-0.014 c 2.8226,-5.8431 5.8423,-11.9523 9.457,-18.8593 4.4342,-7.9968 8.9751,-15.9584 13.6211,-23.8867 l 0.012,-0.014 c 0,-0.01 0.012,-0.011 0.012,-0.02 4.9274,-8.1038 9.7623,-15.8561 14.5,-23.252 v -0.01 l 0.01,-0.01 c 4.7874,-7.6107 9.2844,-14.1503 13.4785,-19.6094 4.4666,-5.6214 8.3363,-9.8889 11.5195,-12.75 l 0.027,-0.022 0.027,-0.025 c 2.5881,-2.4624 4.5986,-3.3348 5.4551,-3.3476 0.046,-2e-4 0.098,6e-4 0.1562,0.01 0.1134,0.01 0.2051,0.033 0.2969,0.062 -0.086,-0.028 0.2899,0.094 0.6211,1.6407 l 0.019,0.1093 0.035,0.1055 c 0.3507,1.1187 0.6215,5.6175 0.2109,12.3164 -0.2737,4.465 -0.8378,10.9266 -1.6914,19.3477 v 0.027 0.029 c -0.6406,8.4867 -1.4361,17.5675 -2.3906,27.2383 v 0.01 c -0.8918,9.4358 -1.8585,18.7177 -2.9004,27.8477 v 0.029 0.023 c -0.7401,8.2117 -1.3039,14.8151 -1.7851,20.6758 -4.5193,-0.7475 -9.2382,-1.4724 -14.6075,-2.1269 -6.0092,-0.9316 -12.1526,-1.7814 -18.4336,-2.5469 h -0.012 -0.012 c -6.0511,-0.6941 -11.8883,-1.3184 -17.5195,-1.875 l -0.086,-0.01 c -2.2863,-0.3074 -4.1603,-0.4773 -6.1484,-0.6855 l 0.074,-0.1113 -1.8437,-0.1485 -8.8946,17.7656 c 3.4609,-0.082 7.5486,0.2704 12.5293,1.3301 6.9206,1.4965 14.0774,3.4459 21.4649,5.8535 6.3401,2.0663 12.2921,4.2633 17.8574,6.584 5.2106,2.1554 9.2163,4.0506 12.6074,5.8067 -0.8439,9.7735 -1.8551,20.1781 -3.0957,31.4472 v 0.024 0.023 c -1.0306,11.6977 -2.1194,22.734 -3.2617,33.1094 v 0.025 0.021 c -0.9302,10.4524 -1.8042,19.3838 -2.6191,26.7852 -0.8046,7.3075 -1.4742,11.8289 -1.7032,12.7422 -0.3205,0.067 -1.2726,0.076 -2.6855,-0.2734 -3.0556,-0.9909 -5.561,-1.6823 -7.6172,-2.0997 -1.6756,-0.5375 -3.7709,0.2411 -4.8516,1.5254 l -0.1054,0.127 -0.088,0.1387 c -0.606,0.9634 -1.0102,2.0648 -1.3614,3.3847 -0.3891,1.4628 -0.4884,2.9503 -0.2558,4.3887 0.2442,1.5094 1.1006,3.263 2.8418,3.8301 1.0591,0.3451 2.6837,0.7352 5.1191,1.2695 2.3872,0.5238 5.097,1.1533 8.1309,1.8867 3.0429,0.7357 6.1926,1.5054 9.4492,2.3106 3.4261,0.8641 6.4963,1.7396 9.2012,2.6211 8.2925,2.7027 15.0571,5.0342 20.2734,6.9882 5.4514,2.0318 9.863,3.5963 13.3125,4.7227 3.3028,1.3303 5.8724,2.4231 7.6543,3.25 1.9034,0.8832 3.4206,1.5172 4.6504,1.918 1.1583,0.3777 2.6156,0.4253 3.8164,-0.2989 1.2009,-0.7243 1.8171,-1.9285 2.1309,-3.1074 0.3133,-1.1782 0.3964,-2.5369 0.4746,-4.6269 0.044,-1.1826 -0.015,-2.2157 -0.3594,-3.2383 -0.3455,-1.0229 -1.2043,-2.1731 -2.4531,-2.5801 -1.2309,-0.4011 -2.908,-0.8077 -5.1446,-1.2754 h -0.014 -0.018 c -1.8444,-0.3622 -4.1414,-0.9846 -6.8496,-1.8672 -1.7179,-0.56 -2.8581,-0.9331 -3.7227,-1.2148 -0.3027,-0.2393 -0.7309,-0.6019 -1.1504,-0.957 -0.6621,-4.6468 -0.925,-12.8521 -0.6347,-24.7364 10e-5,0 -10e-5,-0.01 0,-0.014 0.5795,-12.6001 1.3088,-27.0671 2.1894,-43.4024 6e-4,-0.013 0,-0.021 0,-0.033 1.1571,-16.5162 2.4589,-34.0072 3.9043,-52.4766 v -0.027 c 1.6585,-18.4016 3.3118,-35.9093 4.9571,-52.5234 v -0.029 c 1.8585,-16.5467 3.5996,-31.3439 5.2187,-44.3809 2e-4,0 -3e-4,8e-4 0,-0.01 1.8266,-12.9252 3.4705,-22.0978 4.8555,-27.3027 0.2199,-0.8262 0.4336,-1.1963 0.58,-1.4473 6.5625,1.6613 12.5967,3.2505 17.9278,4.7442 5.6473,1.5822 10.4835,2.7721 14.5351,3.5683 l 0.07,0.012 0.07,0.01 c 4.1827,0.5641 7.6332,0.6271 10.4902,0.061 l 0.098,-0.02 0.1,-0.027 c 3.1839,-0.9146 5.5878,-3.4169 6.4492,-6.6543 0.4642,-1.7445 0.2094,-3.6305 -0.5996,-5.2734 -0.3421,-0.6946 -0.6693,-1.2793 -1.0703,-1.8106 -0.401,-0.5313 -0.8373,-1.109 -1.875,-1.4472 l -0.8379,-0.2735 -0.8125,0.3379 c 0.4313,-0.1781 -0.593,0.069 -2.0508,-0.053 -1.4577,-0.1218 -3.5209,-0.4129 -6.1289,-0.8848 h -0.014 -0.012 c -5.033,-0.88 -11.3736,-2.1822 -18.9981,-3.9004 -7.6127,-1.7156 -15.8407,-3.7555 -24.6796,-6.125 -8.8266,-2.3661 -17.3751,-4.9 -25.6465,-7.5957 -3.3594,-1.0949 -8.7564,-2.9795 -16.1426,-5.6426 -7.119,-2.5743 -15.1204,-5.8187 -23.9961,-9.7324 -8.8701,-3.9111 -18.1087,-8.1998 -27.709,-12.8594 l -0.012,-0.01 c -9.4963,-4.8744 -18.1143,-9.9663 -25.8535,-15.2735 l -0.9531,-0.6543 -1.1036,0.3399 c -2.6902,0.8311 -4.7503,3.0398 -5.4824,5.791 -0.5729,2.1528 -0.7994,4.4965 -0.71873,7.0195 v 0.1543 l 0.0273,0.1504 c 0.38502,2.3788 0.86238,4.2175 2.25778,5.6563 l 0.2305,0.2363 0.2852,0.166 c 4.131,2.4022 9.5184,5.0619 16.2031,8.0156 6.8723,3.0118 13.8805,5.9376 21.0273,8.7813 7.1399,2.8409 13.8883,5.427 20.2442,7.7558 3.1315,1.1432 4.7468,1.668 7.1679,2.5215 l -25.7148,5.8907 -0.4727,1.1386 c -6.4467,15.5431 -13.6139,31.6259 -21.5039,48.2442 -7.8285,16.3848 -15.6802,31.9913 -23.55466,46.8183 -7.87916,14.8356 -15.41195,28.3704 -22.59375,40.6016 -7.17609,12.2219 -13.27543,21.7046 -18.2461,28.4023 l -0.0117,0.012 -0.0117,0.016 c -7.30641,10.1247 -13.54997,18.0157 -18.68164,23.6367 l -0.01,0.01 -0.0117,0.012 c -4.75017,5.3332 -9.38562,8.5155 -13.8125,9.7929 -4.09979,1.1018 -6.88447,1.6409 -9.03906,1.9454 0.32352,-0.7048 0.64155,-1.4033 0.74023,-2.1817 0.16894,-1.3311 0.0151,-2.6931 -0.51562,-3.914 -0.4388,-1.0086 -0.94485,-1.903 -1.87696,-2.6133 -0.93247,-0.7108 -2.48629,-0.9586 -3.60351,-0.543 l -0.1875,0.07 -0.17383,0.1 c -1.2712,0.7338 -2.73322,1.0835 -4.58984,1.002 h -0.0156 -0.0156 c -1.86051,-0.059 -4.32846,-0.3203 -7.34766,-0.7891 -5.43929,-0.8448 -9.02355,-2.2116 -10.66797,-3.5156 -1.47859,-1.5739 -1.98056,-3.0245 -1.73047,-5 0.4148,-3.2701 1.87603,-8.1239 4.42774,-14.3223 2.57597,-6.2575 5.70275,-13.3112 9.38086,-21.1543 v -0.01 -0.01 c 3.7195,-8.1089 7.7363,-16.7933 12.05078,-26.0527 v -0.01 -0.012 c 4.36549,-9.5466 8.54158,-19.3705 12.52539,-29.4707 3.99238,-10.1218 7.54076,-20.3122 10.64844,-30.5742 v -0.01 c 3.1539,-10.5579 5.37418,-20.9004 6.6582,-31.0254 1.97461,-15.5703 1.35255,-29.508 -1.93945,-41.7871 -3.02441,-12.4222 -8.26531,-23.1219 -15.72461,-31.9863 -7.17526,-9.0329 -16.30741,-16.3296 -27.3125,-21.8555 h -0.0117 c -10.97964,-5.7707 -23.20611,-9.6929 -36.63867,-11.7793 -10.15349,-1.5771 -20.41128,-1.5122 -30.73633,0.1895 -10.2123,1.6832 -19.74423,4.1086 -28.5918,7.2812 -8.81153,3.1597 -16.67864,6.7309 -23.60351,10.7285 l -0.0195,0.014 -0.0176,0.01 c -3.9061,2.351 -7.04144,4.5022 -9.78125,6.5625 0.0968,-0.5171 0.10599,-0.6948 0.21484,-1.2598 l 0.002,-0.01 c 0.68398,-3.6225 1.38303,-7.3673 2.09766,-11.2324 0.92739,-3.8083 1.72407,-7.4076 2.37695,-10.7852 0.64698,-3.3469 1.17533,-5.7322 1.53711,-7.0058 l 0.004,-0.014 0.004,-0.014 c 0.52553,-1.9342 0.53206,-4.0635 -0.84376,-5.6152 -1.37578,-1.5517 -3.39172,-1.8486 -5.44335,-1.7168 -5.53432,0.3554 -11.36306,0.3042 -17.48633,-0.1582 -6.12761,-0.4627 -13.92129,-1.4252 -23.34375,-2.8887 l -29.37696,-4.5625 c -1.09356,-0.1698 -2.38054,10e-5 -3.38476,0.7149 -1.00422,0.71 -1.57089,1.7694 -1.87109,2.8262 -0.42716,1.5036 -0.71912,2.802 -0.86524,3.955 -0.14589,1.1525 -0.16186,2.3256 -0.0488,3.5039 0.0643,0.673 0.16291,1.298 0.51172,1.9981 0.34885,0.7 1.2166,1.581 2.30469,1.75 0.4433,0.069 1.43303,0.2217 2.97266,0.4609 l 0.1621,0.025 h 0.16602 c 1.66969,0.028 3.44411,0.1839 5.32812,0.4766 1.97971,0.3074 3.8518,0.5994 5.61329,0.873 l 0.14453,0.024 h 0.14648 c 1.95841,0.062 3.44916,0.1804 4.375,0.3242 0.53606,0.083 0.88705,0.2663 1.35742,0.8262 0.47036,0.5598 0.98434,1.5498 1.38282,3.0117 l 0.0195,0.064 0.0215,0.062 c 0.96231,2.8774 1.54659,8.2907 1.47071,15.8555 -0.0457,7.3329 -0.61628,17.1285 -1.7168,29.334 -1.10026,12.2026 -2.8071,27.4349 -5.1211,45.6816 -2.84046,22.3982 -5.37415,41.489 -7.5996,57.2695 -2.22558,15.7816 -4.23557,28.9857 -6.0293,39.6016 l -0.004,0.023 -0.004,0.024 c -1.57327,10.6428 -3.10534,19.1723 -4.57618,25.5449 -1.44574,6.1537 -2.82924,10.9375 -4.10547,14.2813 -1.21847,3.0337 -2.4315,5.0258 -3.2871,5.9238 -0.91846,0.7463 -1.87401,1.1954 -3.03516,1.375 -1.31183,0.2029 -3.30855,0.2544 -5.8457,0.1 -2.57741,-0.4003 -5.05637,-0.7885 -7.42383,-1.1563 l -4.29297,-0.666 c -1.15744,-0.1798 -2.37016,0.1497 -3.29883,0.7403 -0.57908,0.3685 -0.99081,0.9464 -1.44726,1.4648 -0.48408,-0.1895 -1.00776,-0.302 -1.52539,-0.2656 -1.28406,0.09 -2.98193,0.3426 -5.22852,0.7519 h -0.0137 -0.0156 c -1.84525,0.3593 -4.19425,0.6458 -7.00976,0.8438 -1.77732,0.1251 -2.95193,0.2083 -3.84961,0.2715 -0.32731,-0.1008 -0.80252,-0.2682 -1.25391,-0.4239 -2.05038,-4.1109 -4.82745,-11.6869 -8.22266,-22.9199 -3.35776,-12.0557 -7.15298,-25.9215 -11.38476,-41.5996 l -0.004,-0.02 c -0.002,-0.01 -0.004,-0.011 -0.008,-0.02 -4.02839,-15.9544 -8.22538,-32.8806 -12.58789,-50.7792 l -0.008,-0.025 c -4.14386,-17.9271 -8.01515,-35.0112 -11.61719,-51.252 -3.37628,-16.2368 -6.32223,-30.7826 -8.83789,-43.6367 -2.29201,-12.8575 -3.59076,-22.1055 -3.90234,-27.5313 -0.0537,-0.9334 0.0403,-1.4694 0.11132,-1.7558 6.73231,-0.9373 12.92767,-1.7383 18.4336,-2.3614 5.79566,-0.6559 10.70656,-1.373 14.75976,-2.1621 l 0.0703,-0.014 0.0684,-0.018 c 4.10137,-1.0562 7.36108,-2.3038 9.8457,-3.9043 l 0.0801,-0.053 0.0762,-0.057 c 2.6624,-2.0327 4.09484,-5.1777 3.90234,-8.5312 -0.10353,-1.8034 -0.9383,-3.5264 -2.24023,-4.795 -0.54357,-0.5297 -1.04247,-0.9617 -1.60547,-1.3222 -0.26391,-0.169 -0.5454,-0.3465 -1.13867,-0.3574 -0.59328,-0.011 -1.49846,0.1434 -3.00586,0.6386 -3.01482,0.9905 -3.40054,1.075 -7.64063,2.041 h -0.008 -0.01 c -6.08321,1.104 -11.36022,2.267 -19.05468,3.545 -7.68266,1.2761 -16.04114,2.4766 -25.07813,3.6035 -9.02406,1.1254 -17.83919,1.9906 -26.44336,2.5957 -3.49353,0.2457 -9.14706,0.5223 -16.91015,0.8223 -7.48326,0.2821 -16.00175,0.2684 -25.55079,-0.041 -9.54737,-0.3096 -19.55599,-0.8322 -30.02148,-1.5683 -10.42377,-0.9763 -20.08993,-2.4913 -28.99414,-4.5391 l -1.12109,-0.2578 -0.90039,0.7148 c -2.22335,1.7642 -3.4294,4.5032 -3.26563,7.3516 0.034,0.6183 0.17064,0.8826 0.28516,1.3613 l -0.51563,0.2344 c -0.9919,-0.6843 -2.15051,-1.202 -3.5039,-1.1875 h -0.002 c -0.94254,0.01 -1.92378,0.149 -2.97461,0.3887 -0.93426,0.2132 -2.26964,0.6542 -4.41015,1.3945 -0.008,0 -0.008,0 -0.0195,0.012 -2.01631,0.4682 -4.43089,1.1361 -7.3711,2.0528 -2.79634,0.6427 -5.76278,1.4424 -8.90429,2.4004 -3.26004,0.7436 -6.1954,1.4126 -8.80469,2.0078 l -21.47461,4.8945 c -11.15303,2.0435 -19.57321,3.5878 -25.27149,4.6367 -5.70173,0.8023 -9.78859,1.36 -12.1875,1.6602 l -0.11914,0.014 -4.35937,0.996 c -1.22026,0.2784 -2.48514,1.237 -3.00196,2.4512 -0.51678,1.2142 -0.46563,2.4218 -0.23632,3.6524 0.40871,2.1944 1.08112,4.0307 2.46484,5.3847 l 0.50781,0.4981 0.69922,0.1386 c 1.08994,0.2161 2.33048,0.5254 3.71485,0.9336 l 0.17773,0.053 0.18555,0.023 c 1.56999,0.2069 3.48805,0.2906 5.82226,0.2754 h 0.12891 l 0.12891,-0.014 c 2.27263,-0.2615 5.17293,-0.6718 8.7207,-1.2285 h 0.004 0.008 c 3.67942,-0.5926 8.3115,-1.5389 13.7207,-2.7637 0.24265,0.023 0.37416,0.043 0.59375,0.2754 0.2589,0.2733 0.62843,0.8938 0.91602,1.9453 l 0.0273,0.094 0.0332,0.094 c 0.88827,2.4391 1.54087,4.7926 1.96289,7.0586 1.29268,6.9408 1.72332,16.3675 1.22461,28.1739 -0.54485,11.5973 -1.69109,24.2232 -3.4414,37.875 l -0.002,0.012 -0.002,0.012 c -1.57867,13.3655 -3.65544,27.1007 -6.23047,41.2031 l -0.004,0.02 -0.002,0.017 c -2.36148,14.0736 -4.79296,27.1556 -7.29297,39.2442 -2.50191,12.0977 -4.85831,22.5246 -7.0664,31.2715 -1.50172,5.9486 -2.6941,10.0608 -3.72266,13.291 -3.8565,-4.97 -8.31048,-11.2068 -13.73828,-19.5586 -6.48913,-10.5413 -13.50552,-22.0898 -21.04883,-34.6445 -7.38419,-12.8679 -14.94561,-26.0733 -22.68164,-39.6133 -0.004,-0.01 -0.0118,-0.017 -0.0156,-0.025 -7.50764,-13.5703 -14.37923,-26.1555 -20.61524,-37.7598 l -0.008,-0.014 c -0.003,-0.01 -0.008,-0.014 -0.0117,-0.019 -6.01891,-11.6549 -11.02823,-21.5416 -15.02344,-29.6387 -1.99551,-4.0442 -3.52681,-7.2783 -4.58398,-9.6777 -0.46367,-1.0524 -0.46736,-1.2071 -0.74414,-1.9375 1.10718,-0.1196 1.96544,-0.1798 3.35351,-0.3652 l 0.10938,-0.016 0.10547,-0.025 c 2.8301,-0.6455 5.65953,-1.2923 8.48828,-1.9375 4.04783,-0.9234 7.21095,-2.0075 9.60742,-3.4336 2.40957,-1.356 4.18177,-2.6676 5.25977,-4.4629 0.96112,-1.3028 1.67004,-2.4825 1.83007,-3.9688 l 0.008,-0.082 0.004,-0.084 c 0.0416,-1.0964 0.0416,-1.9283 -0.11523,-2.7695 -0.35074,-1.8823 -1.85105,-3.6119 -3.67774,-4.1953 -1.8267,-0.5835 -3.78838,-0.4173 -6.08007,0.1054 -2.16133,0.493 -7.00407,2.1137 -15.28711,5.0039 -8.21418,2.6135 -21.82617,6.0984 -40.72071,10.4082 -4.96891,1.1335 -9.95947,2.1468 -14.97265,3.0411 -5.02924,0.8972 -9.60147,1.8165 -13.74805,2.7597 -3.93517,0.6483 -7.30337,1.2953 -10.16992,1.9453 -2.62349,0.3508 -4.19803,0.5757 -5.125,0.7871 -1.93541,0.4416 -3.11699,1.9978 -3.91602,3.7325 -0.41653,0.9041 -0.6274,1.8669 -0.74218,2.8457 l -24.3125,8.2148 c -0.36677,-0.72 -0.81974,-1.391 -1.50977,-1.9004 -1.03524,-0.7641 -2.4063,-0.96 -3.61133,-0.7734 -1.63522,0.03 -3.27984,0.3202 -4.90625,0.9199 l -0.17187,0.061 -0.15821,0.088 c -2.67628,1.4804 -7.9822,4.0904 -15.72265,7.7168 -7.59894,3.3161 -16.973434,7.0305 -28.115238,11.1387 -17.047064,6.2855 -30.296902,10.7783 -39.679687,13.4688 -9.298585,2.3974 -14.633321,3.8353 -16.716797,4.6035 -1.755397,0.6473 -3.19506,1.9552 -4.191406,3.5937 -1.446686,1.9785 -1.332715,4.5245 -0.541016,7.1543 0.374854,1.2451 0.84854,2.3224 1.617188,3.2383 0.768648,0.9158 1.977162,1.6391 3.255859,1.7227 l 0.242188,0.017 0.242187,-0.033 c 1.191105,-0.1644 2.567881,-0.4049 4.148438,-0.7226 l 0.04102,-0.01 0.03906,-0.01 c 2.267555,-0.5375 5.364918,-1.6992 9.568359,-3.5118 4.038291,-1.7414 7.625054,-2.932 10.722656,-3.5879 l 0.04687,-0.01 0.04883,-0.012 c 4.159761,-1.0616 6.754821,-0.6273 8.466797,0.7265 l 0.04492,0.033 0.04492,0.033 c 1.378957,0.9878 3.987967,5.236 6.388672,12.4434 0.421778,1.4011 1.114749,3.7076 2.091797,6.9531 l 0.02539,0.08 0.0293,0.08 c 1.085377,2.8539 2.51811,7.2166 4.265625,13.0215 l 0.01172,0.039 0.01563,0.045 c 1.952077,5.7121 4.299264,13.1178 7.033203,22.1993 l 0.0078,0.023 0.0098,0.025 c 2.363915,7.2136 5.339658,16.8796 9.708985,31.2871 4.369326,14.4075 7.95059,27.3977 11.531246,41.5801 3.64568,14.4398 6.90456,28.3728 9.77735,41.7968 2.79999,13.1788 4.93016,24.9098 6.39453,35.1836 l 0.004,0.02 0.004,0.022 c 1.58573,9.8512 2.08591,16.4768 1.77539,19.1113 -0.22651,0.8865 -2.34267,3.5266 -7.02148,6.4844 -4.6915,2.9658 -11.45064,6.1104 -20.208987,9.3398 -2.027733,0.7477 -3.645307,2.4128 -4.351562,4.4512 -0.667212,1.5418 -0.962705,3.199 -0.486329,4.7812 0.48316,1.605 1.565595,2.9534 2.931641,4.0156 0.684678,0.7395 1.454637,1.3787 2.427735,1.7383"
         transform="matrix(0.26458333,0,0,0.23907628,37.3666,-194.91005)"
         sodipodi:nodetypes="ccccccccssscsscsssccccccssccccccccsccccssccccsccsccccccccscccccccsccccccsssccccccsssccccccccccccsccccscscssccccssscscccccsscsssccsccsccscscccccssssscscscccccccccccccccccccccccccscsscccccscccsscccccccccccccsscscccccccsccccccccsscssccsscscscsccccscccscscscccccsccccscccscccssccccccccccscccssscccccccccccssssscsscccscccscscccccccccsscsscscscccccccccccccccccccccccccccccccccsccccccccccccccccccccsccccccccsccccccssssscsccssssscscccsccscscccccscscsccssccssscccscccssscscccccscccccscscccccssccccccccsssccccccsccsccccccsccsccccsssccccsscsscsssscccssssssccscccssccccsssscccccscccscscccsccccscccccscsscscccssssscccssscscscccccsssccccccccccssccsccccccccccccccscccccccssccccccccssccccscccccssscssccssccscccccscscssccscccsscccccccccscccccsscccccsscscc" />
    </g>
    <g
       gcodetools="Gcodetools orientation group"
       id="g16422">
      <g
         gcodetools="Gcodetools orientation point (2 points)"
         id="g16412">
        <path
           style="stroke:none;fill:#000000;"
           gcodetools="Gcodetools orientation point arrow"
           d="m 0 400 l 2.9375 -6.34375 l 0.8125 1.90625 l 6.84375 -6.84375 l 0 0 l 0.6875 0.6875 l -6.84375 6.84375 l 1.90625 0.8125 z"
           id="path16406" />
        <text
           x="10.0"
           y="390.0"
           style="font-family:DejaVu Sans;font-style:normal;font-variant:normal;font-weight:normal;font-stretch:normal;font-family:DejaVu Sans;fill:#000000;fill-opacity:1;stroke:none;font-size:10.000000px;"
           gcodetools="Gcodetools orientation point text"
           xml:space="preserve"
           id="text16410"><tspan
             x="10.0"
             y="390.0"
             sodipodi:role="line"
             id="tspan16408">(0.0; 0.0; 0.0)</tspan></text>
      </g>
      <g
         gcodetools="Gcodetools orientation point (2 points)"
         id="g16420">
        <path
           style="stroke:none;fill:#000000;"
           gcodetools="Gcodetools orientation point arrow"
           d="m 100 400 l 2.9375 -6.34375 l 0.8125 1.90625 l 6.84375 -6.84375 l 0 0 l 0.6875 0.6875 l -6.84375 6.84375 l 1.90625 0.8125 z"
           id="path16414" />
        <text
           x="110.0"
           y="390.0"
           style="font-family:DejaVu Sans;font-style:normal;font-variant:normal;font-weight:normal;font-stretch:normal;font-family:DejaVu Sans;fill:#000000;fill-opacity:1;stroke:none;font-size:10.000000px;"
           gcodetools="Gcodetools orientation point text"
           xml:space="preserve"
           id="text16418"><tspan
             x="110.0"
             y="390.0"
             sodipodi:role="line"
             id="tspan16416">(100.0; 0.0; -0.125)</tspan></text>
      </g>
    </g>
    <g
       gcodetools="Gcodetools tool definition"
       transform="translate(526.40774,205.2978)"
       id="g16636">
      <path
         gcodetools="Gcodetools tool background"
         style="fill-opacity:0.5;stroke:#444444"
         d="M -20,-20 H 380 V 350 H -20 Z"
         id="path16424" />
      <g
         gcodetools="Gcodetools tool parameter"
         id="g16434">
        <text
           x="0"
           y="0"
           style="font-style:normal;font-variant:normal;font-weight:normal;font-stretch:normal;font-size:20px;font-family:'DejaVu Sans';fill:#000000;fill-opacity:1;stroke:none"
           gcodetools="Gcodetools tool definition field name"
           xml:space="preserve"
           id="text16428"><tspan
             x="0"
             y="0"
             sodipodi:role="line"
             id="tspan16426">name</tspan></text>
        <text
           x="150"
           y="0"
           style="font-style:normal;font-variant:normal;font-weight:normal;font-stretch:normal;font-size:20px;font-family:'DejaVu Sans';fill:#000000;fill-opacity:1;stroke:none"
           gcodetools="Gcodetools tool definition field value"
           xml:space="preserve"
           id="text16432"><tspan
             x="150"
             y="0"
             sodipodi:role="line"
             id="tspan16430">Default tool</tspan></text>
      </g>
      <g
         gcodetools="Gcodetools tool parameter"
         id="g16444">
        <text
           x="0"
           y="20"
           style="font-style:normal;font-variant:normal;font-weight:normal;font-stretch:normal;font-size:10px;font-family:'DejaVu Sans';fill:#000000;fill-opacity:1;stroke:none"
           gcodetools="Gcodetools tool definition field name"
           xml:space="preserve"
           id="text16438"><tspan
             x="0"
             y="20"
             sodipodi:role="line"
             id="tspan16436">id</tspan></text>
        <text
           x="150"
           y="20"
           style="font-style:normal;font-variant:normal;font-weight:normal;font-stretch:normal;font-size:10px;font-family:'DejaVu Sans';fill:#000000;fill-opacity:1;stroke:none"
           gcodetools="Gcodetools tool definition field value"
           xml:space="preserve"
           id="text16442"><tspan
             x="150"
             y="20"
             sodipodi:role="line"
             id="tspan16440">default tool</tspan></text>
      </g>
      <g
         gcodetools="Gcodetools tool parameter"
         id="g16454">
        <text
           x="0"
           y="35"
           style="font-style:normal;font-variant:normal;font-weight:normal;font-stretch:normal;font-size:10px;font-family:'DejaVu Sans';fill:#000000;fill-opacity:1;stroke:none"
           gcodetools="Gcodetools tool definition field name"
           xml:space="preserve"
           id="text16448"><tspan
             x="0"
             y="35"
             sodipodi:role="line"
             id="tspan16446">diameter</tspan></text>
        <text
           x="150"
           y="35"
           style="font-style:normal;font-variant:normal;font-weight:normal;font-stretch:normal;font-size:10px;font-family:'DejaVu Sans';fill:#000000;fill-opacity:1;stroke:none"
           gcodetools="Gcodetools tool definition field value"
           xml:space="preserve"
           id="text16452"><tspan
             x="150"
             y="35"
             sodipodi:role="line"
             id="tspan16450">10.0</tspan></text>
      </g>
      <g
         gcodetools="Gcodetools tool parameter"
         id="g16464">
        <text
           x="0"
           y="50"
           style="font-style:normal;font-variant:normal;font-weight:normal;font-stretch:normal;font-size:10px;font-family:'DejaVu Sans';fill:#000000;fill-opacity:1;stroke:none"
           gcodetools="Gcodetools tool definition field name"
           xml:space="preserve"
           id="text16458"><tspan
             x="0"
             y="50"
             sodipodi:role="line"
             id="tspan16456">feed</tspan></text>
        <text
           x="150"
           y="50"
           style="font-style:normal;font-variant:normal;font-weight:normal;font-stretch:normal;font-size:10px;font-family:'DejaVu Sans';fill:#000000;fill-opacity:1;stroke:none"
           gcodetools="Gcodetools tool definition field value"
           xml:space="preserve"
           id="text16462"><tspan
             x="150"
             y="50"
             sodipodi:role="line"
             id="tspan16460">400.0</tspan></text>
      </g>
      <g
         gcodetools="Gcodetools tool parameter"
         id="g16474">
        <text
           x="0"
           y="65"
           style="font-style:normal;font-variant:normal;font-weight:normal;font-stretch:normal;font-size:10px;font-family:'DejaVu Sans';fill:#000000;fill-opacity:1;stroke:none"
           gcodetools="Gcodetools tool definition field name"
           xml:space="preserve"
           id="text16468"><tspan
             x="0"
             y="65"
             sodipodi:role="line"
             id="tspan16466">shape</tspan></text>
        <text
           x="150"
           y="65"
           style="font-style:normal;font-variant:normal;font-weight:normal;font-stretch:normal;font-size:10px;font-family:'DejaVu Sans';fill:#000000;fill-opacity:1;stroke:none"
           gcodetools="Gcodetools tool definition field value"
           xml:space="preserve"
           id="text16472"><tspan
             x="150"
             y="65"
             sodipodi:role="line"
             id="tspan16470">10</tspan></text>
      </g>
      <g
         gcodetools="Gcodetools tool parameter"
         id="g16484">
        <text
           x="0"
           y="80"
           style="font-style:normal;font-variant:normal;font-weight:normal;font-stretch:normal;font-size:10px;font-family:'DejaVu Sans';fill:#000000;fill-opacity:1;stroke:none"
           gcodetools="Gcodetools tool definition field name"
           xml:space="preserve"
           id="text16478"><tspan
             x="0"
             y="80"
             sodipodi:role="line"
             id="tspan16476">penetration angle</tspan></text>
        <text
           x="150"
           y="80"
           style="font-style:normal;font-variant:normal;font-weight:normal;font-stretch:normal;font-size:10px;font-family:'DejaVu Sans';fill:#000000;fill-opacity:1;stroke:none"
           gcodetools="Gcodetools tool definition field value"
           xml:space="preserve"
           id="text16482"><tspan
             x="150"
             y="80"
             sodipodi:role="line"
             id="tspan16480">90.0</tspan></text>
      </g>
      <g
         gcodetools="Gcodetools tool parameter"
         id="g16494">
        <text
           x="0"
           y="95"
           style="font-style:normal;font-variant:normal;font-weight:normal;font-stretch:normal;font-size:10px;font-family:'DejaVu Sans';fill:#000000;fill-opacity:1;stroke:none"
           gcodetools="Gcodetools tool definition field name"
           xml:space="preserve"
           id="text16488"><tspan
             x="0"
             y="95"
             sodipodi:role="line"
             id="tspan16486">penetration feed</tspan></text>
        <text
           x="150"
           y="95"
           style="font-style:normal;font-variant:normal;font-weight:normal;font-stretch:normal;font-size:10px;font-family:'DejaVu Sans';fill:#000000;fill-opacity:1;stroke:none"
           gcodetools="Gcodetools tool definition field value"
           xml:space="preserve"
           id="text16492"><tspan
             x="150"
             y="95"
             sodipodi:role="line"
             id="tspan16490">100.0</tspan></text>
      </g>
      <g
         gcodetools="Gcodetools tool parameter"
         id="g16504">
        <text
           x="0"
           y="110"
           style="font-style:normal;font-variant:normal;font-weight:normal;font-stretch:normal;font-size:10px;font-family:'DejaVu Sans';fill:#000000;fill-opacity:1;stroke:none"
           gcodetools="Gcodetools tool definition field name"
           xml:space="preserve"
           id="text16498"><tspan
             x="0"
             y="110"
             sodipodi:role="line"
             id="tspan16496">passing feed</tspan></text>
        <text
           x="150"
           y="110"
           style="font-style:normal;font-variant:normal;font-weight:normal;font-stretch:normal;font-size:10px;font-family:'DejaVu Sans';fill:#000000;fill-opacity:1;stroke:none"
           gcodetools="Gcodetools tool definition field value"
           xml:space="preserve"
           id="text16502"><tspan
             x="150"
             y="110"
             sodipodi:role="line"
             id="tspan16500">800</tspan></text>
      </g>
      <g
         gcodetools="Gcodetools tool parameter"
         id="g16514">
        <text
           x="0"
           y="125"
           style="font-style:normal;font-variant:normal;font-weight:normal;font-stretch:normal;font-size:10px;font-family:'DejaVu Sans';fill:#000000;fill-opacity:1;stroke:none"
           gcodetools="Gcodetools tool definition field name"
           xml:space="preserve"
           id="text16508"><tspan
             x="0"
             y="125"
             sodipodi:role="line"
             id="tspan16506">depth step</tspan></text>
        <text
           x="150"
           y="125"
           style="font-style:normal;font-variant:normal;font-weight:normal;font-stretch:normal;font-size:10px;font-family:'DejaVu Sans';fill:#000000;fill-opacity:1;stroke:none"
           gcodetools="Gcodetools tool definition field value"
           xml:space="preserve"
           id="text16512"><tspan
             x="150"
             y="125"
             sodipodi:role="line"
             id="tspan16510">1.0</tspan></text>
      </g>
      <g
         gcodetools="Gcodetools tool parameter"
         id="g16524">
        <text
           x="0"
           y="140"
           style="font-style:normal;font-variant:normal;font-weight:normal;font-stretch:normal;font-size:10px;font-family:'DejaVu Sans';fill:#000000;fill-opacity:1;stroke:none"
           gcodetools="Gcodetools tool definition field name"
           xml:space="preserve"
           id="text16518"><tspan
             x="0"
             y="140"
             sodipodi:role="line"
             id="tspan16516">in trajectotry</tspan></text>
        <text
           x="150"
           y="140"
           style="font-style:normal;font-variant:normal;font-weight:normal;font-stretch:normal;font-size:10px;font-family:'DejaVu Sans';fill:#000000;fill-opacity:1;stroke:none"
           gcodetools="Gcodetools tool definition field value"
           xml:space="preserve"
           id="text16522"><tspan
             x="150"
             y="140"
             sodipodi:role="line"
             id="tspan16520">(None)</tspan></text>
      </g>
      <g
         gcodetools="Gcodetools tool parameter"
         id="g16534">
        <text
           x="0"
           y="155"
           style="font-style:normal;font-variant:normal;font-weight:normal;font-stretch:normal;font-size:10px;font-family:'DejaVu Sans';fill:#000000;fill-opacity:1;stroke:none"
           gcodetools="Gcodetools tool definition field name"
           xml:space="preserve"
           id="text16528"><tspan
             x="0"
             y="155"
             sodipodi:role="line"
             id="tspan16526">out trajectotry</tspan></text>
        <text
           x="150"
           y="155"
           style="font-style:normal;font-variant:normal;font-weight:normal;font-stretch:normal;font-size:10px;font-family:'DejaVu Sans';fill:#000000;fill-opacity:1;stroke:none"
           gcodetools="Gcodetools tool definition field value"
           xml:space="preserve"
           id="text16532"><tspan
             x="150"
             y="155"
             sodipodi:role="line"
             id="tspan16530">(None)</tspan></text>
      </g>
      <g
         gcodetools="Gcodetools tool parameter"
         id="g16544">
        <text
           x="0"
           y="170"
           style="font-style:normal;font-variant:normal;font-weight:normal;font-stretch:normal;font-size:10px;font-family:'DejaVu Sans';fill:#000000;fill-opacity:1;stroke:none"
           gcodetools="Gcodetools tool definition field name"
           xml:space="preserve"
           id="text16538"><tspan
             x="0"
             y="170"
             sodipodi:role="line"
             id="tspan16536">gcode before path</tspan></text>
        <text
           x="150"
           y="170"
           style="font-style:normal;font-variant:normal;font-weight:normal;font-stretch:normal;font-size:10px;font-family:'DejaVu Sans';fill:#000000;fill-opacity:1;stroke:none"
           gcodetools="Gcodetools tool definition field value"
           xml:space="preserve"
           id="text16542"><tspan
             x="150"
             y="170"
             sodipodi:role="line"
             id="tspan16540">(None)</tspan></text>
      </g>
      <g
         gcodetools="Gcodetools tool parameter"
         id="g16554">
        <text
           x="0"
           y="185"
           style="font-style:normal;font-variant:normal;font-weight:normal;font-stretch:normal;font-size:10px;font-family:'DejaVu Sans';fill:#000000;fill-opacity:1;stroke:none"
           gcodetools="Gcodetools tool definition field name"
           xml:space="preserve"
           id="text16548"><tspan
             x="0"
             y="185"
             sodipodi:role="line"
             id="tspan16546">gcode after path</tspan></text>
        <text
           x="150"
           y="185"
           style="font-style:normal;font-variant:normal;font-weight:normal;font-stretch:normal;font-size:10px;font-family:'DejaVu Sans';fill:#000000;fill-opacity:1;stroke:none"
           gcodetools="Gcodetools tool definition field value"
           xml:space="preserve"
           id="text16552"><tspan
             x="150"
             y="185"
             sodipodi:role="line"
             id="tspan16550">(None)</tspan></text>
      </g>
      <g
         gcodetools="Gcodetools tool parameter"
         id="g16564">
        <text
           x="0"
           y="200"
           style="font-style:normal;font-variant:normal;font-weight:normal;font-stretch:normal;font-size:10px;font-family:'DejaVu Sans';fill:#000000;fill-opacity:1;stroke:none"
           gcodetools="Gcodetools tool definition field name"
           xml:space="preserve"
           id="text16558"><tspan
             x="0"
             y="200"
             sodipodi:role="line"
             id="tspan16556">sog</tspan></text>
        <text
           x="150"
           y="200"
           style="font-style:normal;font-variant:normal;font-weight:normal;font-stretch:normal;font-size:10px;font-family:'DejaVu Sans';fill:#000000;fill-opacity:1;stroke:none"
           gcodetools="Gcodetools tool definition field value"
           xml:space="preserve"
           id="text16562"><tspan
             x="150"
             y="200"
             sodipodi:role="line"
             id="tspan16560">(None)</tspan></text>
      </g>
      <g
         gcodetools="Gcodetools tool parameter"
         id="g16574">
        <text
           x="0"
           y="215"
           style="font-style:normal;font-variant:normal;font-weight:normal;font-stretch:normal;font-size:10px;font-family:'DejaVu Sans';fill:#000000;fill-opacity:1;stroke:none"
           gcodetools="Gcodetools tool definition field name"
           xml:space="preserve"
           id="text16568"><tspan
             x="0"
             y="215"
             sodipodi:role="line"
             id="tspan16566">spinlde rpm</tspan></text>
        <text
           x="150"
           y="215"
           style="font-style:normal;font-variant:normal;font-weight:normal;font-stretch:normal;font-size:10px;font-family:'DejaVu Sans';fill:#000000;fill-opacity:1;stroke:none"
           gcodetools="Gcodetools tool definition field value"
           xml:space="preserve"
           id="text16572"><tspan
             x="150"
             y="215"
             sodipodi:role="line"
             id="tspan16570">(None)</tspan></text>
      </g>
      <g
         gcodetools="Gcodetools tool parameter"
         id="g16584">
        <text
           x="0"
           y="230"
           style="font-style:normal;font-variant:normal;font-weight:normal;font-stretch:normal;font-size:10px;font-family:'DejaVu Sans';fill:#000000;fill-opacity:1;stroke:none"
           gcodetools="Gcodetools tool definition field name"
           xml:space="preserve"
           id="text16578"><tspan
             x="0"
             y="230"
             sodipodi:role="line"
             id="tspan16576">CW or CCW</tspan></text>
        <text
           x="150"
           y="230"
           style="font-style:normal;font-variant:normal;font-weight:normal;font-stretch:normal;font-size:10px;font-family:'DejaVu Sans';fill:#000000;fill-opacity:1;stroke:none"
           gcodetools="Gcodetools tool definition field value"
           xml:space="preserve"
           id="text16582"><tspan
             x="150"
             y="230"
             sodipodi:role="line"
             id="tspan16580">(None)</tspan></text>
      </g>
      <g
         gcodetools="Gcodetools tool parameter"
         id="g16594">
        <text
           x="0"
           y="245"
           style="font-style:normal;font-variant:normal;font-weight:normal;font-stretch:normal;font-size:10px;font-family:'DejaVu Sans';fill:#000000;fill-opacity:1;stroke:none"
           gcodetools="Gcodetools tool definition field name"
           xml:space="preserve"
           id="text16588"><tspan
             x="0"
             y="245"
             sodipodi:role="line"
             id="tspan16586">tool change gcode</tspan></text>
        <text
           x="150"
           y="245"
           style="font-style:normal;font-variant:normal;font-weight:normal;font-stretch:normal;font-size:10px;font-family:'DejaVu Sans';fill:#000000;fill-opacity:1;stroke:none"
           gcodetools="Gcodetools tool definition field value"
           xml:space="preserve"
           id="text16592"><tspan
             x="150"
             y="245"
             sodipodi:role="line"
             id="tspan16590">(None)</tspan></text>
      </g>
      <g
         gcodetools="Gcodetools tool parameter"
         id="g16604">
        <text
           x="0"
           y="260"
           style="font-style:normal;font-variant:normal;font-weight:normal;font-stretch:normal;font-size:10px;font-family:'DejaVu Sans';fill:#000000;fill-opacity:1;stroke:none"
           gcodetools="Gcodetools tool definition field name"
           xml:space="preserve"
           id="text16598"><tspan
             x="0"
             y="260"
             sodipodi:role="line"
             id="tspan16596">4th axis meaning</tspan></text>
        <text
           x="150"
           y="260"
           style="font-style:normal;font-variant:normal;font-weight:normal;font-stretch:normal;font-size:10px;font-family:'DejaVu Sans';fill:#000000;fill-opacity:1;stroke:none"
           gcodetools="Gcodetools tool definition field value"
           xml:space="preserve"
           id="text16602"><tspan
             x="150"
             y="260"
             sodipodi:role="line"
             id="tspan16600">(None)</tspan></text>
      </g>
      <g
         gcodetools="Gcodetools tool parameter"
         id="g16614">
        <text
           x="0"
           y="275"
           style="font-style:normal;font-variant:normal;font-weight:normal;font-stretch:normal;font-size:10px;font-family:'DejaVu Sans';fill:#000000;fill-opacity:1;stroke:none"
           gcodetools="Gcodetools tool definition field name"
           xml:space="preserve"
           id="text16608"><tspan
             x="0"
             y="275"
             sodipodi:role="line"
             id="tspan16606">4th axis scale</tspan></text>
        <text
           x="150"
           y="275"
           style="font-style:normal;font-variant:normal;font-weight:normal;font-stretch:normal;font-size:10px;font-family:'DejaVu Sans';fill:#000000;fill-opacity:1;stroke:none"
           gcodetools="Gcodetools tool definition field value"
           xml:space="preserve"
           id="text16612"><tspan
             x="150"
             y="275"
             sodipodi:role="line"
             id="tspan16610">1.0</tspan></text>
      </g>
      <g
         gcodetools="Gcodetools tool parameter"
         id="g16624">
        <text
           x="0"
           y="290"
           style="font-style:normal;font-variant:normal;font-weight:normal;font-stretch:normal;font-size:10px;font-family:'DejaVu Sans';fill:#000000;fill-opacity:1;stroke:none"
           gcodetools="Gcodetools tool definition field name"
           xml:space="preserve"
           id="text16618"><tspan
             x="0"
             y="290"
             sodipodi:role="line"
             id="tspan16616">4th axis offset</tspan></text>
        <text
           x="150"
           y="290"
           style="font-style:normal;font-variant:normal;font-weight:normal;font-stretch:normal;font-size:10px;font-family:'DejaVu Sans';fill:#000000;fill-opacity:1;stroke:none"
           gcodetools="Gcodetools tool definition field value"
           xml:space="preserve"
           id="text16622"><tspan
             x="150"
             y="290"
             sodipodi:role="line"
             id="tspan16620">0.0</tspan></text>
      </g>
      <g
         gcodetools="Gcodetools tool parameter"
         id="g16634">
        <text
           x="0"
           y="305"
           style="font-style:normal;font-variant:normal;font-weight:normal;font-stretch:normal;font-size:10px;font-family:'DejaVu Sans';fill:#000000;fill-opacity:1;stroke:none"
           gcodetools="Gcodetools tool definition field name"
           xml:space="preserve"
           id="text16628"><tspan
             x="0"
             y="305"
             sodipodi:role="line"
             id="tspan16626">fine feed</tspan></text>
        <text
           x="150"
           y="305"
           style="font-style:normal;font-variant:normal;font-weight:normal;font-stretch:normal;font-size:10px;font-family:'DejaVu Sans';fill:#000000;fill-opacity:1;stroke:none"
           gcodetools="Gcodetools tool definition field value"
           xml:space="preserve"
           id="text16632"><tspan
             x="150"
             y="305"
             sodipodi:role="line"
             id="tspan16630">800</tspan></text>
      </g>
    </g>
    <g
       id="g16638" />
    <g
       gcodetools="Preview group"
       id="g19102" />
    <g
       gcodetools="Preview group"
       id="g19104" />
    <g
       gcodetools="Preview group"
       id="g19106" />
    <g
       gcodetools="Preview group"
       id="g19108" />
    <g
       id="g22839" />
    <g
       gcodetools="Preview group"
       id="g25315" />
    <g
       gcodetools="Preview group"
       id="g25317" />
    <g
       id="g27296" />
    <g
       gcodetools="Preview group"
       id="g29768" />
    <g
       gcodetools="Preview group"
       id="g29770" />
    <g
       id="g31571" />
    <g
       gcodetools="Preview group"
       id="g34035" />
    <g
       gcodetools="Preview group"
       id="g34037" />
    <g
       id="g36603" />
    <g
       gcodetools="Preview group"
       id="g39067" />
    <g
       gcodetools="Preview group"
       id="g39069" />
  </g>
</svg>
