<?xml version="1.0" encoding="UTF-8" standalone="no"?>
<!-- Created with Inkscape (http://www.inkscape.org/) -->

<svg
   sodipodi:docname="ivana puzzle.svg"
   inkscape:version="1.1.2 (b8e25be8, 2022-02-05)"
   id="svg2569"
   version="1.1"
   viewBox="0 0 400 400"
   height="400mm"
   width="400mm"
   xmlns:inkscape="http://www.inkscape.org/namespaces/inkscape"
   xmlns:sodipodi="http://sodipodi.sourceforge.net/DTD/sodipodi-0.dtd"
   xmlns="http://www.w3.org/2000/svg"
   xmlns:svg="http://www.w3.org/2000/svg">
  <sodipodi:namedview
     id="namedview2571"
     pagecolor="#ffffff"
     bordercolor="#666666"
     borderopacity="1.0"
     inkscape:pageshadow="2"
     inkscape:pageopacity="0.0"
     inkscape:pagecheckerboard="0"
     inkscape:document-units="px"
     showgrid="false"
     inkscape:snap-to-guides="true"
     width="400mm"
     inkscape:object-nodes="true"
     inkscape:snap-global="true"
     inkscape:snap-intersection-paths="true"
     inkscape:zoom="1.2409724"
     inkscape:cx="650.29649"
     inkscape:cy="1263.9282"
     inkscape:window-width="2117"
     inkscape:window-height="1123"
     inkscape:window-x="2003"
     inkscape:window-y="187"
     inkscape:window-maximized="0"
     inkscape:current-layer="layer1" />
  <defs
     id="defs2566">
    <inkscape:perspective
       sodipodi:type="inkscape:persp3d"
       inkscape:vp_x="0 : 200 : 1"
       inkscape:vp_y="0 : 1000 : 0"
       inkscape:vp_z="400 : 200 : 1"
       inkscape:persp3d-origin="200 : 133.33333 : 1"
       id="perspective17625" />
    <marker
       id="CheckToolsAndOPMarker"
       orient="auto"
       refX="-4"
       refY="-1.687441"
       style="overflow:visible">
      <path
         d="m 4.588864,-1.687441 0.0,0.0 L 9.177728,0.0 c -0.73311,-0.996261 -0.728882,-2.359329 0.0,-3.374882"
         style="fill:#000044;fill-rule:evenodd;stroke:none"
         id="path1196" />
    </marker>
    <marker
       id="DrawCurveMarker"
       orient="auto"
       refX="-4"
       refY="-1.687441"
       style="overflow:visible">
      <path
         d="m 4.588864,-1.687441 0.0,0.0 L 9.177728,0.0 c -0.73311,-0.996261 -0.728882,-2.359329 0.0,-3.374882"
         style="fill:#000044;fill-rule:evenodd;stroke:none"
         id="path1199" />
    </marker>
    <marker
       id="DrawCurveMarker_r"
       orient="auto"
       refX="4"
       refY="-1.687441"
       style="overflow:visible">
      <path
         d="m -4.588864,-1.687441 0.0,0.0 L -9.177728,0.0 c 0.73311,-0.996261 0.728882,-2.359329 0.0,-3.374882"
         style="fill:#000044;fill-rule:evenodd;stroke:none"
         id="path1202" />
    </marker>
    <marker
       id="InOutPathMarker"
       orient="auto"
       refX="-4"
       refY="-1.687441"
       style="overflow:visible">
      <path
         d="m 4.588864,-1.687441 0.0,0.0 L 9.177728,0.0 c -0.73311,-0.996261 -0.728882,-2.359329 0.0,-3.374882"
         style="fill:#0072a7;fill-rule:evenodd;stroke:none"
         id="path1205" />
    </marker>
  </defs>
  <g
     inkscape:label="Layer 1"
     inkscape:groupmode="layer"
     id="layer1">
    <g
       gcodetools="Gcodetools orientation group"
       id="g1226">
      <g
         gcodetools="Gcodetools orientation point (2 points)"
         id="g1216">
        <path
           style="stroke:none;fill:#000000;"
           gcodetools="Gcodetools orientation point arrow"
           d="m 0 400 l 2.9375 -6.34375 l 0.8125 1.90625 l 6.84375 -6.84375 l 0 0 l 0.6875 0.6875 l -6.84375 6.84375 l 1.90625 0.8125 z"
           id="path1210" />
        <text
           x="10.0"
           y="390.0"
           style="font-family:DejaVu Sans;font-style:normal;font-variant:normal;font-weight:normal;font-stretch:normal;font-family:DejaVu Sans;fill:#000000;fill-opacity:1;stroke:none;font-size:10.000000px;"
           gcodetools="Gcodetools orientation point text"
           xml:space="preserve"
           id="text1214"><tspan
             x="10.0"
             y="390.0"
             sodipodi:role="line"
             id="tspan1212">(0.0; 0.0; 0.0)</tspan></text>
      </g>
      <g
         gcodetools="Gcodetools orientation point (2 points)"
         id="g1224">
        <path
           style="stroke:none;fill:#000000;"
           gcodetools="Gcodetools orientation point arrow"
           d="m 100 400 l 2.9375 -6.34375 l 0.8125 1.90625 l 6.84375 -6.84375 l 0 0 l 0.6875 0.6875 l -6.84375 6.84375 l 1.90625 0.8125 z"
           id="path1218" />
        <text
           x="110.0"
           y="390.0"
           style="font-family:DejaVu Sans;font-style:normal;font-variant:normal;font-weight:normal;font-stretch:normal;font-family:DejaVu Sans;fill:#000000;fill-opacity:1;stroke:none;font-size:10.000000px;"
           gcodetools="Gcodetools orientation point text"
           xml:space="preserve"
           id="text1222"><tspan
             x="110.0"
             y="390.0"
             sodipodi:role="line"
             id="tspan1220">(100.0; 0.0; -0.125)</tspan></text>
      </g>
    </g>
    <g
       gcodetools="Gcodetools tool definition"
       transform="translate(451.68243,86.969427)"
       id="g1440">
      <path
         gcodetools="Gcodetools tool background"
         style="fill-opacity:0.5;stroke:#444444"
         d="M -20,-20 H 380 V 350 H -20 Z"
         id="path1228" />
      <g
         gcodetools="Gcodetools tool parameter"
         id="g1238">
        <text
           x="0"
           y="0"
           style="font-style:normal;font-variant:normal;font-weight:normal;font-stretch:normal;font-size:20px;font-family:'DejaVu Sans';fill:#000000;fill-opacity:1;stroke:none"
           gcodetools="Gcodetools tool definition field name"
           xml:space="preserve"
           id="text1232"><tspan
             x="0"
             y="0"
             sodipodi:role="line"
             id="tspan1230">name</tspan></text>
        <text
           x="150"
           y="0"
           style="font-style:normal;font-variant:normal;font-weight:normal;font-stretch:normal;font-size:20px;font-family:'DejaVu Sans';fill:#000000;fill-opacity:1;stroke:none"
           gcodetools="Gcodetools tool definition field value"
           xml:space="preserve"
           id="text1236"><tspan
             x="150"
             y="0"
             sodipodi:role="line"
             id="tspan1234">Default tool</tspan></text>
      </g>
      <g
         gcodetools="Gcodetools tool parameter"
         id="g1248">
        <text
           x="0"
           y="20"
           style="font-style:normal;font-variant:normal;font-weight:normal;font-stretch:normal;font-size:10px;font-family:'DejaVu Sans';fill:#000000;fill-opacity:1;stroke:none"
           gcodetools="Gcodetools tool definition field name"
           xml:space="preserve"
           id="text1242"><tspan
             x="0"
             y="20"
             sodipodi:role="line"
             id="tspan1240">id</tspan></text>
        <text
           x="150"
           y="20"
           style="font-style:normal;font-variant:normal;font-weight:normal;font-stretch:normal;font-size:10px;font-family:'DejaVu Sans';fill:#000000;fill-opacity:1;stroke:none"
           gcodetools="Gcodetools tool definition field value"
           xml:space="preserve"
           id="text1246"><tspan
             x="150"
             y="20"
             sodipodi:role="line"
             id="tspan1244">default tool</tspan></text>
      </g>
      <g
         gcodetools="Gcodetools tool parameter"
         id="g1258">
        <text
           x="0"
           y="35"
           style="font-style:normal;font-variant:normal;font-weight:normal;font-stretch:normal;font-size:10px;font-family:'DejaVu Sans';fill:#000000;fill-opacity:1;stroke:none"
           gcodetools="Gcodetools tool definition field name"
           xml:space="preserve"
           id="text1252"><tspan
             x="0"
             y="35"
             sodipodi:role="line"
             id="tspan1250">diameter</tspan></text>
        <text
           x="150"
           y="35"
           style="font-style:normal;font-variant:normal;font-weight:normal;font-stretch:normal;font-size:10px;font-family:'DejaVu Sans';fill:#000000;fill-opacity:1;stroke:none"
           gcodetools="Gcodetools tool definition field value"
           xml:space="preserve"
           id="text1256"><tspan
             x="150"
             y="35"
             sodipodi:role="line"
             id="tspan1254">10.0</tspan></text>
      </g>
      <g
         gcodetools="Gcodetools tool parameter"
         id="g1268">
        <text
           x="0"
           y="50"
           style="font-style:normal;font-variant:normal;font-weight:normal;font-stretch:normal;font-size:10px;font-family:'DejaVu Sans';fill:#000000;fill-opacity:1;stroke:none"
           gcodetools="Gcodetools tool definition field name"
           xml:space="preserve"
           id="text1262"><tspan
             x="0"
             y="50"
             sodipodi:role="line"
             id="tspan1260">feed</tspan></text>
        <text
           x="150"
           y="50"
           style="font-style:normal;font-variant:normal;font-weight:normal;font-stretch:normal;font-size:10px;font-family:'DejaVu Sans';fill:#000000;fill-opacity:1;stroke:none"
           gcodetools="Gcodetools tool definition field value"
           xml:space="preserve"
           id="text1266"><tspan
             x="150"
             y="50"
             sodipodi:role="line"
             id="tspan1264">400.0</tspan></text>
      </g>
      <g
         gcodetools="Gcodetools tool parameter"
         id="g1278">
        <text
           x="0"
           y="65"
           style="font-style:normal;font-variant:normal;font-weight:normal;font-stretch:normal;font-size:10px;font-family:'DejaVu Sans';fill:#000000;fill-opacity:1;stroke:none"
           gcodetools="Gcodetools tool definition field name"
           xml:space="preserve"
           id="text1272"><tspan
             x="0"
             y="65"
             sodipodi:role="line"
             id="tspan1270">shape</tspan></text>
        <text
           x="150"
           y="65"
           style="font-style:normal;font-variant:normal;font-weight:normal;font-stretch:normal;font-size:10px;font-family:'DejaVu Sans';fill:#000000;fill-opacity:1;stroke:none"
           gcodetools="Gcodetools tool definition field value"
           xml:space="preserve"
           id="text1276"><tspan
             x="150"
             y="65"
             sodipodi:role="line"
             id="tspan1274">10</tspan></text>
      </g>
      <g
         gcodetools="Gcodetools tool parameter"
         id="g1288">
        <text
           x="0"
           y="80"
           style="font-style:normal;font-variant:normal;font-weight:normal;font-stretch:normal;font-size:10px;font-family:'DejaVu Sans';fill:#000000;fill-opacity:1;stroke:none"
           gcodetools="Gcodetools tool definition field name"
           xml:space="preserve"
           id="text1282"><tspan
             x="0"
             y="80"
             sodipodi:role="line"
             id="tspan1280">penetration angle</tspan></text>
        <text
           x="150"
           y="80"
           style="font-style:normal;font-variant:normal;font-weight:normal;font-stretch:normal;font-size:10px;font-family:'DejaVu Sans';fill:#000000;fill-opacity:1;stroke:none"
           gcodetools="Gcodetools tool definition field value"
           xml:space="preserve"
           id="text1286"><tspan
             x="150"
             y="80"
             sodipodi:role="line"
             id="tspan1284">90.0</tspan></text>
      </g>
      <g
         gcodetools="Gcodetools tool parameter"
         id="g1298">
        <text
           x="0"
           y="95"
           style="font-style:normal;font-variant:normal;font-weight:normal;font-stretch:normal;font-size:10px;font-family:'DejaVu Sans';fill:#000000;fill-opacity:1;stroke:none"
           gcodetools="Gcodetools tool definition field name"
           xml:space="preserve"
           id="text1292"><tspan
             x="0"
             y="95"
             sodipodi:role="line"
             id="tspan1290">penetration feed</tspan></text>
        <text
           x="150"
           y="95"
           style="font-style:normal;font-variant:normal;font-weight:normal;font-stretch:normal;font-size:10px;font-family:'DejaVu Sans';fill:#000000;fill-opacity:1;stroke:none"
           gcodetools="Gcodetools tool definition field value"
           xml:space="preserve"
           id="text1296"><tspan
             x="150"
             y="95"
             sodipodi:role="line"
             id="tspan1294">100.0</tspan></text>
      </g>
      <g
         gcodetools="Gcodetools tool parameter"
         id="g1308">
        <text
           x="0"
           y="110"
           style="font-style:normal;font-variant:normal;font-weight:normal;font-stretch:normal;font-size:10px;font-family:'DejaVu Sans';fill:#000000;fill-opacity:1;stroke:none"
           gcodetools="Gcodetools tool definition field name"
           xml:space="preserve"
           id="text1302"><tspan
             x="0"
             y="110"
             sodipodi:role="line"
             id="tspan1300">passing feed</tspan></text>
        <text
           x="150"
           y="110"
           style="font-style:normal;font-variant:normal;font-weight:normal;font-stretch:normal;font-size:10px;font-family:'DejaVu Sans';fill:#000000;fill-opacity:1;stroke:none"
           gcodetools="Gcodetools tool definition field value"
           xml:space="preserve"
           id="text1306"><tspan
             x="150"
             y="110"
             sodipodi:role="line"
             id="tspan1304">800</tspan></text>
      </g>
      <g
         gcodetools="Gcodetools tool parameter"
         id="g1318">
        <text
           x="0"
           y="125"
           style="font-style:normal;font-variant:normal;font-weight:normal;font-stretch:normal;font-size:10px;font-family:'DejaVu Sans';fill:#000000;fill-opacity:1;stroke:none"
           gcodetools="Gcodetools tool definition field name"
           xml:space="preserve"
           id="text1312"><tspan
             x="0"
             y="125"
             sodipodi:role="line"
             id="tspan1310">depth step</tspan></text>
        <text
           x="150"
           y="125"
           style="font-style:normal;font-variant:normal;font-weight:normal;font-stretch:normal;font-size:10px;font-family:'DejaVu Sans';fill:#000000;fill-opacity:1;stroke:none"
           gcodetools="Gcodetools tool definition field value"
           xml:space="preserve"
           id="text1316"><tspan
             x="150"
             y="125"
             sodipodi:role="line"
             id="tspan1314">1.0</tspan></text>
      </g>
      <g
         gcodetools="Gcodetools tool parameter"
         id="g1328">
        <text
           x="0"
           y="140"
           style="font-style:normal;font-variant:normal;font-weight:normal;font-stretch:normal;font-size:10px;font-family:'DejaVu Sans';fill:#000000;fill-opacity:1;stroke:none"
           gcodetools="Gcodetools tool definition field name"
           xml:space="preserve"
           id="text1322"><tspan
             x="0"
             y="140"
             sodipodi:role="line"
             id="tspan1320">in trajectotry</tspan></text>
        <text
           x="150"
           y="140"
           style="font-style:normal;font-variant:normal;font-weight:normal;font-stretch:normal;font-size:10px;font-family:'DejaVu Sans';fill:#000000;fill-opacity:1;stroke:none"
           gcodetools="Gcodetools tool definition field value"
           xml:space="preserve"
           id="text1326"><tspan
             x="150"
             y="140"
             sodipodi:role="line"
             id="tspan1324">(None)</tspan></text>
      </g>
      <g
         gcodetools="Gcodetools tool parameter"
         id="g1338">
        <text
           x="0"
           y="155"
           style="font-style:normal;font-variant:normal;font-weight:normal;font-stretch:normal;font-size:10px;font-family:'DejaVu Sans';fill:#000000;fill-opacity:1;stroke:none"
           gcodetools="Gcodetools tool definition field name"
           xml:space="preserve"
           id="text1332"><tspan
             x="0"
             y="155"
             sodipodi:role="line"
             id="tspan1330">out trajectotry</tspan></text>
        <text
           x="150"
           y="155"
           style="font-style:normal;font-variant:normal;font-weight:normal;font-stretch:normal;font-size:10px;font-family:'DejaVu Sans';fill:#000000;fill-opacity:1;stroke:none"
           gcodetools="Gcodetools tool definition field value"
           xml:space="preserve"
           id="text1336"><tspan
             x="150"
             y="155"
             sodipodi:role="line"
             id="tspan1334">(None)</tspan></text>
      </g>
      <g
         gcodetools="Gcodetools tool parameter"
         id="g1348">
        <text
           x="0"
           y="170"
           style="font-style:normal;font-variant:normal;font-weight:normal;font-stretch:normal;font-size:10px;font-family:'DejaVu Sans';fill:#000000;fill-opacity:1;stroke:none"
           gcodetools="Gcodetools tool definition field name"
           xml:space="preserve"
           id="text1342"><tspan
             x="0"
             y="170"
             sodipodi:role="line"
             id="tspan1340">gcode before path</tspan></text>
        <text
           x="150"
           y="170"
           style="font-style:normal;font-variant:normal;font-weight:normal;font-stretch:normal;font-size:10px;font-family:'DejaVu Sans';fill:#000000;fill-opacity:1;stroke:none"
           gcodetools="Gcodetools tool definition field value"
           xml:space="preserve"
           id="text1346"><tspan
             x="150"
             y="170"
             sodipodi:role="line"
             id="tspan1344">(None)</tspan></text>
      </g>
      <g
         gcodetools="Gcodetools tool parameter"
         id="g1358">
        <text
           x="0"
           y="185"
           style="font-style:normal;font-variant:normal;font-weight:normal;font-stretch:normal;font-size:10px;font-family:'DejaVu Sans';fill:#000000;fill-opacity:1;stroke:none"
           gcodetools="Gcodetools tool definition field name"
           xml:space="preserve"
           id="text1352"><tspan
             x="0"
             y="185"
             sodipodi:role="line"
             id="tspan1350">gcode after path</tspan></text>
        <text
           x="150"
           y="185"
           style="font-style:normal;font-variant:normal;font-weight:normal;font-stretch:normal;font-size:10px;font-family:'DejaVu Sans';fill:#000000;fill-opacity:1;stroke:none"
           gcodetools="Gcodetools tool definition field value"
           xml:space="preserve"
           id="text1356"><tspan
             x="150"
             y="185"
             sodipodi:role="line"
             id="tspan1354">(None)</tspan></text>
      </g>
      <g
         gcodetools="Gcodetools tool parameter"
         id="g1368">
        <text
           x="0"
           y="200"
           style="font-style:normal;font-variant:normal;font-weight:normal;font-stretch:normal;font-size:10px;font-family:'DejaVu Sans';fill:#000000;fill-opacity:1;stroke:none"
           gcodetools="Gcodetools tool definition field name"
           xml:space="preserve"
           id="text1362"><tspan
             x="0"
             y="200"
             sodipodi:role="line"
             id="tspan1360">sog</tspan></text>
        <text
           x="150"
           y="200"
           style="font-style:normal;font-variant:normal;font-weight:normal;font-stretch:normal;font-size:10px;font-family:'DejaVu Sans';fill:#000000;fill-opacity:1;stroke:none"
           gcodetools="Gcodetools tool definition field value"
           xml:space="preserve"
           id="text1366"><tspan
             x="150"
             y="200"
             sodipodi:role="line"
             id="tspan1364">(None)</tspan></text>
      </g>
      <g
         gcodetools="Gcodetools tool parameter"
         id="g1378">
        <text
           x="0"
           y="215"
           style="font-style:normal;font-variant:normal;font-weight:normal;font-stretch:normal;font-size:10px;font-family:'DejaVu Sans';fill:#000000;fill-opacity:1;stroke:none"
           gcodetools="Gcodetools tool definition field name"
           xml:space="preserve"
           id="text1372"><tspan
             x="0"
             y="215"
             sodipodi:role="line"
             id="tspan1370">spinlde rpm</tspan></text>
        <text
           x="150"
           y="215"
           style="font-style:normal;font-variant:normal;font-weight:normal;font-stretch:normal;font-size:10px;font-family:'DejaVu Sans';fill:#000000;fill-opacity:1;stroke:none"
           gcodetools="Gcodetools tool definition field value"
           xml:space="preserve"
           id="text1376"><tspan
             x="150"
             y="215"
             sodipodi:role="line"
             id="tspan1374">(None)</tspan></text>
      </g>
      <g
         gcodetools="Gcodetools tool parameter"
         id="g1388">
        <text
           x="0"
           y="230"
           style="font-style:normal;font-variant:normal;font-weight:normal;font-stretch:normal;font-size:10px;font-family:'DejaVu Sans';fill:#000000;fill-opacity:1;stroke:none"
           gcodetools="Gcodetools tool definition field name"
           xml:space="preserve"
           id="text1382"><tspan
             x="0"
             y="230"
             sodipodi:role="line"
             id="tspan1380">CW or CCW</tspan></text>
        <text
           x="150"
           y="230"
           style="font-style:normal;font-variant:normal;font-weight:normal;font-stretch:normal;font-size:10px;font-family:'DejaVu Sans';fill:#000000;fill-opacity:1;stroke:none"
           gcodetools="Gcodetools tool definition field value"
           xml:space="preserve"
           id="text1386"><tspan
             x="150"
             y="230"
             sodipodi:role="line"
             id="tspan1384">(None)</tspan></text>
      </g>
      <g
         gcodetools="Gcodetools tool parameter"
         id="g1398">
        <text
           x="0"
           y="245"
           style="font-style:normal;font-variant:normal;font-weight:normal;font-stretch:normal;font-size:10px;font-family:'DejaVu Sans';fill:#000000;fill-opacity:1;stroke:none"
           gcodetools="Gcodetools tool definition field name"
           xml:space="preserve"
           id="text1392"><tspan
             x="0"
             y="245"
             sodipodi:role="line"
             id="tspan1390">tool change gcode</tspan></text>
        <text
           x="150"
           y="245"
           style="font-style:normal;font-variant:normal;font-weight:normal;font-stretch:normal;font-size:10px;font-family:'DejaVu Sans';fill:#000000;fill-opacity:1;stroke:none"
           gcodetools="Gcodetools tool definition field value"
           xml:space="preserve"
           id="text1396"><tspan
             x="150"
             y="245"
             sodipodi:role="line"
             id="tspan1394">(None)</tspan></text>
      </g>
      <g
         gcodetools="Gcodetools tool parameter"
         id="g1408">
        <text
           x="0"
           y="260"
           style="font-style:normal;font-variant:normal;font-weight:normal;font-stretch:normal;font-size:10px;font-family:'DejaVu Sans';fill:#000000;fill-opacity:1;stroke:none"
           gcodetools="Gcodetools tool definition field name"
           xml:space="preserve"
           id="text1402"><tspan
             x="0"
             y="260"
             sodipodi:role="line"
             id="tspan1400">4th axis meaning</tspan></text>
        <text
           x="150"
           y="260"
           style="font-style:normal;font-variant:normal;font-weight:normal;font-stretch:normal;font-size:10px;font-family:'DejaVu Sans';fill:#000000;fill-opacity:1;stroke:none"
           gcodetools="Gcodetools tool definition field value"
           xml:space="preserve"
           id="text1406"><tspan
             x="150"
             y="260"
             sodipodi:role="line"
             id="tspan1404">(None)</tspan></text>
      </g>
      <g
         gcodetools="Gcodetools tool parameter"
         id="g1418">
        <text
           x="0"
           y="275"
           style="font-style:normal;font-variant:normal;font-weight:normal;font-stretch:normal;font-size:10px;font-family:'DejaVu Sans';fill:#000000;fill-opacity:1;stroke:none"
           gcodetools="Gcodetools tool definition field name"
           xml:space="preserve"
           id="text1412"><tspan
             x="0"
             y="275"
             sodipodi:role="line"
             id="tspan1410">4th axis scale</tspan></text>
        <text
           x="150"
           y="275"
           style="font-style:normal;font-variant:normal;font-weight:normal;font-stretch:normal;font-size:10px;font-family:'DejaVu Sans';fill:#000000;fill-opacity:1;stroke:none"
           gcodetools="Gcodetools tool definition field value"
           xml:space="preserve"
           id="text1416"><tspan
             x="150"
             y="275"
             sodipodi:role="line"
             id="tspan1414">1.0</tspan></text>
      </g>
      <g
         gcodetools="Gcodetools tool parameter"
         id="g1428">
        <text
           x="0"
           y="290"
           style="font-style:normal;font-variant:normal;font-weight:normal;font-stretch:normal;font-size:10px;font-family:'DejaVu Sans';fill:#000000;fill-opacity:1;stroke:none"
           gcodetools="Gcodetools tool definition field name"
           xml:space="preserve"
           id="text1422"><tspan
             x="0"
             y="290"
             sodipodi:role="line"
             id="tspan1420">4th axis offset</tspan></text>
        <text
           x="150"
           y="290"
           style="font-style:normal;font-variant:normal;font-weight:normal;font-stretch:normal;font-size:10px;font-family:'DejaVu Sans';fill:#000000;fill-opacity:1;stroke:none"
           gcodetools="Gcodetools tool definition field value"
           xml:space="preserve"
           id="text1426"><tspan
             x="150"
             y="290"
             sodipodi:role="line"
             id="tspan1424">0.0</tspan></text>
      </g>
      <g
         gcodetools="Gcodetools tool parameter"
         id="g1438">
        <text
           x="0"
           y="305"
           style="font-style:normal;font-variant:normal;font-weight:normal;font-stretch:normal;font-size:10px;font-family:'DejaVu Sans';fill:#000000;fill-opacity:1;stroke:none"
           gcodetools="Gcodetools tool definition field name"
           xml:space="preserve"
           id="text1432"><tspan
             x="0"
             y="305"
             sodipodi:role="line"
             id="tspan1430">fine feed</tspan></text>
        <text
           x="150"
           y="305"
           style="font-style:normal;font-variant:normal;font-weight:normal;font-stretch:normal;font-size:10px;font-family:'DejaVu Sans';fill:#000000;fill-opacity:1;stroke:none"
           gcodetools="Gcodetools tool definition field value"
           xml:space="preserve"
           id="text1436"><tspan
             x="150"
             y="305"
             sodipodi:role="line"
             id="tspan1434">800</tspan></text>
      </g>
    </g>
    <g
       id="g1442" />
    <g
       gcodetools="Preview group"
       id="g1646" />
    <g
       gcodetools="Preview group"
       id="g1648" />
    <g
       gcodetools="Preview group"
       id="g1650" />
    <g
       gcodetools="Preview group"
       id="g1652" />
    <g
       gcodetools="Preview group"
       id="g1654" />
    <g
       gcodetools="Preview group"
       id="g1656" />
    <g
       gcodetools="Preview group"
       id="g1658" />
    <g
       gcodetools="Preview group"
       id="g1660" />
    <g
       gcodetools="Preview group"
       id="g1662" />
    <g
       gcodetools="Preview group"
       id="g1664" />
    <g
       gcodetools="Preview group"
       id="g1666" />
    <g
       id="g20878" />
    <g
       aria-label="  IVANA"
       transform="matrix(1,0,0,1.106691,-2.2048611,154.39764)"
       id="text25108"
       style="font-size:88.1944px;line-height:1.25;font-family:Luminari;-inkscape-font-specification:'Luminari, Normal';stroke-width:0.251506">
      <path
         id="path36055"
         style="stroke-width:0.999998"
         d="m 94.410156,1500.0547 c 154.907284,-86.1648 361.355614,-143.2884 587.218754,-162.3125 16.22143,14.43 13.98308,34.4018 -4.66602,47.0742 -21.11996,14.2878 -32.48677,33.8817 -31.37109,54.0742 h -0.002 c 1.01336,18.3115 12.22037,35.6877 31.37305,48.6446 41.92672,28.3644 109.90141,28.3644 151.82813,0 40.80619,-27.7359 41.79876,-72.3576 21.98632,-86.8086 -19.8124,-14.4511 -20.22153,-14.6705 -20.625,-14.8946 -9.57619,-6.4788 -15.17763,-15.1683 -15.68359,-24.3242 -0.47271,-8.5495 3.53075,-16.9361 11.30664,-23.6836 225.26251,19.2105 431.63591,76.2469 586.12111,162.125 -43.7502,-74.1923 -72.4344,-173.0692 -81.9863,-280.9531 15.008,-15.0109 35.7779,-12.8577 48.957,5.0742 14.8593,20.3077 35.2383,31.2388 56.2383,30.166 19.0438,-0.9744 37.1147,-11.7498 50.5898,-30.166 29.4988,-40.3144 29.4988,-105.6758 0,-145.9902 -27.2238,-37.0314 -70.0903,-39.9631 -99.7871,-8.2012 -1.7687,1.8916 -3.4915,3.9076 -8.1074,10.0039 -4.6158,6.0964 -13.6516,11.4823 -23.1738,11.9688 -8.8914,0.4544 -17.6133,-3.3955 -24.6309,-10.8711 9.6464,-107.48642 38.2867,-205.95889 81.4101,-279.90433 -154.7132,-85.8782 -360.7476,-142.91645 -585.63862,-162.12695 -7.77483,6.74747 -11.77934,15.13607 -11.30664,23.68555 0.50593,9.15594 6.10939,17.84343 15.68554,24.32226 0.40347,0.22405 0.81167,0.44302 1.01954,0.61914 l -0.13868,0.17383 c 39.55544,28.5532 38.56402,73.17429 -2.24218,100.91016 -41.92672,28.36441 -109.90142,28.36441 -151.82813,0 -19.15268,-12.95686 -30.35968,-30.33303 -31.37305,-48.64454 -1.11568,-20.1925 10.25305,-39.78635 31.37305,-54.07421 18.64909,-12.67234 20.8865,-32.64417 5.27539,-47.07422 -225.72238,19.02414 -432.59982,76.1477 -587.830076,162.3125 -43.123166,73.94532 -71.765647,172.41982 -81.41211,279.90621 7.017375,7.4756 15.741395,11.3256 24.632813,10.8711 9.522133,-0.4865 18.558919,-5.8741 25.296875,-15.082 0.233008,-0.3879 0.46132,-0.7797 15.490234,-19.8301 15.028913,-19.0502 61.434144,-18.0964 90.279294,21.1406 6.21667,8.496 10.82545,18.2579 14.42188,28.5098 0.62313,-0.03 1.21287,0.2182 1.62695,0.6524 l 39.61133,-15.1836 c -3.44616,-11.3709 -6.61472,-21.6302 -9.17383,-29.4395 -2.73941,-9.0996 -5.09368,-16.5279 -7.06055,-22.2832 -1.75603,-5.8331 -3.19634,-10.2262 -4.32031,-13.1816 -0.98338,-3.2665 -1.68402,-5.6001 -2.10547,-7 -2.45855,-7.3886 -4.88244,-11.9391 -7.27148,-13.6504 -2.45929,-1.9447 -5.97313,-2.3338 -10.54102,-1.168 -3.30291,0.6994 -7.02749,1.9425 -11.17383,3.7305 -4.14626,1.788 -7.20417,2.9145 -9.17187,3.3808 -1.54604,0.3109 -2.88147,0.5439 -4.00586,0.6993 -1.19462,-0.078 -2.10806,-1.1659 -2.74023,-3.2657 -0.70242,-2.3332 -0.63053,-4.0441 0.21289,-5.1328 0.77318,-1.322 1.79166,-2.2172 3.05664,-2.6836 1.68663,-0.6219 7.20222,-2.1375 16.54883,-4.54685 9.48719,-2.7204 22.77051,-7.22882 39.84765,-13.52539 11.17393,-4.11998 20.58982,-7.85051 28.25,-11.19336 7.80078,-3.65392 13.10685,-6.25756 15.91797,-7.8125 1.4758,-0.54415 2.91681,-0.81664 4.32227,-0.81641 1.54604,-0.31082 2.60018,0.46734 3.16211,2.33399 0.10439,0.34675 0.17702,0.6839 0.23632,1.01757 l 28.08594,-9.48828 c -0.0889,-1.28543 0.11038,-2.48709 0.6211,-3.5957 0.64622,-1.40292 1.4048,-2.20369 2.27539,-2.40235 0.65294,-0.14893 2.30821,-0.40097 4.96484,-0.75585 2.82941,-0.6454 6.22499,-1.29452 10.1875,-1.94727 4.1353,-0.94327 8.72855,-1.86464 13.7793,-2.76562 5.05074,-0.90106 10.0781,-1.92261 15.08398,-3.06446 18.9353,-4.31917 32.57993,-7.80794 40.93359,-10.4668 8.30882,-2.89965 13.33305,-4.54814 15.07422,-4.94531 4.13529,-0.94326 6.42835,-0.21141 6.87696,2.19727 0.0897,0.48174 0.11447,1.22907 0.0762,2.24219 -0.0831,0.77225 -0.57761,1.76486 -1.48633,2.97656 -0.69115,1.16205 -2.16821,2.37777 -4.42773,3.64648 -2.04191,1.21906 -5.01987,2.27435 -8.9375,3.16797 -2.82943,0.64539 -5.65888,1.29211 -8.48829,1.9375 -2.65663,0.35488 -4.76951,0.58476 -6.33789,0.69141 0.31401,1.68607 2.47531,6.59164 6.48438,14.71679 4.00907,8.12515 9.02982,18.02978 15.0625,29.71094 6.25035,11.63148 13.13745,24.24688 20.66211,37.84768 7.74234,13.5511 15.30913,26.7663 22.69922,39.6445 7.56288,12.5876 14.59731,24.1656 21.10351,34.7344 6.67898,10.2782 12.21147,18.055 16.59766,23.332 1.24772,-3.0467 2.98153,-8.9652 5.20117,-17.7578 2.21964,-8.7926 4.58281,-19.2505 7.08984,-31.373 2.50707,-12.1225 4.94279,-25.233 7.3086,-39.3321 2.58348,-14.1487 4.66895,-27.9328 6.2539,-41.35154 1.75774,-13.70928 2.91078,-26.40244 3.45899,-38.07812 0.50338,-11.91655 0.0821,-21.48685 -1.26367,-28.71289 -0.44861,-2.40868 -1.13765,-4.8892 -2.06641,-7.43946 -0.71108,-2.5999 -1.9816,-3.94274 -3.8125,-4.02734 -5.65883,1.29079 -10.36061,2.23869 -14.10547,2.8418 -3.5272,0.55346 -6.40179,0.9573 -8.62304,1.21289 -2.26621,0.0148 -4.09854,-0.07 -5.49415,-0.25391 -1.44045,-0.42473 -2.74782,-0.75282 -3.92578,-0.98633 -0.83237,-0.81453 -1.42823,-2.18633 -1.78711,-4.11328 -0.35887,-1.92694 0.11405,-3.03806 1.41993,-3.33594 l 4.24414,-0.96875 c 2.43895,-0.30523 6.53269,-0.86282 12.28125,-1.67187 5.70368,-1.04992 14.15012,-2.6002 25.33984,-4.65039 l 21.54688,-4.91016 c 2.61168,-0.59575 5.54974,-1.26508 8.81445,-2.00976 3.21985,-0.98555 6.24481,-1.80188 9.07422,-2.44727 3.0022,-0.93596 5.48257,-1.62741 7.4414,-2.07422 2.13161,-0.73733 3.52479,-1.18114 4.17774,-1.33008 0.925,-0.211 1.74891,-0.32012 2.4707,-0.32812 1.58222,-0.0169 2.50582,0.62576 3.11133,1.58594 l 3.61719,-1.63282 c -0.20071,-0.95968 -0.58022,-1.97207 -0.63282,-2.88867 -0.12699,-2.20893 0.66138,-3.98982 2.36524,-5.34179 9.02601,2.07587 18.80018,3.60685 29.32226,4.59179 10.50797,0.7395 20.5577,1.2632 30.15039,1.57422 9.5927,0.31102 18.16626,0.32583 25.72071,0.041 7.7762,-0.3005 13.43988,-0.5766 16.98828,-0.82617 8.6492,-0.60835 17.50572,-1.47703 26.57031,-2.60743 9.06457,-1.1304 17.45595,-2.3369 25.17578,-3.61914 7.71981,-1.28225 14.10943,-2.47133 19.16797,-3.5664 5.2803,-1.11066 8.34268,-2.06457 9.1875,-2.86329 0.44354,-0.0312 1.13658,0.41268 2.08008,1.33204 0.94347,0.91935 1.45098,1.99157 1.52148,3.21875 0.15496,2.6998 -0.83368,4.86554 -2.96679,6.49414 -2.14728,1.38316 -5.19683,2.58253 -9.14649,3.59961 -3.96376,0.77164 -8.82023,1.48182 -14.57226,2.13281 -5.75204,0.65099 -12.16383,1.47288 -19.23243,2.46289 -1.09471,0.32343 -1.57061,1.71164 -1.42968,4.16602 0.32418,5.64503 1.6361,14.91743 3.93554,27.8164 2.5212,12.88332 5.47359,27.46174 8.85743,43.73438 3.60564,16.25704 7.48107,33.35684 11.6289,51.30074 4.36962,17.9283 8.57235,34.8829 12.60742,50.8633 4.24278,15.7194 8.04807,29.6205 11.41407,41.7051 3.57372,11.8236 6.48472,19.8749 8.73437,24.1523 1.13709,0.4129 2.0452,0.7193 2.72461,0.918 0.88711,-0.062 2.32825,-0.1644 4.32422,-0.3047 2.88307,-0.2027 5.31694,-0.4969 7.29883,-0.8828 2.20364,-0.4014 3.85989,-0.6407 4.96875,-0.7187 0.65951,-0.047 1.22644,0.4595 1.70312,1.5156 0.20989,-0.4535 0.44557,-0.9124 0.73828,-1.3828 1.09647,-1.5681 2.1946,-2.2666 3.29493,-2.0957 l 4.29297,0.666 c 2.42065,0.376 4.95099,0.7695 7.59179,1.1797 2.67165,0.1667 4.80792,0.1268 6.41016,-0.1211 1.60222,-0.2479 3.0304,-0.8947 4.28515,-1.9414 1.28565,-1.2904 2.58579,-3.5729 3.89844,-6.8457 1.34355,-3.5165 2.74575,-8.3896 4.20899,-14.6192 1.49409,-6.4731 3.03229,-15.0506 4.61132,-25.7324 1.79911,-10.6476 3.81144,-23.8698 6.03907,-39.666 2.22763,-15.7962 4.76204,-34.8967 7.60351,-57.30274 2.31642,-18.26582 4.02671,-33.522 5.13086,-45.76758 1.10415,-12.24558 1.68026,-22.09015 1.72656,-29.5332 0.0771,-7.68662 -0.4549,-13.23138 -1.59375,-16.63672 -0.91887,-3.37116 -2.47902,-5.22851 -4.67968,-5.57032 -1.10032,-0.17091 -2.65455,-0.28746 -4.66602,-0.35156 -1.76053,-0.27349 -3.63268,-0.56542 -5.61328,-0.87305 -1.98057,-0.30763 -3.86483,-0.47595 -5.65625,-0.50585 -1.54046,-0.23928 -2.53254,-0.39254 -2.97266,-0.46094 -0.44013,-0.0684 -0.70818,-0.60687 -0.80468,-1.61524 -0.0965,-1.00836 -0.0824,-2.00044 0.041,-2.97461 0.12347,-0.97418 0.38753,-2.17443 0.79297,-3.60156 0.40539,-1.42708 1.26945,-2.03711 2.58984,-1.83203 l 29.37696,4.5625 c 9.4628,1.46978 17.30765,2.44018 23.53125,2.91016 6.22359,0.46997 12.16229,0.52335 17.81836,0.16015 3.39363,-0.21793 4.66977,1.22064 3.82812,4.31836 -0.40537,1.42708 -0.93346,3.82964 -1.58594,7.20508 -0.65247,3.37544 -1.44656,6.97634 -2.38086,10.80469 -0.71416,3.86253 -1.41236,7.60366 -2.0957,11.22265 -0.65247,3.37544 -1.08654,5.91629 -1.30273,7.6211 3.07318,-2.99945 7.88975,-6.47388 14.44922,-10.42188 6.77954,-3.91383 14.51844,-7.42973 23.21679,-10.54883 8.69836,-3.11911 18.08945,-5.50975 28.17383,-7.17187 10.08439,-1.66212 20.07753,-1.7237 29.98047,-0.18555 13.2039,2.05085 25.1712,5.89523 35.9004,11.53516 10.7601,5.39639 19.621,12.48523 26.5859,21.26562 7.2159,8.57102 12.2984,18.92058 15.2481,31.05078 3.2006,11.92085 3.8286,25.55323 1.8828,40.89648 -1.2663,9.9853 -3.4586,20.2001 -6.5781,30.6426 -3.0886,10.1989 -6.6171,20.3284 -10.586,30.3906 -3.9688,10.0622 -8.1273,19.8467 -12.4746,29.3535 -4.3163,9.2633 -8.3348,17.9526 -12.0566,26.0664 -3.6909,7.8704 -6.8333,14.9575 -9.4278,21.2598 -2.5944,6.3022 -4.1246,11.2785 -4.5879,14.9316 -0.3391,2.679 0.4824,5.0432 2.4668,7.0899 2.2354,1.8372 6.2139,3.1992 11.9356,4.0879 3.0809,0.4785 5.6272,0.7504 7.6387,0.8144 2.2315,0.098 4.1957,-0.3419 5.8906,-1.3203 0.942,-0.3504 1.7601,0.2731 2.4551,1.8711 0.3479,0.799 0.4594,1.686 0.3359,2.6602 -0.1439,1.1342 -0.9784,2.6359 -2.375,4.4375 l 1.4336,1.3828 c 0.4047,-0.4697 0.8977,-0.7574 1.5664,-0.6914 2.3828,-0.249 5.9448,-1.0122 10.6856,-2.2871 5.0167,-1.4415 10.0017,-4.9443 14.957,-10.5078 5.2312,-5.7301 11.516,-13.6793 18.8555,-23.8497 5.056,-6.8125 11.1865,-16.351 18.3886,-28.6171 7.2022,-12.266 14.7499,-25.8303 22.6426,-40.6915 7.8927,-14.8611 15.7605,-30.4985 23.6035,-46.914 7.9058,-16.6515 15.0895,-32.77021 21.5528,-48.35353 l 32.5644,-7.46094 c -3.4107,-1.11158 -8.3881,-2.86234 -14.9336,-5.25195 -6.3323,-2.32013 -13.0594,-4.89848 -20.1816,-7.73242 -7.1223,-2.83394 -14.1068,-5.74962 -20.9532,-8.75 -6.6331,-2.93091 -11.9564,-5.56336 -15.9687,-7.89649 -0.7271,-0.74973 -1.2648,-2.20782 -1.6152,-4.37305 -0.075,-2.33165 0.1383,-4.4408 0.6406,-6.32812 0.565,-2.12323 1.8577,-3.49731 3.8769,-4.12109 7.8363,5.37401 16.5435,10.51886 26.1231,15.43554 9.6424,4.68076 18.9207,8.98693 27.8359,12.91797 8.9153,3.93103 16.9654,7.19689 24.1504,9.79492 7.3982,2.6675 12.8041,4.55638 16.2149,5.66797 8.3136,2.70948 16.902,5.25231 25.7675,7.62891 8.8656,2.37661 17.1242,4.42655 24.7735,6.15039 7.6493,1.72385 14.0201,3.03171 19.1113,3.92187 5.3044,0.95963 8.4765,1.22478 9.5176,0.79493 0.4263,0.13895 0.9394,0.81946 1.541,2.04101 0.6016,1.22155 0.7455,2.42199 0.4316,3.60156 -0.6905,2.59505 -2.2904,4.25212 -4.7988,4.97262 -2.4456,0.4847 -5.6797,0.4569 -9.7051,-0.086 -3.9626,-0.77869 -8.7463,-1.95302 -14.3515,-3.52343 -5.6052,-1.57041 -11.8811,-3.23304 -18.8282,-4.98438 -1.1286,-0.11145 -2.0069,1.01391 -2.6347,3.37305 -1.4439,5.42596 -3.0831,14.63326 -4.918,27.62306 -1.6218,13.0592 -3.3635,27.8748 -5.2246,44.4453 -1.6479,16.6399 -3.3038,34.1752 -4.9648,52.6055 -1.4479,18.4997 -2.7513,36.0195 -3.9102,52.5625 -0.8829,16.3765 -1.6146,30.8803 -2.1953,43.5097 -0.3048,12.463 -0.061,21.1303 0.7265,26.002 0.9404,0.8192 1.6987,1.4502 2.2754,1.8945 0.8527,0.2777 2.2378,0.7301 4.1563,1.3555 2.7712,0.9031 5.1476,1.5501 7.1289,1.9394 2.1945,0.4589 3.8248,0.8617 4.8906,1.209 0.8527,0.278 1.242,1.429 1.166,3.4551 -0.076,2.0263 -0.2081,3.3938 -0.3964,4.1016 -0.4395,1.651 -1.4063,2.2343 -2.8985,1.748 -1.0658,-0.3474 -2.527,-0.9513 -4.3828,-1.8125 -1.8558,-0.8612 -4.4567,-1.9664 -7.8047,-3.3144 -3.4107,-1.1115 -7.8563,-2.6883 -13.3359,-4.7305 -5.2665,-1.9728 -12.0555,-4.3138 -20.3692,-7.0235 -2.7712,-0.9031 -5.8942,-1.7923 -9.3671,-2.6679 -3.2604,-0.8062 -6.4158,-1.5778 -9.4629,-2.3145 -3.0472,-0.7367 -5.774,-1.3682 -8.1817,-1.8965 -2.4076,-0.5282 -4.0379,-0.931 -4.8906,-1.2089 -0.6395,-0.2083 -1.0455,-0.8548 -1.2207,-1.9375 -0.1751,-1.0827 -0.1067,-2.2131 0.207,-3.3926 0.3139,-1.1796 0.6708,-2.0883 1.0723,-2.7266 0.6774,-0.805 1.4442,-1.0689 2.2969,-0.791 1.9813,0.3893 4.57,1.1044 7.7675,2.1465 3.2604,0.8062 5.1094,0.3838 5.5489,-1.2676 0.3766,-1.4155 0.9735,-5.835 1.791,-13.2598 0.8174,-7.4247 1.6918,-16.3697 2.623,-26.8339 1.1444,-10.3948 2.2337,-21.4488 3.2657,-33.1621 1.3078,-11.8798 2.3952,-22.9339 3.2636,-33.1622 -3.6487,-1.9583 -8.395,-4.1454 -14.2383,-6.5625 -5.63,-2.3476 -11.6419,-4.5642 -18.0371,-6.6484 -7.461,-2.4316 -14.6972,-4.4045 -21.707,-5.9199 -5.9356,-1.2629 -10.9328,-1.7302 -14.9941,-1.4043 l 8.7539,-13.1387 c 2.8745,0.2351 6.1476,0.6004 9.8203,1.0957 5.6431,0.5573 11.4989,1.1847 17.5683,1.8809 6.2827,0.7657 12.4269,1.6147 18.4336,2.5468 6.2827,0.7659 11.9693,1.5943 17.0606,2.4844 0.5035,-6.2452 1.1714,-13.9762 2.0019,-23.1914 1.0437,-9.1457 2.013,-18.4435 2.9063,-27.8945 0.9561,-9.687 1.7543,-18.7856 2.3965,-27.293 0.8553,-8.4379 1.4219,-14.91899 1.6992,-19.44334 0.4159,-6.78653 0.3099,-11.17895 -0.3164,-13.17774 -0.4133,-1.9293 -1.1529,-3.06669 -2.2188,-3.41406 -0.2664,-0.0869 -0.5416,-0.14267 -0.8281,-0.16797 -0.1253,-0.0106 -0.2521,-0.0163 -0.3808,-0.0156 -1.9375,0.0109 -4.3065,1.34675 -7.1055,4.00976 -3.3493,3.01041 -7.2894,7.36788 -11.8184,13.07032 -4.253,5.53595 -8.7875,12.13375 -13.6054,19.79295 -4.7553,7.4233 -9.6053,15.201 -14.5489,23.332 -4.6676,7.9647 -9.2291,15.964 -13.6836,23.9981 -4.2412,8.1035 -7.9431,15.4839 -11.1054,22.1445 1.0787,0.05 2.234,0.1227 3.4609,0.2207 l -8.7832,13.1856 c -0.4855,0.044 -0.9579,0.099 -1.416,0.166 -2.447,4.8427 -5.0949,10.0033 -7.9434,15.4844 -2.7856,5.245 -5.6033,10.6088 -8.4511,16.0898 -2.6353,5.5505 -5.1639,11.1359 -7.586,16.7559 -2.3593,5.384 -4.1973,10.5536 -5.5156,15.5078 -2.5738,9.6725 -2.6151,17.2209 -0.1211,22.6484 2.7071,5.497 6.8325,9.1488 12.375,10.9551 5.5424,1.8063 8.9844,2.8015 10.3262,2.9824 1.6177,0.014 2.9595,0.1951 4.0254,0.543 1.7053,0.5558 2.4327,1.3044 2.1816,2.248 -0.1255,0.4719 -0.878,1.1249 -2.2578,1.9571 -1.1038,0.6657 -2.5592,1.3438 -4.3653,2.0371 -2.3573,1.0261 -5.4481,2.1986 -9.2734,3.5156 -3.6749,1.6222 -7.9642,1.6344 -12.8672,0.037 -0.6395,-0.2083 -2.315,-0.8823 -5.0234,-2.0215 -2.4953,-1.0696 -5.5971,-2.4651 -9.3086,-4.1875 -3.7743,-1.4864 -7.7623,-3.0426 -11.9629,-4.6679 -4.2006,-1.6258 -8.2196,-3.064 -12.0566,-4.3145 -5.3293,-1.7369 -9.7316,-3.0423 -13.2051,-3.918 -3.2603,-0.8062 -5.88,-1.4036 -7.8613,-1.7929 -1.9813,-0.3894 -3.3231,-0.57 -4.0254,-0.543 -0.9155,-0.042 -1.5874,-0.1326 -2.0137,-0.2715 -0.4263,-0.1389 -0.62,-0.7153 -0.582,-1.7285 -0.2371,-0.8467 -0.2312,-1.7418 0.02,-2.6855 0.115,-0.4324 0.3324,-0.6576 0.5176,-0.9473 l -1.459,-1.4102 c -0.024,0.029 -0.031,0.05 -0.055,0.08 -1.3783,2.021 -2.8384,2.9112 -4.3789,2.6719 -1.7605,-0.2736 -5.611,-0.8702 -11.5527,-1.793 -5.9418,-0.9229 -12.4345,-1.9316 -19.4766,-3.0254 -6.85286,-0.816 -13.6897,-1.7548 -20.51172,-2.8144 -6.60195,-1.0255 -11.66254,-1.8106 -15.1836,-2.3575 -3.30096,-0.5127 -4.79714,-1.9864 -4.48828,-4.4218 0.1852,-1.4613 0.40324,-2.2985 0.6543,-2.5078 0.28183,-0.453 0.64189,-0.6442 1.08203,-0.5762 0.69108,-0.1411 1.38315,-0.281 2.07422,-0.4219 0.94203,-0.3503 2.16622,-1.1535 3.67187,-2.4101 2.94577,-3.7642 6.34021,-10.1913 10.18555,-19.2793 3.87621,-9.3317 7.62272,-20.2963 11.24024,-32.8965 3.8376,-12.5661 7.37409,-26.2968 10.60939,-41.1914 3.4553,-14.8605 6.1417,-29.8417 8.0566,-44.9414 2.0076,-15.8304 2.1177,-29.96771 0.3301,-42.4141 -1.7876,-12.44638 -5.0339,-23.13293 -9.7363,-32.05859 -4.70264,-8.92566 -10.54714,-15.91772 -17.53518,-20.97657 -6.95716,-5.3024 -14.61799,-8.60346 -22.98047,-9.90234 -7.26216,-1.12796 -14.94502,-0.70608 -23.04883,1.26367 -7.85285,1.76038 -15.30973,4.82272 -22.3711,9.18945 -7.03044,4.12321 -13.41326,9.33959 -19.15039,15.6504 -5.48616,6.10144 -9.36863,12.82513 -11.64648,20.16992 -1.09259,3.30708 -2.39879,9.18884 -3.91992,17.64453 -1.52114,8.45569 -3.10335,18.26863 -4.74414,29.43753 -1.64082,11.1688 -3.35907,22.9454 -5.1543,35.332 -1.57516,12.4208 -3.07339,24.2325 -4.49414,35.4355 -0.89567,7.0628 -1.64983,13.8999 -2.26367,20.5098 -0.58298,6.3663 -0.99308,12.2631 -1.23242,17.6895 -0.20838,5.1827 -0.32446,9.6339 -0.34766,13.3554 -0.0227,3.7216 0.12336,6.104 0.43945,7.1465 0.60231,2.3286 1.39236,4.066 2.36914,5.211 1.00768,0.902 4.04203,1.745 9.10352,2.5312 2.20067,0.3423 3.86683,0.4773 4.99805,0.4043 1.35125,-0.039 2.9075,0.078 4.66796,0.3516 1.54046,0.2392 2.4366,1.1246 2.69141,2.6543 0.28574,1.286 0.36758,2.4164 0.24414,3.3906 -0.0617,0.4871 -0.59381,1.1489 -1.59765,1.9863 -0.78375,0.8716 -1.72585,1.2217 -2.82618,1.0508 -1.32039,-0.205 -3.61662,-0.685 -6.88672,-1.4414 -3.08085,-0.4785 -6.60132,-1.0254 -10.5625,-1.6406 -3.96111,-0.6153 -7.90761,-1.3522 -11.83789,-2.211 -3.74112,-0.581 -6.71146,-1.0429 -8.91211,-1.3847 -5.72164,-0.8887 -11.66433,-1.8125 -17.82617,-2.7696 -5.97263,-0.6793 -11.59929,-1.4297 -16.88086,-2.25 -5.31245,-0.5768 -10.07497,-1.0667 -14.28711,-1.4726 -3.58976,-0.3343 -6.05144,-0.4961 -7.50586,-0.4961 -0.0418,1.4389 -0.76319,2.2164 -2.17968,2.3164 -1.10889,0.078 -2.66768,0.063 -4.67774,-0.043 -2.01008,-0.1054 -4.79689,-0.1504 -8.35937,-0.1504 -3.5484,0.2496 -8.21196,0.4532 -13.99219,0.6133 -5.55845,0.1444 -12.66328,0.5205 -21.3125,1.1289 -2.88307,0.2027 -6.09071,0.5518 -9.625,1.0469 -3.31253,0.4794 -6.51472,0.9522 -9.60547,1.416 -3.09077,0.4638 -5.84801,0.9033 -8.27344,1.3203 -2.42542,0.417 -4.08164,0.6568 -4.96875,0.7188 -0.66532,0.047 -1.24811,-0.4049 -1.74804,-1.3555 -0.49991,-0.9506 -0.78497,-2.0384 -0.85547,-3.2656 -0.0705,-1.2272 -0.0156,-2.2169 0.16406,-2.9688 0.38718,-1.0129 1.02305,-1.5513 1.91016,-1.6133 1.98188,-0.3858 4.63627,-0.6957 7.96289,-0.9296 3.31253,-0.4799 4.91901,-1.5789 4.82031,-3.2969 -0.0847,-1.4727 -0.89221,-5.8517 -2.42383,-13.1367 -1.53169,-7.2851 -3.47954,-16.0177 -5.8457,-26.2012 -2.1444,-10.1991 -4.54666,-20.9975 -7.20508,-32.3926 -2.45072,-11.6561 -4.853,-22.4525 -7.20508,-32.3906 -4.03421,-0.4556 -9.17032,-0.7116 -15.4082,-0.7656 -6.0161,-0.07 -12.35065,0.1297 -19.00391,0.5976 -7.76211,0.5459 -15.17012,1.4364 -22.22461,2.6719 -6.21137,1.1089 -11.20198,2.642 -14.97265,4.5976 l 1.75586,-14.957 c 3.36758,-1.1558 7.50425,-2.3646 12.41406,-3.6289 5.47392,-1.6171 11.16851,-3.2501 17.08594,-4.8984 6.13921,-1.664 12.17588,-3.1967 18.10742,-4.5996 6.13924,-1.664 11.73835,-3.0436 16.79687,-4.1387 -1.46124,-6.0579 -3.22883,-13.57299 -5.30273,-22.54493 -1.85214,-8.98755 -3.82214,-18.08921 -5.91016,-27.30664 -2.10209,-9.46281 -4.16952,-18.31319 -6.20117,-26.54883 -1.80986,-8.25124 -3.28499,-14.55469 -4.42578,-18.91015 -1.71119,-6.53318 -3.17137,-10.61971 -4.37891,-12.25977 -0.98577,-1.6557 -2.03371,-2.44323 -3.14257,-2.36523 -2.21775,0.15599 -4.42509,2.40602 -6.625,6.75 -2.21403,4.09856 -4.56628,9.68477 -7.05469,16.75976 -2.28074,6.81395 -4.49844,14.73104 -6.65235,23.75391 -2.16792,8.77744 -4.31374,17.92375 -6.43945,27.4375 -1.91803,9.25272 -3.72562,18.49715 -5.42187,27.73438 -1.47447,9.2215 -2.66445,17.5609 -3.57227,25.0176 0.0384,-0.013 0.0786,-0.027 0.11719,-0.041 l -1.77149,15.0781 c -0.16055,0.089 -0.31881,0.1776 -0.47461,0.2676 -0.79873,5.4775 -1.68576,11.331 -2.66406,17.5605 -0.99238,5.9841 -1.97874,12.0908 -2.95703,18.3203 -0.75651,6.2139 -1.40082,12.4189 -1.93555,18.6172 -0.54883,5.9529 -0.67678,11.5079 -0.38086,16.6621 0.57787,10.0629 2.87846,17.1696 6.90235,21.3223 4.24564,4.1371 9.25338,6.0032 15.01953,5.5976 5.76612,-0.4055 9.30649,-0.778 10.62305,-1.1171 1.52423,-0.6002 2.84035,-0.9396 3.94922,-1.0176 1.77421,-0.1247 2.68969,0.3035 2.74609,1.2851 0.0282,0.4909 -0.47721,1.3902 -1.51563,2.6953 -0.83074,1.0442 -1.98679,2.2341 -3.46875,3.5704 -1.89729,1.8585 -4.43931,4.1319 -7.625,6.8203 -2.94979,2.9181 -6.97339,4.5572 -12.07421,4.916 -0.66533,0.043 -2.4466,0.044 -5.34375,0 -2.67541,-0.058 -6.02479,-0.1924 -10.04493,-0.4024 -4.00602,0.035 -8.234,0.086 -12.68359,0.1524 -4.44959,0.067 -8.67015,0.2408 -12.66211,0.5215 -5.54436,0.3899 -10.0829,0.8311 -13.61719,1.3261 -3.31253,0.4794 -5.95952,0.913 -7.9414,1.2989 -1.98189,0.3858 -3.29801,0.7253 -3.94922,1.0175 -0.87302,0.3079 -1.53107,0.4769 -1.97461,0.5079 -0.44354,0.031 -0.80581,-0.4362 -1.08399,-1.4024 -0.48582,-0.7051 -0.7561,-1.5495 -0.8125,-2.5312 -0.0847,-1.4727 0.42075,-2.37 1.51563,-2.6934 2.16139,-1.1377 5.27142,-3.205 9.33008,-6.2012 4.26638,-3.2572 7.86492,-8.4387 10.79687,-15.5449 3.13966,-7.3672 6.58129,-17.2203 10.32617,-29.5586 2.63973,-8.3178 5.44338,-19.6043 8.41016,-33.8594 2.9668,-14.255 5.85623,-29.8596 8.66797,-46.8144 2.81174,-16.9548 5.35894,-34.62916 7.64258,-53.0254 2.26953,-18.64168 4.02821,-36.50854 5.27344,-53.59961 l 28.27929,-19.35938 c -3.5484,0.24957 -8.76715,0.49236 -15.65625,0.73047 -6.66734,0.22252 -13.78498,0.35513 -21.35351,0.39453 -7.56853,0.0395 -15.03374,-0.0519 -22.39453,-0.27343 -7.13908,-0.23723 -12.95345,-0.69155 -17.44532,-1.36133 -0.91527,-0.42848 -1.87318,-1.59305 -2.87304,-3.49414 -0.30408,-0.82995 -0.31751,-1.5745 -0.52149,-2.375 l -3.34765,1.51171 c 0.033,0.11888 0.14416,0.15911 0.16796,0.28711 0.40373,2.16782 -0.0661,3.90776 -1.41015,5.21875 -1.3441,1.311 -3.05973,2.4554 -5.14649,3.4336 -1.8691,0.92854 -3.87035,1.76072 -6.00195,2.49804 -2.17648,0.49653 -3.85018,1.25492 -5.02148,2.2754 -6.06413,23.4801 -11.93177,46.78975 -17.60547,69.92968 -5.5009,22.8494 -10.83412,44.7825 -15.9961,65.7969 -5.20683,20.7735 -10.22498,40.1234 -15.05468,58.0488 -4.65694,17.6349 -9.04066,33.0722 -13.1543,46.3145 -3.89601,13.1926 -7.50189,23.6838 -10.81641,31.4707 -3.31452,7.7868 -6.16837,11.9519 -8.5625,12.498 -1.2228,-0.4744 -2.53524,-1.4293 -3.9375,-2.8672 -1.35738,-1.197 -2.82845,-2.9971 -4.41015,-5.3984 -4.65535,-6.7223 -10.03736,-14.9095 -16.14649,-24.5645 -6.1091,-9.6549 -12.59274,-20.104 -19.45117,-31.3457 -6.85843,-11.2417 -14.00138,-22.7951 -21.42969,-34.6601 -7.47316,-12.1059 -14.92325,-24.092 -22.35156,-35.9571 l -10.2207,-16.5 c -5.58411,-9.2724 -11.03778,-18.4499 -16.35938,-27.5312 -5.3216,-9.0813 -10.26756,-17.36881 -14.83984,-24.86329 -4.3995,-7.78499 -8.33589,-14.29456 -11.80664,-19.5293 -3.2531,-5.28437 -5.82072,-8.71744 -7.70313,-10.29687 -5.44118,1.24114 -9.7069,2.08879 -12.79883,2.54297 -3.09191,0.45417 -5.42184,0.73514 -6.99023,0.84179 -1.61325,-0.13421 -2.68202,-0.39294 -3.20703,-0.77539 -0.56987,-0.62331 -0.92206,-1.29497 -1.05664,-2.01758 -0.003,-0.0153 -0.003,-0.0296 -0.006,-0.0449 l -28.08789,9.49024 c 0.12763,3.01983 -1.74344,5.45877 -5.62305,7.3164 -1.68663,0.62189 -3.54984,1.43854 -5.58789,2.44922 l -6.11328,3.03321 c -1.82722,0.93294 -3.5144,1.94272 -5.06055,3.03124 l -3.47851,2.44922 c -0.91366,0.85533 -0.66791,5.56014 0.73632,14.11526 1.54489,8.2439 3.68679,18.4712 6.42579,30.6816 2.94982,12.1327 6.17965,25.1981 9.6914,39.1973 3.51175,13.9992 6.91947,26.8714 10.22071,38.6152 2.45834,8.944 5.37266,19.4037 8.74414,31.3809 3.51206,11.6661 7.02493,22.9436 10.53711,33.832 3.65276,10.5774 6.98907,19.7163 10.00976,27.416 3.02069,7.6998 5.3389,11.8994 6.95508,12.5996 1.05404,0.3896 2.84516,0.5067 5.375,0.3516 2.4596,-0.3884 5.37684,-0.8152 8.75,-1.2813 3.30292,-0.6993 6.57006,-1.5165 9.80273,-2.4492 3.44351,-1.0104 6.53657,-2.0207 9.27735,-3.0312 2.31912,-0.8547 3.8657,-1.1651 4.63867,-0.9317 0.77297,0.2334 1.44002,1.2838 2.00195,3.1504 0.63218,2.0999 0.24551,3.9273 -1.16015,5.4824 -1.19484,1.4782 -2.63564,2.5266 -4.32227,3.1485 -1.26497,0.4664 -3.19864,1.0485 -5.79883,1.748 -2.60019,0.6995 -6.18406,1.633 -10.75195,2.7989 -4.49765,1.3991 -10.15394,3.2262 -16.9707,5.4804 -6.81677,2.2543 -15.18089,5.2078 -25.08985,8.8614 l -1.89648,0.6992 c -3.79492,1.3992 -8.01216,2.9538 -12.65039,4.664 -4.568,1.9436 -9.06478,3.7309 -13.49219,5.3633 -4.35717,1.8658 -8.50395,3.6549 -12.43945,5.3653 -3.65444,1.8658 -6.50102,3.3037 -8.53907,4.3144 l -4.8496,2.5664 c -1.05417,0.3887 -2.10818,-0 -3.16211,-1.168 -1.19453,-0.8556 -1.96716,-1.8665 -2.31836,-3.0332 -0.28097,-0.9332 -0.14048,-2.0213 0.42187,-3.2656 0.49211,-1.4775 1.47732,-2.489 2.95313,-3.0332 8.85481,-3.2649 15.74064,-6.4525 20.66015,-9.5625 4.91952,-3.11 7.62693,-5.7935 8.11914,-8.0488 0.42208,-3.2663 -0.17609,-9.9147 -1.79101,-19.9473 -1.47434,-10.3437 -3.6147,-22.1262 -6.42383,-35.3476 -2.87937,-13.4548 -6.14464,-27.415 -9.79688,-41.8809 -3.65223,-14.4658 -7.30643,-27.7657 -10.95898,-39.8984 -0.21317,-0.7081 -0.3408,-1.0684 -0.55078,-1.7637 l -39.6836,15.2109 c -0.10701,0.446 -0.35922,0.8455 -0.71289,1.1368 11.85059,37.677 6.64995,82.9667 -15.86328,113.7343 -13.47508,18.4161 -31.546,29.1916 -50.58984,30.166 -21.00008,1.0727 -41.377029,-9.8582 -56.236329,-30.166 -13.179164,-17.9319 -33.949798,-20.0832 -48.957031,-5.0722 9.552807,107.8839 38.236861,206.7609 81.503906,280.9531"
         transform="matrix(0.26458333,0,0,0.23907607,2.2048611,-139.51287)"
         sodipodi:nodetypes="cccccccscscccccccsssccccccccccccccccsccccccccccsccscscscccsccssccsscsscccsccscccccsscccsccccccsccccccccsccccccscsssccssccscscccccccscscccccsccccsssccscscssssccsscsccccssscccscsccsccscccsccccccssccccscccsccscsssccssccscscccccccscsssssccscssssscccssccccsccccccccccscscsccccccccccccscsccssccscccscscscscccsscssscccccccssscsccccsscscccccccscscscscsccccscccscsscsscccssccccsccccccccccscsccccccccccccscscsssccccccscscscsccccssccccsccccccscccccccscccsscccscccsccscccccccccscccscccccsscsscsssccccccsccscccsscccccccc" />
    </g>
  </g>
  <g
     id="g21831" />
</svg>
