<?xml version="1.0" encoding="UTF-8" standalone="no"?>
<!-- Created with Inkscape (http://www.inkscape.org/) -->

<svg
   width="400mm"
   height="400mm"
   viewBox="0 0 400 400"
   version="1.1"
   id="svg13199"
   sodipodi:docname="psychologist wide before stroke to path.svg"
   inkscape:version="1.1.2 (b8e25be8, 2022-02-05)"
   xmlns:inkscape="http://www.inkscape.org/namespaces/inkscape"
   xmlns:sodipodi="http://sodipodi.sourceforge.net/DTD/sodipodi-0.dtd"
   xmlns="http://www.w3.org/2000/svg"
   xmlns:svg="http://www.w3.org/2000/svg">
  <sodipodi:namedview
     id="namedview13201"
     pagecolor="#ffffff"
     bordercolor="#666666"
     borderopacity="1.0"
     inkscape:pageshadow="2"
     inkscape:pageopacity="0.0"
     inkscape:pagecheckerboard="0"
     inkscape:document-units="mm"
     showgrid="false"
     width="400mm"
     inkscape:zoom="1.2810466"
     inkscape:cx="425.82371"
     inkscape:cy="1309.8665"
     inkscape:window-width="2330"
     inkscape:window-height="1016"
     inkscape:window-x="1998"
     inkscape:window-y="240"
     inkscape:window-maximized="0"
     inkscape:current-layer="layer1" />
  <defs
     id="defs13196" />
  <g
     inkscape:label="Layer 1"
     inkscape:groupmode="layer"
     id="layer1">
    <path
       id="path9166-8"
       d="m 317.21961,380.25055 q 0.12545,-0.0614 0.12416,0.0947 0.0614,0.12546 -0.0186,0.35908 -0.0171,0.20291 -0.14404,0.42052 -0.12674,0.21761 -0.31493,0.30977 -1.23855,0.56769 -2.97635,1.06878 -1.7378,0.50109 -3.52104,0.83001 -0.50054,0.0896 -1.37616,0.20731 -0.87562,0.11773 -1.93812,0.17145 -0.99979,0.023 -2.06101,-0.0795 -1.03051,-0.0397 -1.87154,-0.3278 -1.68207,-0.57614 -2.95319,-1.7424 -1.27112,-1.16626 -2.0084,-2.67173 -0.72129,-1.55219 -0.8313,-3.36487 -0.0633,-1.79667 0.57687,-3.66562 0.68816,-2.00915 1.85699,-3.59262 1.16883,-1.58347 2.34981,-2.74514 1.2277,-1.14566 2.20192,-1.85609 0.99021,-0.75715 1.38387,-1.14437 -0.87175,-0.3508 -1.61934,-0.60686 -0.68486,-0.28678 -1.339,-0.51083 -1.49517,-0.51212 -2.5391,-0.81748 -1.02794,-0.35209 -1.88626,-0.43725 -0.40579,-0.0346 -0.82889,0.13373 -0.42309,0.16832 -0.70472,0.22848 -0.0614,-0.12546 -0.15361,-0.31365 -0.12288,-0.25091 -0.0589,-0.43781 0.032,-0.0934 0.0948,-0.12416 0.016,-0.0468 0.78346,-0.30591 0.78345,-0.30592 1.89527,-0.65599 1.17454,-0.38078 2.52125,-0.80701 1.40945,-0.45694 2.63071,-0.82172 1.26798,-0.34878 2.12889,-0.57596 0.92363,-0.25791 1.18925,-0.27134 0.31235,0.002 0.52869,0.2855 0.21633,0.28292 0.0909,0.34435 -0.17217,0.0454 -0.54855,0.22976 -0.36036,0.1376 -0.33093,0.3565 0.36993,0.59657 1.51946,1.35573 1.14952,0.75917 2.65813,1.53693 1.5246,0.73102 3.15866,1.44732 1.65005,0.66959 3.00506,1.1337 2.00913,0.68816 3.25597,1.01081 1.26284,0.27593 2.12116,0.3611 0.8116,0.0691 1.07723,0.0556 0.0468,0.0161 0.13889,0.20419 0.0922,0.18818 0.0282,0.37507 -0.032,0.0934 -0.8609,0.22719 -0.78216,0.14974 -1.62706,0.3302 -0.50053,0.0896 -1.23598,0.25533 -0.68872,0.18175 -1.51761,0.31549 -0.76617,0.10302 -1.60978,0.1273 -0.8436,0.0243 -1.56047,-0.16901 -0.73287,-0.14661 -1.68335,-0.41996 -0.95049,-0.27335 -1.99443,-0.57871 -1.02792,-0.35208 -2.11858,-0.67345 -1.02793,-0.35208 -1.91569,-0.65615 -0.22019,0.18561 -0.73931,0.63427 -0.45639,0.41795 -1.0248,1.16295 -0.56841,0.74502 -1.17011,1.73966 -0.60171,0.99463 -1.03381,2.25618 -0.65616,1.91569 -0.6556,3.74308 0.0633,1.79667 0.69112,3.31686 0.67456,1.53618 1.89895,2.68644 1.22439,1.15025 2.90646,1.72639 0.98121,0.33608 1.94899,0.40652 1.0145,0.0865 1.93684,-0.0153 0.96907,-0.0857 1.81397,-0.26619 0.86089,-0.22718 1.51889,-0.47166 z m -45.99367,-8.17683 q -0.44522,0.13737 -0.93136,0.62157 -0.47347,0.43647 -0.64493,0.69756 -0.0731,0.0828 -0.32442,0.0673 -0.21629,0.0448 -0.31176,0.0195 -0.42964,-0.114 -0.31565,-0.54361 0.038,-0.14322 0.58453,-0.66249 0.41307,-0.40138 1.2996,-1.23924 0.89922,-0.88559 1.79842,-1.77117 0.95961,-0.92066 1.71268,-1.64063 0.81348,-0.75504 1.12815,-0.97815 0.30202,-0.17535 0.58552,0.10425 0.29617,0.23187 0.0896,0.43256 -0.1208,0.0702 -0.20654,0.2007 -0.0857,0.13055 -0.17437,0.4647 -0.11401,0.42965 0.42477,1.28794 0.59916,0.82322 1.58023,1.74775 0.99373,0.8768 2.26414,1.67371 1.27041,0.7969 2.60706,1.15152 1.57534,0.41793 2.72297,-0.24846 1.19538,-0.65373 1.58798,-2.13359 0.44326,-1.67082 -0.39168,-2.76098 -0.83492,-1.09016 -2.29628,-1.93772 -1.41362,-0.8349 -3.21206,-1.5675 -1.73805,-0.76768 -3.17407,-1.71072 -1.38829,-0.93038 -2.17257,-2.21149 -0.78427,-1.28111 -0.27769,-3.19061 0.3926,-1.47985 1.80035,-2.74151 1.45549,-1.24898 3.44291,-1.99916 2.03517,-0.73752 4.43373,-0.91875 2.39856,-0.18124 4.78543,0.45198 0.71607,0.18997 1.63283,0.58648 0.91675,0.3965 1.76045,0.87581 0.90409,0.44424 1.60457,0.88556 0.76087,0.40625 1.10479,0.65077 0.0955,0.0254 -0.14906,0.36924 -0.25719,0.39164 -1.07067,1.14668 -0.8008,0.70731 -1.74483,1.37661 -0.89629,0.68198 -1.69418,1.18567 -0.75016,0.51635 -0.98884,0.45303 -0.0477,-0.0127 -0.28642,-0.076 -0.23869,-0.0634 -0.30884,-0.18413 0.11108,-0.22602 0.21238,-0.60792 0.44326,-1.67082 -0.83106,-3.03083 -1.22657,-1.34735 -4.09082,-2.10722 -1.38439,-0.36727 -2.5067,0.20365 -1.07457,0.58357 -1.37853,1.72927 -0.49391,1.86177 0.31569,3.0474 0.8096,1.18563 2.2583,2.08093 1.46136,0.84757 3.21206,1.56751 1.7507,0.71994 3.18673,1.66298 1.4487,0.8953 2.23297,2.17641 0.78428,1.28111 0.25237,3.28609 -0.24062,0.90702 -0.85049,1.66497 -0.60986,0.75796 -1.43308,1.35712 -0.82322,0.59917 -1.76433,1.06486 -0.92843,0.41796 -1.81888,0.6927 -0.84271,0.28741 -1.88903,0.5719 -1.03366,0.23674 -2.19787,0.38776 -1.1642,0.15102 -2.32549,0.0984 -1.17395,-0.005 -2.27191,-0.29615 -0.52512,-0.1393 -1.6075,-0.68193 -1.09504,-0.4949 -2.2125,-1.09794 -1.06971,-0.59038 -1.9134,-1.06969 -0.83102,-0.52705 -0.85343,-0.63519 z m -4.40963,-8.41644 q -0.21577,1.01447 -0.37296,1.99091 -0.14691,0.92813 -8.6e-4,1.66611 0.146,0.73796 0.63323,1.29603 0.4975,0.50976 1.56028,0.73582 0.5314,0.11296 1.22826,0.16028 0.70713,-0.001 1.32793,-0.071 0.66912,-0.0597 1.14499,-0.16042 0.52417,-0.0905 0.64134,-0.16655 0.17575,-0.1141 0.19324,0.0411 0.0175,0.1552 -0.0822,0.38647 -0.0411,0.19324 -0.18909,0.41423 -0.13771,0.17269 -0.30319,0.23847 -0.53445,0.13879 -1.87574,0.50993 -1.34128,0.37113 -3.12761,0.69811 -1.68971,0.34752 -3.29001,0.51208 -1.54173,0.12652 -2.50789,-0.079 -1.11109,-0.23633 -1.59525,-1.04621 -0.48416,-0.80989 -0.26838,-1.82436 0.0719,-0.33817 0.12328,-0.57971 0.0997,-0.23127 0.23019,-0.60745 0.15106,-0.47282 0.51482,-1.70828 0.42235,-1.2735 0.85804,-2.84712 0.48399,-1.56335 0.91968,-3.13697 0.44596,-1.62194 0.69256,-2.78133 l 0.35962,-1.6908 q 0.26715,-1.25601 0.32772,-2.253 0.0606,-0.99699 -0.16456,-1.6003 -0.16962,-0.38954 -0.51498,-0.66497 -0.28679,-0.31347 -0.81818,-0.42649 -0.28985,-0.0617 -0.61053,0.0217 -0.31039,0.035 -0.45532,0.004 -0.0966,-0.0205 -0.27651,-0.36178 -0.13158,-0.33096 0.14079,-0.4245 0.38952,-0.16961 1.56533,-0.47496 1.1758,-0.30534 2.5654,-0.6662 1.49647,-0.38862 2.85523,-0.60457 1.36905,-0.26424 1.90044,-0.15121 0.53139,0.11306 0.6527,0.49228 0.13158,0.33095 0.0494,0.71741 l -0.0411,0.19324 q -0.10275,0.48308 -0.47372,1.51504 -0.37098,1.03196 -0.89301,2.53672 -0.47372,1.51505 -1.05018,3.51316 -0.57647,1.99813 -1.07994,4.36524 z m 3.41061,-25.53131 q 0.23127,0.0997 0.65992,0.69579 0.47694,0.60638 0.92307,1.35769 0.44613,0.7513 0.75759,1.42348 0.31148,0.67218 0.27038,0.8654 -0.0514,0.24155 -0.73382,0.60133 -0.68245,0.35979 -1.56841,0.72678 -0.82737,0.32895 -1.63419,0.5613 -0.75852,0.24262 -1.04836,0.18098 -0.14492,-0.0308 -0.63215,-0.58891 -0.42865,-0.59611 -0.88504,-1.2991 -0.4564,-0.703 -0.82647,-1.33714 -0.31147,-0.67217 -0.27037,-0.8654 0.0514,-0.24155 0.78213,-0.59106 0.74103,-0.39781 1.57867,-0.77508 0.89624,-0.4153 1.65475,-0.65792 0.8171,-0.28065 0.9723,-0.29814 z m -4.39138,11.53208 q -1.09336,0.57369 -3.47947,0.78827 -2.32947,0.17372 -5.30358,-0.30713 -0.58507,-0.0946 -1.32429,-0.16406 -0.68257,-0.11038 -1.07262,-0.17342 -0.10454,1.88425 -1.10241,3.72412 -0.94913,1.84776 -2.11051,3.46108 -1.10474,1.57245 -2.04891,2.77061 -0.94417,1.19817 -1.03876,1.78324 -0.12615,0.78009 0.43822,1.62179 0.56434,0.8417 1.46996,1.73856 0.90564,0.89688 1.94966,1.86615 1.05189,0.92052 1.93388,1.96367 0.88987,0.99438 1.40691,2.12861 0.51704,1.13423 0.31998,2.35312 -0.28378,1.75521 -1.98789,3.631 -1.65536,1.88366 -4.23855,3.31714 -2.59106,1.48224 -5.85974,2.20453 -3.26868,0.72229 -6.73034,0.16261 -1.60894,-0.26012 -3.45524,-0.90883 -1.79754,-0.64084 -3.29612,-1.58354 -1.44984,-0.93483 -2.35693,-2.13213 -0.86621,-1.14064 -0.6455,-2.50581 0.12615,-0.78009 1.50122,-1.85856 1.42384,-1.07059 3.19686,-2.13475 1.77301,-1.06415 3.48151,-2.03869 1.70849,-0.97453 2.46055,-1.60339 0.14628,0.0236 0.30976,0.2502 0.21226,0.23444 0.17285,0.47821 -0.007,0.0488 -0.0566,0.0408 -0.007,0.0488 -0.0158,0.0975 -0.55062,0.31121 -1.37655,0.77804 -0.77717,0.47472 -1.57011,1.04693 -0.79294,0.57223 -1.40662,1.2735 -0.62156,0.75002 -0.74768,1.53012 -0.16554,1.02386 0.4569,2.1251 0.66331,1.15788 1.80484,2.14292 1.19029,0.99293 2.76916,1.74849 1.57886,0.75558 3.28532,1.03146 3.51041,0.56756 5.56662,-0.70097 2.09709,-1.21189 2.5464,-3.99096 0.18919,-1.17014 -0.31998,-2.35313 -0.4604,-1.1751 -1.28576,-2.25912 -0.77658,-1.07613 -1.81271,-2.09416 -0.99526,-0.96139 -1.86003,-1.80163 -0.81599,-0.83235 -1.40399,-1.52778 -0.53923,-0.68754 -0.46041,-1.1751 0.0709,-0.43881 0.40144,-0.9357 0.38713,-0.53778 0.81512,-1.01891 0.43588,-0.5299 0.75062,-0.92928 0.37135,-0.44027 0.41076,-0.68404 -0.007,0.0488 -0.0738,-0.16203 -0.39647,0.28611 -1.08547,0.52493 -0.68901,0.23881 -1.6139,0.38946 -0.87615,0.15852 -1.88279,0.1959 -0.95789,0.0452 -1.93301,-0.11237 -1.85272,-0.29954 -3.17205,-1.11321 -1.31144,-0.86243 -2.12102,-2.04395 -0.76082,-1.17364 -1.03555,-2.56888 -0.26684,-1.44398 -0.0225,-2.95541 0.36261,-2.24276 1.25655,-3.74923 0.94272,-1.49859 2.09913,-2.46232 1.20518,-0.95584 2.43691,-1.45713 1.23963,-0.55003 2.24481,-0.88782 0.63237,-0.19795 1.45188,-0.3156 0.87614,-0.15853 1.83403,-0.20378 0.96578,-0.094 1.96454,-0.0826 0.99877,0.0114 1.87637,0.1533 3.07161,0.49661 4.86273,1.48662 1.79111,0.99 2.28948,1.6209 0.56931,0.19211 2.07285,0.48523 1.50354,0.29312 3.20999,0.56901 1.70647,0.2759 3.21789,0.52025 1.56019,0.25226 2.19401,0.35472 0.24378,0.0394 0.48756,0.0788 0.24378,0.0394 0.49546,0.0297 0.2359,0.0881 0.15561,0.27531 -0.0803,0.18714 -0.29108,0.25312 z m -22.21571,9.91641 q 0.68259,0.11038 1.41246,-0.0718 0.72989,-0.18217 1.37655,-0.77805 0.70332,-0.63674 1.23379,-1.7517 0.58711,-1.15584 0.87877,-2.9598 0.26801,-1.6577 0.10653,-3.13468 -0.11269,-1.4691 -0.6785,-2.61121 -0.5658,-1.14211 -1.55171,-1.85184 -0.97804,-0.75849 -2.44071,-0.99497 -2.0965,-0.33896 -3.8193,1.0335 -1.71493,1.32372 -2.18788,4.24907 -0.26013,1.60893 0.0963,3.11744 0.35647,1.50851 1.10941,2.73091 0.80958,1.18153 1.97475,2.0203 1.17307,0.79002 2.48947,1.00285 z m -21.76774,1.3395 q -0.58578,0.38676 -1.59484,1.02802 -1.00905,0.64127 -2.31289,1.25231 -1.30385,0.61104 -2.8332,1.00036 -1.52431,0.3402 -3.14565,0.17397 -2.45657,-0.25186 -4.28705,-1.28355 -1.82545,-1.08082 -3.00592,-2.64164 -1.1263,-1.6049 -1.61264,-3.64068 -0.43722,-2.03073 -0.21054,-4.24165 0.26697,-2.60396 1.25961,-4.53775 0.99262,-1.93379 2.27376,-3.29188 1.33531,-1.40217 2.7626,-2.24879 1.43233,-0.89575 2.57366,-1.37451 0.52154,-0.24442 1.29377,-0.51278 0.82136,-0.26331 1.73596,-0.46743 0.96371,-0.19908 2.01562,-0.28982 1.10608,-0.13484 2.2361,-0.019 2.11265,0.2166 4.02249,0.95854 1.95898,0.74696 3.36115,2.08228 1.40722,1.28617 2.15434,3.19973 0.74711,1.91358 0.48517,4.46841 -0.21156,2.06351 -1.18404,3.80078 -0.92335,1.7423 -2.1012,3.06132 -1.17783,1.31903 -2.31538,2.245 -1.08337,0.88189 -1.57088,1.27874 z m -5.63244,0.21689 q 2.80049,0.28712 4.49103,-1.67441 1.73967,-1.9565 2.18799,-6.32918 0.22667,-2.21091 -0.22062,-4.14339 -0.39312,-1.97657 -1.37705,-3.51723 -0.93481,-1.53563 -2.32816,-2.47286 -1.3883,-0.98635 -3.1079,-1.16265 -1.22829,-0.12594 -2.42379,0.39692 -1.14638,0.52788 -2.10755,1.67054 -0.95612,1.09351 -1.62374,2.76273 -0.66762,1.66924 -0.88926,3.83101 -0.23675,2.30917 0.26471,4.19756 0.5506,1.89341 1.59878,3.29173 1.05321,1.34918 2.45664,2.18813 1.45758,0.79486 3.07892,0.9611 z m -10.97428,-3.02844 q 0.28297,0.21625 0.26387,0.51196 -0.0256,0.39428 -1.20044,0.96177 -1.22744,0.6136 -3.25939,1.42267 -1.98266,0.81225 -3.9494,1.37809 -0.95872,0.2845 -1.71393,0.48317 -0.75522,0.19867 -1.34665,0.16046 -0.69001,-0.0446 -1.70273,-0.45645 -0.96662,-0.35939 -1.67726,-0.85073 -0.56596,-0.4325 -0.89823,-0.65193 -0.32907,-0.26873 -0.31315,-0.51515 0.0128,-0.19714 0.12086,-0.33864 0.16059,-0.18759 0.27508,-0.42766 0.0589,-0.14467 0.12405,-0.38792 0.0652,-0.24324 0.0812,-0.48967 0.22746,-1.2226 0.52497,-3.5295 0.34998,-2.35299 0.63005,-5.15594 0.28325,-2.85223 0.52677,-5.8555 0.29598,-3.04938 0.46474,-5.66154 0.20697,-3.2036 0.28507,-5.17823 0.1274,-1.97144 0.10521,-3.16068 -0.0428,-1.636 -0.25737,-2.14478 -0.2114,-0.55806 -0.4912,-0.8236 -0.3259,-0.31801 -0.66772,-0.38958 -0.28935,-0.11768 -0.58507,-0.13678 -0.24325,-0.0652 -0.44039,-0.0779 -0.14786,-0.009 -0.14149,-0.10812 0.10511,-1.62644 1.48508,-1.5373 1.03502,0.0669 2.41185,0.2053 1.42929,0.0924 2.36574,0.15284 0.59141,0.0385 1.23533,0.0303 0.69638,-0.054 1.34027,-0.0619 0.6471,-0.0572 1.19562,-0.12073 0.54851,-0.0636 0.80131,-0.1462 0.20033,-0.0366 0.28616,0.16697 0.13513,0.20669 0.11602,0.50241 0.0302,0.2989 -0.1336,0.53578 -0.11449,0.24006 -0.31482,0.27662 -0.2989,0.0302 -0.54533,0.0143 -0.19714,-0.0128 -0.75203,0.14938 -0.2528,0.0826 -0.48497,0.61206 -0.22898,0.48013 -0.45008,1.60416 -0.2179,1.07475 -0.48358,2.88878 -0.26248,1.76475 -0.58547,4.46593 -0.28795,2.15904 -0.53299,4.41984 -0.19258,2.21468 -0.42806,4.32763 -0.18616,2.11612 -0.35329,3.93652 -0.11784,1.82359 -0.20057,3.10503 -0.0923,1.42931 -0.18784,2.90788 -0.0431,1.43248 0.14925,2.28627 0.19548,0.8045 1.18591,1.56137 0.99044,0.75688 2.12402,0.83011 0.88715,0.0573 1.8395,-0.12862 0.95237,-0.18594 1.76324,-0.48 0.81086,-0.29405 1.42458,-0.60084 0.66301,-0.30362 0.97146,-0.48166 z m -25.51086,-0.43998 q -0.55628,0.42812 -1.51631,1.14067 -0.96004,0.71256 -2.21628,1.41628 -1.25625,0.70372 -2.75344,1.20262 -1.49573,0.44953 -3.12484,0.40099 -2.46834,-0.0735 -4.36865,-0.97017 -1.89883,-0.94599 -3.18907,-2.41735 -1.2394,-1.51927 -1.8717,-3.51454 -0.58292,-1.99381 -0.51672,-4.21532 0.078,-2.61645 0.92817,-4.61696 0.85019,-2.0005 2.02977,-3.44768 1.23041,-1.49506 2.59274,-2.44268 1.36381,-0.99698 2.46754,-1.55703 0.50249,-0.28148 1.2533,-0.60499 0.80017,-0.32202 1.6976,-0.59174 0.9468,-0.26825 1.98939,-0.43483 1.09343,-0.21447 2.22887,-0.18063 2.12278,0.0632 4.08127,0.66515 2.00787,0.60335 3.50294,1.83378 1.49654,1.18104 2.38008,3.03557 0.88353,1.85453 0.80703,4.42161 -0.0618,2.07341 -0.9061,3.87646 -0.79493,1.80451 -1.87431,3.20525 -1.07937,1.40076 -2.14697,2.40657 -1.01676,0.95791 -1.47431,1.38897 z m -5.602,0.62363 q 2.81391,0.0838 4.35818,-1.99479 1.59365,-2.07717 1.72458,-6.47084 0.0662,-2.22151 -0.51966,-4.11657 -0.53503,-1.94298 -1.6278,-3.40845 -1.04341,-1.46402 -2.50088,-2.29802 -1.456,-0.88338 -3.18385,-0.93487 -1.23417,-0.0367 -2.38874,0.57115 -1.10519,0.60941 -1.98122,1.81857 -0.87454,1.15981 -1.4197,2.87293 -0.54517,1.71313 -0.6099,3.88528 -0.0692,2.32025 0.56756,4.16742 0.68607,1.84865 1.83262,3.1675 1.14803,1.26948 2.60844,2.00476 1.51126,0.68738 3.14037,0.73593 z m -37.57015,-16.03913 q 0.965,-0.91369 2.17561,-1.88298 1.20936,-1.01868 2.52246,-1.84235 1.36123,-0.8743 2.82993,-1.40548 1.46747,-0.58056 2.99804,-0.61926 1.77742,-0.0449 3.32297,0.50885 1.59367,0.50314 2.80609,1.55939 1.21243,1.05626 1.94234,2.56934 0.72868,1.46372 0.77611,3.3399 0.0961,3.80173 -1.1558,7.04469 -1.2038,3.19234 -2.92007,5.65656 -1.66813,2.41361 -3.35625,4.03723 -1.68811,1.62364 -2.51496,2.13859 -0.24313,0.15437 -0.49623,-0.0863 -0.25311,-0.24063 -0.0137,-0.54311 0.38748,-0.30623 1.1475,-1.51115 0.81063,-1.15681 1.60503,-2.95547 0.7944,-1.79865 1.37883,-4.08604 0.58442,-2.28739 0.51826,-4.90417 -0.0549,-2.17242 -0.64048,-3.83737 -0.53617,-1.6662 -1.4536,-2.77932 -0.91743,-1.11311 -2.11736,-1.67562 -1.15057,-0.56376 -2.48365,-0.53006 -0.88871,0.0224 -1.86868,0.34368 -0.98122,0.27183 -1.80808,0.78678 -0.87498,0.56558 -1.69436,1.37677 -0.81936,0.8112 -1.19312,1.66052 -0.0938,0.2 -0.18751,0.39998 -0.0457,0.14936 -0.13564,0.49748 -0.0419,0.29749 -0.12813,0.79371 -0.0369,0.49498 -0.0655,1.33556 -0.11193,1.43556 -0.17568,2.8205 -0.0157,1.33432 0.0318,3.2105 0.0612,2.41929 0.39112,3.74487 0.3287,1.27621 1.76551,1.43751 0.14811,-0.004 0.3456,-0.009 0.19625,-0.0544 0.44187,-0.10999 0.19625,-0.0544 0.48998,-0.1606 0.14812,-0.004 0.20125,0.14313 0.10249,0.14563 0.10623,0.29373 0.004,0.14812 -0.53187,0.4581 -0.53561,0.30997 -1.36622,0.67681 -0.83185,0.31746 -1.85995,0.68928 -0.97997,0.32121 -1.8612,0.63992 -0.93185,0.27059 -1.61808,0.48555 -0.63685,0.21373 -0.88372,0.21997 -1.48118,0.0374 -1.50991,-1.09813 -0.006,-0.24686 0.22315,-0.94433 0.22939,-0.69747 0.34131,-2.13304 0.14506,-2.07866 0.28014,-4.55231 0.13364,-2.52303 0.16893,-5.04355 0.0844,-2.52177 0.0727,-4.9423 0.0376,-2.42179 -0.0111,-4.34733 -0.0899,-3.55487 -0.30042,-6.01978 -0.16117,-2.46616 -0.28612,-3.5005 -0.18058,-1.27995 -0.33869,-1.67119 -0.15935,-0.44061 -0.36558,-0.78124 -0.2581,-0.43811 -0.65684,-0.57625 -0.3506,-0.18875 -0.69746,-0.22939 -0.29749,-0.0419 -0.5431,0.0137 -0.1975,0.005 -0.19999,-0.0938 -0.0174,-0.69122 0.41565,-1.14681 0.43311,-0.4556 1.17371,-0.47432 1.43182,-0.0362 2.96114,-0.12428 1.52932,-0.0881 2.81053,-0.21928 1.0837,-0.12621 1.96743,-0.34617 0.93309,-0.22121 1.22684,-0.32744 0.39374,-0.0594 0.39873,0.13813 0.0531,0.14687 0.0644,0.59123 0.007,0.29623 -0.23563,0.4506 -0.24312,0.15436 -0.53686,0.26059 -0.29374,0.10624 -0.58749,0.21248 -0.24561,0.0557 -0.34061,0.20622 -0.19,0.30124 -0.3488,1.8368 -0.15876,1.53556 -0.29636,3.91046 -0.0895,2.32428 -0.16519,5.19167 -0.0263,2.86614 -0.002,5.7804 z m -10.48082,-2.82579 q -0.0738,0.30354 -0.51249,0.98448 -0.39362,0.62762 -0.97588,1.37011 -0.58638,0.69328 -1.27118,1.39478 -0.63971,0.64818 -1.15643,0.98871 -0.33219,0.17643 -0.45118,-0.0614 -0.0697,-0.24197 -0.0903,-0.48806 -0.0329,-0.39374 -0.52519,-0.94735 -0.44308,-0.55771 -1.27579,-1.03331 -0.7876,-0.52893 -1.85406,-0.83633 -1.06647,-0.3074 -2.2969,-0.20458 -2.11635,0.1768 -3.25198,2.60103 -1.13973,2.37502 -0.82313,6.16477 0.19325,2.31322 1.03854,4.12592 0.8904,1.75937 2.22773,2.93623 1.38245,1.12353 3.21185,1.66456 1.82528,0.4918 3.89241,0.31911 2.80539,-0.23437 4.42122,-1.06321 1.61172,-0.87806 2.61638,-1.90365 0.0493,-0.005 0.0451,-0.0533 0.0451,-0.0533 0.0944,-0.0575 0.24609,-0.0206 0.36097,0.16809 0.11077,0.13943 0.13133,0.38552 0.0164,0.19687 -0.0738,0.30353 -0.68893,0.65228 -1.93556,1.74764 -1.19742,1.09126 -2.78858,2.2154 -1.59527,1.07494 -3.35875,1.91611 -1.76349,0.84118 -3.53531,0.9892 -5.0694,0.42351 -8.17071,-2.29106 -3.0521,-2.71868 -3.47971,-7.8373 -0.32483,-3.88818 0.92966,-6.66927 1.30371,-2.7852 3.3377,-4.54108 2.0791,-1.80921 4.48241,-2.70383 2.40331,-0.89463 4.27357,-1.05087 1.52575,-0.12746 2.72752,0.0199 1.24689,0.094 2.11236,0.36869 0.91058,0.2213 1.38232,0.52881 0.52096,0.3034 0.54152,0.54949 z m -42.994428,42.26435 q 0.367834,-0.55336 1.081906,-1.80667 0.714082,-1.25331 1.531585,-2.82137 0.866372,-1.57526 1.703967,-3.34596 0.886464,-1.7779 1.64791,-3.38763 0.768645,-1.56087 1.272886,-2.88313 0.560298,-1.28059 0.669434,-1.89571 -1.083916,-1.93713 -2.301512,-4.10418 -1.217597,-2.16705 -2.525731,-4.27085 -1.259266,-2.111 -2.538625,-4.01934 -1.23049,-1.91556 -2.381862,-3.29361 -1.158562,-1.42692 -2.174758,-2.22584 -0.967329,-0.80609 -1.651404,-0.70539 -0.195445,0.0288 -0.418177,0.21133 -0.229923,0.13369 -0.410987,0.26018 -0.132197,0.1193 -0.378002,-0.19396 -0.245805,-0.31326 -0.06471,-0.43976 0.173875,-0.17535 1.015934,-0.89837 0.890926,-0.73021 1.970117,-1.53806 1.071991,-0.8567 2.067833,-1.55244 1.04471,-0.70293 1.533332,-0.77485 0.488624,-0.072 1.253309,0.71407 0.813545,0.77882 1.720606,2.19285 0.94873,1.35797 2.01106,3.14851 1.062329,1.79053 2.153433,3.77652 1.083906,1.93712 2.126143,3.9303 1.091105,1.98599 2.041319,3.6932 0.491348,-1.07076 1.202452,-3.02253 0.759961,-1.95896 1.386232,-4.14785 0.62627,-2.18888 0.966561,-4.28574 0.389148,-2.10406 0.187709,-3.47221 -0.208599,-1.417 -0.978991,-1.90264 -0.77758,-0.53451 -1.608239,-0.41223 -0.635207,0.0935 -1.018914,0.19992 -0.342037,0.0503 -0.767412,0.21281 -0.09774,0.0144 -0.307558,-0.0546 -0.217029,-0.11782 -0.252993,-0.36213 -0.03599,-0.24431 0.995841,-0.69572 1.031817,-0.45143 2.41286,-0.90435 1.381032,-0.45291 2.727605,-0.8009 1.339359,-0.39686 1.876849,-0.47598 1.12383,-0.16545 1.72606,0.19519 0.60222,0.36063 0.68854,0.94698 -0.12051,1.21586 -0.81725,3.26535 -0.65505,1.99344 -1.64344,4.43532 -0.995597,2.39301 -2.157863,5.01025 -1.120597,2.56118 -2.179433,4.86367 -1.058835,2.30249 -1.9381,4.12925 -0.830406,1.81956 -1.203936,2.67329 -0.754256,1.6586 -1.396409,3.40053 -0.634954,1.79078 -1.130512,3.51114 -0.48837,1.76922 -0.85892,3.3214 -0.314493,1.59386 -0.378981,2.85138 -0.03857,0.75452 0.38098,0.89241 0.475729,0.17958 1.089358,-0.0605 0.669687,-0.19844 1.401136,-0.65557 0.731438,-0.45712 1.204188,-0.97601 0.215535,-0.23141 0.278781,-0.14088 0.119313,0.1322 0.155277,0.37652 0.03599,0.24431 -0.0258,0.503 -0.05456,0.30757 -0.18677,0.42687 -0.04884,0.008 -1.059088,0.6052 -1.01023,0.59801 -2.453034,1.30962 -1.435606,0.76047 -3.081042,1.45199 -1.596587,0.68433 -2.867,0.87135 -1.221555,0.17983 -1.336648,-0.60197 -0.01436,-0.0977 -0.02154,-0.14658 0.04164,-0.0561 0.03446,-0.10492 z M 58.495673,370.8552 q -0.33169,0.32722 -0.53974,0.98105 -0.21883,0.60563 -0.25056,0.91638 -0.0267,0.10717 -0.25685,0.20926 -0.17124,0.13952 -0.26763,0.16107 -0.43379,0.097 -0.5308,-0.33678 -0.0324,-0.1446 0.21314,-0.8574 0.1814,-0.54666 0.58164,-1.69894 0.38946,-1.20049 0.77892,-2.40097 0.42687,-1.25947 0.76305,-2.2456 0.3736,-1.0451 0.54992,-1.38819 0.1871,-0.29488 0.5676,-0.17754 0.36973,0.0692 0.27902,0.34248 -0.0749,0.11795 -0.0907,0.27333 -0.0157,0.15538 0.0596,0.49276 0.097,0.43378 0.97088,0.94688 0.91129,0.45414 2.20817,0.82204 1.2861,0.3197 2.780861,0.44092 1.494763,0.12118 2.84432,-0.18057 1.590546,-0.35569 2.301533,-1.47625 0.759182,-1.13134 0.425054,-2.62549 -0.377233,-1.68694 -1.620836,-2.2692 -1.243592,-0.58225 -2.931146,-0.66036 -1.639366,-0.0886 -3.572996,0.0905 -1.89621,0.12038 -3.60532,-0.0541 -1.66091,-0.18527 -2.94761,-0.96032 -1.28672,-0.77505 -1.71785,-2.70299 -0.33412,-1.49415 0.33314,-3.26285 0.71546,-1.77947 2.13295,-3.36167 1.46568,-1.59298 3.51036,-2.85996 2.04468,-1.26697 4.454602,-1.80589 0.722975,-0.16168 1.719278,-0.23265 0.996311,-0.071 1.965971,-0.0348 1.007077,-0.0228 1.832151,0.0458 0.862479,0.01 1.280414,0.0678 0.09639,-0.0215 0.03804,0.39638 -0.04754,0.46612 -0.421186,1.51122 -0.384373,0.99692 -0.913333,2.02617 -0.480774,1.01846 -0.956459,1.83336 -0.427489,0.80411 -0.668477,0.85801 -0.0482,0.0108 -0.289195,0.0647 -0.240988,0.0539 -0.358946,-0.0209 -0.0057,-0.25178 -0.09192,-0.63736 -0.377243,-1.68695 -2.135162,-2.30601 -1.709716,-0.62985 -4.601626,0.0168 -1.39775,0.31257 -2.13029,1.33673 -0.68434,1.01339 -0.42567,2.17015 0.42036,1.87974 1.68551,2.55839 1.26516,0.67865 2.96349,0.80495 1.687559,0.078 3.572982,-0.0905 1.885436,-0.16857 3.594543,0.006 1.69834,0.12632 2.985048,0.90135 1.286709,0.77504 1.739396,2.79938 0.204792,0.91577 0.01321,1.86957 -0.191581,0.9538 -0.645713,1.8651 -0.454121,0.91129 -1.074402,1.75852 -0.631058,0.79903 -1.294454,1.45347 -0.615192,0.64366 -1.412399,1.37863 -0.807994,0.68677 -1.771351,1.35768 -0.963367,0.6709 -2.018035,1.1598 -1.043892,0.53709 -2.152462,0.785 -0.530184,0.11856 -1.740844,0.13624 -1.19987,0.0659 -2.4695,0.0462 -1.22143,-0.0305 -2.1911,-0.0667 -0.98044,-0.0844 -1.05019,-0.17003 z m -26.0095,-6.36569 q 0.44869,0.58117 2.05629,0.7335 1.59232,0.10532 3.84676,-0.62784 2.06656,-0.67209 3.51299,-1.97347 1.47812,-1.36363 2.1952,-3.3107 0.76405,-1.96235 0.68839,-4.43064 -0.044,-2.53052 -1.02156,-5.53644 -0.71792,-2.20746 -1.95591,-3.77837 -1.25327,-1.61789 -2.83988,-2.50413 -1.53964,-0.90153 -3.31869,-1.10197 -1.77905,-0.20043 -3.56381,0.38002 -0.98632,0.32078 -1.88098,0.92335 -0.86298,0.54034 -1.53922,1.17575 -0.64456,0.57317 -1.02373,1.16391 -0.34747,0.52848 -0.33448,0.8878 -0.002,0.31236 0.27038,1.47013 0.31963,1.14248 0.76032,2.8169 0.47238,1.61217 1.01999,3.61535 0.57931,1.94094 1.14334,3.83491 0.611,1.8787 1.11393,3.5848 0.53463,1.64386 0.87067,2.67714 z m -5.55857,1.91166 q -1.86354,-5.73002 -3.13365,-9.31597 -1.27011,-3.58595 -2.1148,-5.54444 -0.85997,-2.00547 -1.38617,-2.6653 -0.52621,-0.65983 -0.94891,-0.52235 -0.14091,0.0458 -0.54834,0.23027 -0.42271,0.13747 -0.93935,0.30549 -0.46967,0.15275 -0.84541,0.27496 -0.39102,0.0752 -0.42155,-0.019 -0.0458,-0.14091 -0.16803,-0.51665 -0.13747,-0.4227 0.0199,-0.57774 0.21956,-0.12334 1.01801,-0.38301 0.79845,-0.25968 1.847,-0.54876 1.09553,-0.30435 2.23802,-0.62398 1.12722,-0.36661 2.06657,-0.6721 0.93935,-0.3055 1.50296,-0.4888 0.61057,-0.19857 0.53306,-0.27723 0.18787,-0.0611 0.80073,-0.57203 0.64455,-0.57318 1.6026,-1.30024 1.00502,-0.74234 2.32239,-1.48239 1.34907,-0.8023 2.89899,-1.30638 5.87093,-1.90936 10.01519,-0.50461 4.12899,1.35779 5.53428,5.67879 1.19145,3.66345 0.68251,7.04896 -0.52422,3.33853 -2.24746,6.18413 -1.69155,2.78335 -4.34614,4.84119 -2.60762,2.04258 -5.6605,3.03546 -0.93935,0.30549 -2.09712,0.57816 -1.1108,0.25739 -1.70382,0.19057 0.38188,1.17419 0.99288,3.05289 0.61099,1.8787 1.26896,3.74211 0.65796,1.86343 1.30294,3.36753 0.6297,1.45713 1.01729,1.85043 0.24783,0.28294 0.68581,0.19244 0.50022,-0.0588 1.04856,-0.28908 0.56361,-0.1833 1.09667,-0.46054 0.5953,-0.24554 1.018,-0.38302 0.1562,7.7e-4 0.24897,0.12678 0.10807,0.17259 0.16917,0.36046 0.0764,0.23484 0.0752,0.39101 0.0141,0.20315 -0.12677,0.24898 -0.89238,0.29022 -2.00547,0.85996 -1.05084,0.60144 -2.25901,1.3579 -1.14592,0.78817 -2.30826,1.68555 -1.11537,0.88209 -2.12153,1.7806 -0.97447,0.83628 -2.34452,2.37249 -1.35478,1.58319 -2.72483,3.11941 -1.35478,1.58318 -2.5194,2.79291 -1.16462,1.20972 -1.72823,1.39303 -0.23484,0.0764 -0.57775,-0.0198 -0.38987,-0.081 -0.65412,-0.25469 -0.31121,-0.15846 -0.34062,-0.40857 -0.0141,-0.20315 0.425,-0.44983 1.11308,-0.56974 2.46558,-1.84057 1.35249,-1.27083 2.56522,-2.65201 1.21274,-1.38118 2.065,-2.59319 0.91451,-1.18032 1.13636,-1.61601 0.15846,-0.31122 -0.2177,-2.2663 -0.31392,-1.92337 -0.93448,-4.62993 -0.63583,-2.75351 -1.50308,-5.89919 -0.83555,-3.20791 -1.73677,-5.97899 z"
       style="font-size:49.3889px;line-height:1.25;font-family:Luminari;-inkscape-font-specification:'Luminari, Normal';stroke-width:1.2;stroke:#ffff00;stroke-opacity:1;stroke-miterlimit:4;stroke-dasharray:none" />
  </g>
</svg>
